<svg width="702" height="621" viewBox="0 0 702 621" fill="none" xmlns="http://www.w3.org/2000/svg">
  <path opacity="0.15" fill-rule="evenodd" clip-rule="evenodd" d="M511.007 123.656C513.348 116.362 512.659 108.655 508.942 101.911C505.224 95.1676 499.097 90.4195 491.662 88.4928L153.639 0.894562C151.367 0.27525 149.026 0 146.755 0C135.051 0 124.312 7.43174 120.525 19.061L1.35654 385.556C-0.984153 392.85 -0.295715 400.557 3.42185 407.301C7.13941 414.044 13.2665 418.792 20.7016 420.719L358.793 508.317C372.906 511.965 387.432 503.982 391.907 490.151L511.076 123.587L511.007 123.656ZM590.659 140.859C587.768 140.859 584.876 141.341 581.985 142.235C573.517 144.988 567.115 151.456 564.361 159.92L451.319 507.56C444.986 527.103 451.939 548.297 468.599 560.271L544.259 614.77C551.487 620 560.506 621.376 568.974 618.624C577.441 615.871 583.844 609.403 586.597 600.939L699.639 253.299C705.973 233.756 699.019 212.562 682.359 200.588L606.7 146.089C601.881 142.648 596.373 140.859 590.659 140.859ZM375.247 576.648C385.642 579.332 395.281 583.873 403.955 590.135L438.996 615.39L168.647 545.339C158.32 542.655 148.613 538.113 139.939 531.851L104.898 506.597L375.247 576.648Z" fill="url(#paint0_linear_1660_14087)"/>
  <defs>
  <linearGradient id="paint0_linear_1660_14087" x1="0.0153785" y1="309.961" x2="698.855" y2="307.8" gradientUnits="userSpaceOnUse">
  <stop stop-color="#101669"/>
  <stop offset="1" stop-color="#C6BFFF"/>
  </linearGradient>
  </defs>
  </svg>
  