<svg width="604" height="631" viewBox="0 0 604 631" fill="none" xmlns="http://www.w3.org/2000/svg">
  <path opacity="0.15" fill-rule="evenodd" clip-rule="evenodd" d="M235.741 480.679L584.064 393.516C591.169 391.74 597.089 387.201 600.641 380.82C604.194 374.373 604.983 367.005 602.746 360.032L494.401 18.3536C490.849 7.23617 480.521 0 469.272 0C467.167 0 464.996 0.263133 462.891 0.7894L114.568 87.9524C107.463 89.7285 101.543 94.2676 97.9907 100.649C94.4384 107.095 93.649 114.463 95.8856 121.436L204.297 463.115C208.507 476.337 222.321 484.1 235.807 480.679H235.741ZM181.207 630.731L524.07 544.949C536.24 541.923 546.633 533.832 552.62 522.846L582.288 468.377C584.262 464.759 583.012 461.799 581.63 459.957C580.512 458.51 578.604 456.931 575.841 456.931C575.183 456.931 574.46 456.997 573.736 457.194L230.873 542.976C218.703 546.002 208.31 554.093 202.323 565.079L172.655 619.548C170.682 623.166 171.931 626.126 173.313 627.968C174.694 629.81 177.26 631.717 181.273 630.731H181.207ZM47.8639 165.972L151.67 493.244V493.31C156.867 509.69 155.091 527.846 146.868 542.976L121.739 589.156C119.699 592.84 116.542 593.301 114.239 593.103C111.937 592.906 108.911 591.788 107.661 587.775L3.85481 260.502C-1.34208 244.057 0.43407 225.966 8.65699 210.836L33.7862 164.656C35.5624 161.433 38.1937 160.643 40.3646 160.643H41.2855C43.588 160.841 46.614 161.959 47.8639 165.972Z" fill="url(#paint0_linear_1660_14092)"/>
  <defs>
  <linearGradient id="paint0_linear_1660_14092" x1="0.935331" y1="315.455" x2="601.339" y2="313.888" gradientUnits="userSpaceOnUse">
  <stop stop-color="#101669"/>
  <stop offset="1" stop-color="#C6BFFF"/>
  </linearGradient>
  </defs>
  </svg>
  