<svg width="660" height="599" viewBox="0 0 660 599" fill="none" xmlns="http://www.w3.org/2000/svg">
  <path opacity="0.15" fill-rule="evenodd" clip-rule="evenodd" d="M85.097 136.492L47.2491 124.597L396.034 2.6593C405.411 -0.671219 415.807 -0.807158 425.32 2.18352L463.168 14.0782L114.383 136.016C105.006 139.347 94.6099 139.483 85.097 136.492ZM534.651 62.6767C530.778 60.7056 526.565 59.686 522.352 59.686C519.362 59.686 516.304 60.2298 513.315 61.2493L162.763 183.935C148.969 188.761 141.427 203.51 145.708 217.512L255.718 579.655C257.892 586.792 262.785 592.638 269.444 596.036C276.103 599.435 283.645 599.91 290.712 597.463L641.331 474.846C655.125 470.02 662.667 455.271 658.387 441.269L548.376 79.0574C546.202 71.9206 541.31 66.0752 534.651 62.6767ZM111.325 551.176C115.81 565.857 127.226 577.412 141.835 582.034L183.488 595.152C187.225 596.308 189.875 594.745 191.438 593.181C193.001 591.618 194.632 589.035 193.476 585.229L82.8547 221.182C78.37 206.501 67.0224 194.946 52.3453 190.324L10.6923 177.206C9.74103 176.934 8.92563 176.798 8.11024 176.798C5.66406 176.798 3.89737 177.954 2.67428 179.177C1.11144 180.74 -0.451395 183.323 0.635797 187.129L111.19 551.244L111.325 551.176Z" fill="url(#paint0_linear_1660_14082)"/>
  <defs>
  <linearGradient id="paint0_linear_1660_14082" x1="0.28837" y1="299.48" x2="656.673" y2="297.506" gradientUnits="userSpaceOnUse">
  <stop stop-color="#101669"/>
  <stop offset="1" stop-color="#C6BFFF"/>
  </linearGradient>
  </defs>
  </svg>
  