<svg viewBox="0 0 1988 1736" fill="none" xmlns="http://www.w3.org/2000/svg">
  <path d="M495.297 1.18216L710.598 551.593C741.682 631.045 832.189 669.203 910.767 635.968L1529.12 374.483C1601.02 344.085 1684.22 373.668 1720.78 442.641L1986.89 944.696L1987.77 944.228L1721.66 442.173C1684.86 372.742 1601.11 342.962 1528.73 373.562L910.377 635.047C832.318 668.063 742.408 630.156 711.529 551.229L496.228 0.817871L495.297 1.18216Z" fill="url(#paint0_radial_2_3)"/>
  <path d="M702.742 564.155L487.441 13.7437L488.372 13.3794L703.673 563.79C734.552 642.718 824.462 680.625 902.521 647.608L1520.87 386.124C1593.25 355.524 1677.01 385.303 1713.81 454.734L1979.92 956.79L1979.03 957.258L1712.92 455.202C1676.37 386.23 1593.16 356.647 1521.26 387.045L902.911 648.529C824.333 681.765 733.826 643.606 702.742 564.155Z" fill="url(#paint1_radial_2_3)"/>
  <path d="M479.585 26.2915L694.886 576.703C725.97 656.154 816.477 694.313 895.055 661.077L1513.41 399.592C1585.31 369.195 1668.51 398.777 1705.07 467.75L1971.18 969.806L1972.06 969.337L1705.95 467.282C1669.15 397.851 1585.39 368.072 1513.02 398.671L894.665 660.156C816.606 693.172 726.696 655.266 695.817 576.338L480.516 25.9272L479.585 26.2915Z" fill="url(#paint2_radial_2_3)"/>
  <path d="M687.03 589.264L471.729 38.8533L472.661 38.489L687.961 588.9C718.84 667.827 808.75 705.734 886.809 672.718L1505.16 411.233C1577.54 380.634 1661.29 410.413 1698.09 479.844L1964.2 981.899L1963.32 982.367L1697.21 480.312C1660.65 411.339 1577.45 381.756 1505.55 412.154L887.199 673.639C808.621 706.875 718.114 668.716 687.03 589.264Z" fill="url(#paint3_radial_2_3)"/>
  <path d="M463.873 51.4146L679.174 601.826C710.258 681.277 800.766 719.436 879.343 686.2L1497.7 424.716C1569.59 394.318 1652.8 423.9 1689.35 492.873L1955.46 994.929L1956.35 994.46L1690.24 492.405C1653.44 422.974 1569.68 393.195 1497.31 423.794L878.953 685.279C800.895 718.295 710.984 680.389 680.105 601.461L464.805 51.0503L463.873 51.4146Z" fill="url(#paint4_radial_2_3)"/>
  <path d="M671.332 614.374L456.031 63.9627L456.962 63.5984L672.263 614.009C703.142 692.937 793.052 730.844 871.111 697.827L1489.46 436.343C1561.84 405.743 1645.6 435.522 1682.4 504.953L1948.51 1007.01L1947.62 1007.48L1681.51 505.421C1644.95 436.449 1561.75 406.866 1489.85 437.264L871.5 698.748C792.923 731.984 702.415 693.825 671.332 614.374Z" fill="url(#paint5_radial_2_3)"/>
  <path d="M448.175 76.524L663.476 626.935C694.559 706.386 785.067 744.545 863.644 711.309L1482 449.825C1553.9 419.427 1637.1 449.01 1673.66 517.983L1939.77 1020.04L1940.65 1019.57L1674.54 517.514C1637.74 448.083 1553.98 418.304 1481.61 448.904L863.255 710.388C785.196 743.405 695.286 705.498 664.407 626.571L449.106 76.1597L448.175 76.524Z" fill="url(#paint6_radial_2_3)"/>
  <path d="M655.62 639.483L440.319 89.0721L441.25 88.7078L656.551 639.119C687.43 718.046 777.34 755.953 855.399 722.936L1473.75 461.452C1546.13 430.852 1629.88 460.631 1666.68 530.062L1932.79 1032.12L1931.91 1032.59L1665.8 530.531C1629.24 461.558 1546.04 431.975 1474.14 462.373L855.788 723.857C777.211 757.093 686.703 718.935 655.62 639.483Z" fill="url(#paint7_radial_2_3)"/>
  <path d="M432.463 101.634L647.764 652.045C678.848 731.496 769.355 769.655 847.933 736.419L1466.29 474.935C1538.18 444.537 1621.39 474.12 1657.94 543.093L1924.05 1045.15L1924.94 1044.68L1658.83 542.624C1622.03 473.193 1538.27 443.414 1465.9 474.014L847.543 735.498C769.484 768.515 679.574 730.608 648.695 651.681L433.394 101.27L432.463 101.634Z" fill="url(#paint8_radial_2_3)"/>
  <path d="M639.908 664.606L424.607 114.195L425.538 113.831L640.839 664.242C671.718 743.169 761.628 781.076 839.687 748.059L1458.04 486.575C1530.42 455.975 1614.17 485.754 1650.97 555.185L1917.08 1057.24L1916.2 1057.71L1650.09 555.654C1613.53 486.681 1530.33 457.098 1458.43 487.496L840.077 748.98C761.499 782.216 670.992 744.058 639.908 664.606Z" fill="url(#paint9_radial_2_3)"/>
  <path d="M416.765 126.743L632.065 677.154C663.149 756.606 753.657 794.765 832.234 761.529L1450.59 500.044C1522.49 469.646 1605.69 499.229 1642.25 568.202L1908.36 1070.26L1909.24 1069.79L1643.13 567.734C1606.33 498.303 1522.57 468.523 1450.2 499.123L831.844 760.608C753.786 793.624 663.875 755.717 632.996 676.79L417.696 126.379L416.765 126.743Z" fill="url(#paint10_radial_2_3)"/>
  <path d="M624.209 689.716L408.909 139.304L409.84 138.94L625.141 689.351C656.019 768.279 745.93 806.185 823.989 773.169L1442.34 511.684C1514.72 481.085 1598.47 510.864 1635.27 580.295L1901.38 1082.35L1900.5 1082.82L1634.39 580.763C1597.83 511.79 1514.63 482.208 1442.73 512.605L824.378 774.09C745.801 807.326 655.293 769.167 624.209 689.716Z" fill="url(#paint11_radial_2_3)"/>
  <path d="M401.053 151.853L616.353 702.264C647.437 781.715 737.945 819.874 816.522 786.638L1434.88 525.154C1506.77 494.756 1589.98 524.338 1626.53 593.311L1892.64 1095.37L1893.53 1094.9L1627.42 592.843C1590.62 523.412 1506.86 493.633 1434.49 524.232L816.133 785.717C738.074 818.734 648.163 780.827 617.285 701.899L401.984 151.488L401.053 151.853Z" fill="url(#paint12_radial_2_3)"/>
  <path d="M608.497 714.825L393.197 164.414L394.128 164.05L609.429 714.461C640.308 793.388 730.218 831.295 808.277 798.278L1426.63 536.794C1499.01 506.194 1582.76 535.973 1619.56 605.404L1885.67 1107.46L1884.79 1107.93L1618.68 605.873C1582.12 536.9 1498.92 507.317 1427.02 537.715L808.666 799.199C730.089 832.435 639.581 794.276 608.497 714.825Z" fill="url(#paint13_radial_2_3)"/>
  <path d="M385.341 176.962L600.642 727.373C631.725 806.824 722.233 844.983 800.81 811.747L1419.16 550.263C1491.06 519.865 1574.27 549.448 1610.82 618.421L1876.93 1120.48L1877.82 1120.01L1611.71 617.952C1574.91 548.521 1491.15 518.742 1418.77 549.342L800.421 810.826C722.362 843.843 632.452 805.936 601.573 727.009L386.272 176.598L385.341 176.962Z" fill="url(#paint14_radial_2_3)"/>
  <path d="M592.786 739.934L377.485 189.523L378.416 189.159L593.717 739.57C624.596 818.497 714.506 856.404 792.565 823.388L1410.92 561.903C1483.29 531.303 1567.05 561.083 1603.85 630.514L1869.96 1132.57L1869.08 1133.04L1602.97 630.982C1566.41 562.009 1483.21 532.426 1411.31 562.824L792.954 824.309C714.377 857.544 623.87 819.386 592.786 739.934Z" fill="url(#paint15_radial_2_3)"/>
  <path d="M369.642 202.085L584.943 752.496C616.027 831.947 706.535 870.106 785.112 836.87L1403.46 575.386C1475.36 544.988 1558.57 574.571 1595.12 643.544L1861.23 1145.6L1862.12 1145.13L1596.01 643.075C1559.21 573.644 1475.45 543.865 1403.07 574.465L784.722 835.949C706.664 868.966 616.753 831.059 585.874 752.132L370.574 201.721L369.642 202.085Z" fill="url(#paint16_radial_2_3)"/>
  <path d="M577.087 765.044L361.786 214.633L362.718 214.269L578.018 764.68C608.897 843.607 698.808 881.514 776.866 848.497L1395.22 587.013C1467.6 556.413 1551.35 586.192 1588.15 655.623L1854.26 1157.68L1853.38 1158.15L1587.27 656.092C1550.71 587.119 1467.51 557.536 1395.61 587.934L777.256 849.418C698.679 882.654 608.171 844.495 577.087 765.044Z" fill="url(#paint17_radial_2_3)"/>
  <path d="M353.931 227.194L569.231 777.605C600.315 857.057 690.823 895.216 769.4 861.98L1387.75 600.495C1459.65 570.098 1542.85 599.68 1579.41 668.653L1845.52 1170.71L1846.41 1170.24L1580.3 668.185C1543.5 598.754 1459.74 568.975 1387.36 599.574L769.01 861.059C690.952 894.075 601.041 856.168 570.162 777.241L354.862 226.83L353.931 227.194Z" fill="url(#paint18_radial_2_3)"/>
  <path d="M561.375 790.153L346.075 239.742L347.006 239.378L562.307 789.789C593.185 868.716 683.096 906.623 761.155 873.607L1379.51 612.122C1451.88 581.522 1535.64 611.302 1572.44 680.733L1838.55 1182.79L1837.67 1183.26L1571.56 681.201C1535 612.228 1451.8 582.645 1379.9 613.043L761.544 874.528C682.967 907.763 592.459 869.605 561.375 790.153Z" fill="url(#paint19_radial_2_3)"/>
  <path d="M338.219 252.304L553.519 802.715C584.603 882.166 675.111 920.325 753.688 887.089L1372.04 625.605C1443.94 595.207 1527.14 624.79 1563.7 693.762L1829.81 1195.82L1830.69 1195.35L1564.58 693.294C1527.78 623.863 1444.03 594.084 1371.65 624.684L753.299 886.168C675.24 919.185 585.329 881.278 554.451 802.35L339.15 251.939L338.219 252.304Z" fill="url(#paint20_radial_2_3)"/>
  <path d="M545.677 815.277L330.376 264.865L331.307 264.501L546.608 814.912C577.487 893.84 667.397 931.746 745.456 898.73L1363.81 637.245C1436.19 606.646 1519.94 636.425 1556.74 705.856L1822.85 1207.91L1821.97 1208.38L1555.86 706.324C1519.3 637.351 1436.1 607.769 1364.2 638.166L745.846 899.651C667.268 932.887 576.761 894.728 545.677 815.277Z" fill="url(#paint21_radial_2_3)"/>
  <path d="M322.52 277.413L537.821 827.824C568.905 907.276 659.413 945.435 737.99 912.199L1356.34 650.714C1428.24 620.317 1511.44 649.899 1548 718.872L1814.11 1220.93L1814.99 1220.46L1548.89 718.404C1512.09 648.973 1428.33 619.194 1355.95 649.793L737.6 911.278C659.542 944.294 569.631 906.387 538.752 827.46L323.452 277.049L322.52 277.413Z" fill="url(#paint22_radial_2_3)"/>
  <path d="M529.965 840.386L314.664 289.975L315.596 289.611L530.896 840.022C561.775 918.949 651.686 956.856 729.744 923.839L1348.1 662.355C1420.47 631.755 1504.23 661.534 1541.03 730.965L1807.14 1233.02L1806.26 1233.49L1540.15 731.434C1503.59 662.461 1420.39 632.878 1348.49 663.276L730.134 924.76C651.557 957.996 561.049 919.837 529.965 840.386Z" fill="url(#paint23_radial_2_3)"/>
  <path d="M306.808 302.523L522.109 852.934C553.193 932.385 643.701 970.544 722.278 937.308L1340.63 675.824C1412.53 645.426 1495.73 675.009 1532.29 743.981L1798.4 1246.04L1799.28 1245.57L1533.17 743.513C1496.37 674.082 1412.62 644.303 1340.24 674.903L721.888 936.387C643.83 969.404 553.919 931.497 523.04 852.569L307.74 302.158L306.808 302.523Z" fill="url(#paint24_radial_2_3)"/>
  <path d="M514.253 865.495L298.952 315.084L299.884 314.72L515.184 865.131C546.063 944.058 635.974 981.965 714.032 948.949L1332.39 687.464C1404.76 656.865 1488.52 686.644 1525.32 756.075L1791.43 1258.13L1790.54 1258.6L1524.43 756.543C1487.88 687.57 1404.67 657.987 1332.77 688.385L714.422 949.87C635.845 983.106 545.337 944.947 514.253 865.495Z" fill="url(#paint25_radial_2_3)"/>
  <path d="M291.11 327.646L506.411 878.057C537.494 957.508 628.002 995.667 706.579 962.431L1324.93 700.946C1396.83 670.549 1480.03 700.131 1516.59 769.104L1782.7 1271.16L1783.58 1270.69L1517.48 768.636C1480.67 699.205 1396.92 669.426 1324.54 700.025L706.19 961.51C628.131 994.526 538.221 956.62 507.342 877.692L292.041 327.281L291.11 327.646Z" fill="url(#paint26_radial_2_3)"/>
  <path d="M498.555 890.605L283.254 340.194L284.185 339.83L499.486 890.241C530.365 969.168 620.275 1007.07 698.334 974.058L1316.69 712.574C1389.06 681.974 1472.82 711.753 1509.62 781.184L1775.73 1283.24L1774.85 1283.71L1508.74 781.653C1472.18 712.68 1388.98 683.097 1317.08 713.495L698.724 974.979C620.146 1008.22 529.639 970.056 498.555 890.605Z" fill="url(#paint27_radial_2_3)"/>
  <path d="M275.398 352.755L490.699 903.166C521.783 982.618 612.29 1020.78 690.868 987.541L1309.22 726.056C1381.12 695.658 1464.32 725.241 1500.88 794.214L1766.99 1296.27L1767.87 1295.8L1501.76 793.745C1464.96 724.315 1381.21 694.535 1308.83 725.135L690.478 986.619C612.419 1019.64 522.509 981.729 491.63 902.802L276.329 352.391L275.398 352.755Z" fill="url(#paint28_radial_2_3)"/>
  <path d="M482.843 915.714L267.542 365.303L268.473 364.939L483.774 915.35C514.653 994.277 604.563 1032.18 682.622 999.168L1300.97 737.683C1373.35 707.083 1457.11 736.863 1493.91 806.294L1760.02 1308.35L1759.13 1308.82L1493.02 806.762C1456.47 737.789 1373.26 708.206 1301.36 738.604L683.012 1000.09C604.434 1033.32 513.927 995.166 482.843 915.714Z" fill="url(#paint29_radial_2_3)"/>
  <path d="M259.686 377.865L474.987 928.276C506.071 1007.73 596.578 1045.89 675.156 1012.65L1293.51 751.165C1365.41 720.768 1448.61 750.35 1485.17 819.323L1751.28 1321.38L1752.16 1320.91L1486.05 818.855C1449.25 749.424 1365.5 719.645 1293.12 750.244L674.766 1011.73C596.708 1044.75 506.797 1006.84 475.918 927.911L260.618 377.5L259.686 377.865Z" fill="url(#paint30_radial_2_3)"/>
  <path d="M467.131 940.837L251.83 390.426L252.761 390.062L468.062 940.473C498.941 1019.4 588.851 1057.31 666.91 1024.29L1285.26 762.806C1357.64 732.206 1441.4 761.985 1478.2 831.416L1744.3 1333.47L1743.42 1333.94L1477.31 831.885C1440.75 762.912 1357.55 733.329 1285.65 763.727L667.3 1025.21C588.722 1058.45 498.215 1020.29 467.131 940.837Z" fill="url(#paint31_radial_2_3)"/>
  <path d="M243.988 402.974L459.288 953.385C490.372 1032.84 580.88 1071 659.457 1037.76L1277.81 776.275C1349.71 745.878 1432.91 775.46 1469.47 844.433L1735.58 1346.49L1736.46 1346.02L1470.35 843.965C1433.55 774.534 1349.8 744.755 1277.42 775.354L659.068 1036.84C581.009 1069.86 491.098 1031.95 460.22 953.021L244.919 402.61L243.988 402.974Z" fill="url(#paint32_radial_2_3)"/>
  <path d="M451.432 965.947L236.132 415.536L237.063 415.171L452.364 965.582C483.243 1044.51 573.153 1082.42 651.212 1049.4L1269.56 787.916C1341.94 757.316 1425.7 787.095 1462.5 856.526L1728.61 1358.58L1727.72 1359.05L1461.61 856.994C1425.06 788.022 1341.85 758.439 1269.95 788.837L651.601 1050.32C573.024 1083.56 482.516 1045.4 451.432 965.947Z" fill="url(#paint33_radial_2_3)"/>
  <path d="M228.276 428.084L443.577 978.495C474.66 1057.95 565.168 1096.1 643.745 1062.87L1262.1 801.385C1334 770.987 1417.2 800.57 1453.76 869.542L1719.87 1371.6L1720.75 1371.13L1454.64 869.074C1417.84 799.643 1334.09 769.864 1261.71 800.464L643.356 1061.95C565.297 1094.96 475.387 1057.06 444.508 978.13L229.207 427.719L228.276 428.084Z" fill="url(#paint34_radial_2_3)"/>
  <path d="M435.721 991.056L220.42 440.645L221.351 440.281L436.652 990.692C467.531 1069.62 557.441 1107.53 635.5 1074.51L1253.85 813.025C1326.23 782.425 1409.98 812.204 1446.79 881.635L1712.89 1383.69L1712.01 1384.16L1445.9 882.104C1409.34 813.131 1326.14 783.548 1254.24 813.946L635.889 1075.43C557.312 1108.67 466.805 1070.51 435.721 991.056Z" fill="url(#paint35_radial_2_3)"/>
  <path d="M212.564 453.193L427.865 1003.6C458.949 1083.06 549.456 1121.21 628.034 1087.98L1246.39 826.494C1318.29 796.096 1401.49 825.679 1438.05 894.652L1704.16 1396.71L1705.04 1396.24L1438.93 894.183C1402.13 824.753 1318.37 794.973 1246 825.573L627.644 1087.06C549.585 1120.07 459.675 1082.17 428.796 1003.24L213.495 452.829L212.564 453.193Z" fill="url(#paint36_radial_2_3)"/>
  <path d="M420.022 1016.17L204.722 465.754L205.653 465.39L420.953 1015.8C451.832 1094.73 541.743 1132.64 619.802 1099.62L1238.15 838.134C1310.53 807.535 1394.29 837.314 1431.09 906.745L1697.2 1408.8L1696.31 1409.27L1430.2 907.213C1393.65 838.24 1310.44 808.658 1238.54 839.055L620.191 1100.54C541.614 1133.78 451.106 1095.62 420.022 1016.17Z" fill="url(#paint37_radial_2_3)"/>
  <path d="M196.866 478.316L412.166 1028.73C443.25 1108.18 533.758 1146.34 612.335 1113.1L1230.69 851.617C1302.59 821.219 1385.79 850.802 1422.35 919.775L1688.46 1421.83L1689.34 1421.36L1423.23 919.306C1386.43 849.875 1302.67 820.096 1230.3 850.696L611.946 1112.18C533.887 1145.2 443.976 1107.29 413.098 1028.36L197.797 477.952L196.866 478.316Z" fill="url(#paint38_radial_2_3)"/>
  <path d="M404.31 1041.27L189.01 490.864L189.941 490.5L405.242 1040.91C436.12 1119.84 526.031 1157.74 604.09 1124.73L1222.44 863.244C1294.82 832.644 1378.57 862.423 1415.37 931.854L1681.48 1433.91L1680.6 1434.38L1414.49 932.322C1377.93 863.35 1294.73 833.767 1222.83 864.165L604.479 1125.65C525.902 1158.89 435.394 1120.73 404.31 1041.27Z" fill="url(#paint39_radial_2_3)"/>
  <path d="M181.154 503.426L396.454 1053.84C427.538 1133.29 518.046 1171.45 596.623 1138.21L1214.98 876.726C1286.87 846.329 1370.08 875.911 1406.64 944.884L1672.74 1446.94L1673.63 1446.47L1407.52 944.416C1370.72 874.985 1286.96 845.206 1214.59 875.805L596.234 1137.29C518.175 1170.31 428.264 1132.4 397.386 1053.47L182.085 503.061L181.154 503.426Z" fill="url(#paint40_radial_2_3)"/>
  <path d="M388.598 1066.38L173.298 515.973L174.229 515.609L389.53 1066.02C420.409 1144.95 510.319 1182.85 588.378 1149.84L1206.73 888.353C1279.11 857.754 1362.86 887.533 1399.66 956.964L1665.77 1459.02L1664.89 1459.49L1398.78 957.432C1362.22 888.459 1279.02 858.877 1207.12 889.274L588.767 1150.76C510.19 1183.99 419.682 1145.84 388.598 1066.38Z" fill="url(#paint41_radial_2_3)"/>
  <path d="M165.455 528.535L380.756 1078.95C411.84 1158.4 502.348 1196.56 580.925 1163.32L1199.28 901.836C1271.18 871.438 1354.38 901.021 1390.94 969.994L1657.05 1472.05L1657.93 1471.58L1391.82 969.525C1355.02 900.094 1271.26 870.315 1198.89 900.915L580.535 1162.4C502.477 1195.42 412.566 1157.51 381.687 1078.58L166.387 528.171L165.455 528.535Z" fill="url(#paint42_radial_2_3)"/>
  <path d="M372.9 1091.51L157.599 541.096L158.531 540.732L373.831 1091.14C404.71 1170.07 494.621 1207.98 572.679 1174.96L1191.03 913.476C1263.41 882.876 1347.16 912.656 1383.96 982.087L1650.07 1484.14L1649.19 1484.61L1383.08 982.555C1346.52 913.582 1263.32 883.999 1191.42 914.397L573.069 1175.88C494.492 1209.12 403.984 1170.96 372.9 1091.51Z" fill="url(#paint43_radial_2_3)"/>
  <path d="M149.743 553.645L365.044 1104.06C396.128 1183.51 486.636 1221.67 565.213 1188.43L1183.57 926.946C1255.46 896.548 1338.67 926.13 1375.22 995.103L1641.33 1497.16L1642.22 1496.69L1376.11 994.635C1339.31 925.204 1255.55 895.425 1183.18 926.024L564.823 1187.51C486.765 1220.53 396.854 1182.62 365.975 1103.69L150.675 553.28L149.743 553.645Z" fill="url(#paint44_radial_2_3)"/>
  <path d="M357.188 1116.62L141.888 566.206L142.819 565.841L358.12 1116.25C388.998 1195.18 478.909 1233.09 556.967 1200.07L1175.32 938.586C1247.7 907.986 1331.45 937.765 1368.25 1007.2L1634.36 1509.25L1633.48 1509.72L1367.37 1007.66C1330.81 938.691 1247.61 909.109 1175.71 939.507L557.357 1200.99C478.78 1234.23 388.272 1196.07 357.188 1116.62Z" fill="url(#paint45_radial_2_3)"/>
  <path d="M134.032 578.754L349.332 1129.17C380.416 1208.62 470.924 1246.78 549.501 1213.54L1167.85 952.055C1239.75 921.657 1322.96 951.24 1359.51 1020.21L1625.62 1522.27L1626.51 1521.8L1360.4 1019.74C1323.6 950.313 1239.84 920.534 1167.46 951.134L549.112 1212.62C471.053 1245.63 381.142 1207.73 350.263 1128.8L134.963 578.39L134.032 578.754Z" fill="url(#paint46_radial_2_3)"/>
  <path d="M341.49 1141.73L126.189 591.315L127.12 590.951L342.421 1141.36C373.3 1220.29 463.21 1258.2 541.269 1225.18L1159.62 963.695C1232 933.095 1315.75 962.875 1352.55 1032.31L1618.66 1534.36L1617.78 1534.83L1351.67 1032.77C1315.11 963.801 1231.91 934.218 1160.01 964.616L541.659 1226.1C463.081 1259.34 372.574 1221.18 341.49 1141.73Z" fill="url(#paint47_radial_2_3)"/>
  <path d="M118.333 603.877L333.634 1154.29C364.718 1233.74 455.225 1271.9 533.803 1238.66L1152.16 977.178C1224.05 946.78 1307.26 976.363 1343.81 1045.34L1609.92 1547.39L1610.81 1546.92L1344.7 1044.87C1307.9 975.436 1224.14 945.657 1151.77 976.257L533.413 1237.74C455.354 1270.76 365.444 1232.85 334.565 1153.92L119.264 603.512L118.333 603.877Z" fill="url(#paint48_radial_2_3)"/>
  <path d="M325.778 1166.84L110.477 616.425L111.408 616.06L326.709 1166.47C357.588 1245.4 447.498 1283.31 525.557 1250.29L1143.91 988.804C1216.29 958.205 1300.04 987.984 1336.84 1057.41L1602.95 1559.47L1602.07 1559.94L1335.96 1057.88C1299.4 988.911 1216.2 959.328 1144.3 989.726L525.947 1251.21C447.369 1284.45 356.862 1246.29 325.778 1166.84Z" fill="url(#paint49_radial_2_3)"/>
  <path d="M102.621 628.986L317.922 1179.4C349.006 1258.85 439.514 1297.01 518.091 1263.77L1136.44 1002.29C1208.34 971.889 1291.55 1001.47 1328.1 1070.44L1594.21 1572.5L1595.1 1572.03L1328.99 1069.98C1292.19 1000.55 1208.43 970.766 1136.05 1001.37L517.701 1262.85C439.643 1295.87 349.732 1257.96 318.853 1179.03L103.553 628.622L102.621 628.986Z" fill="url(#paint50_radial_2_3)"/>
  <path d="M310.066 1191.94L94.7654 641.534L95.6966 641.17L310.997 1191.58C341.876 1270.51 431.787 1308.41 509.845 1275.4L1128.2 1013.91C1200.57 983.314 1284.33 1013.09 1321.13 1082.52L1587.24 1584.58L1586.36 1585.05L1320.25 1082.99C1283.69 1014.02 1200.49 984.437 1128.59 1014.83L510.235 1276.32C431.658 1309.56 341.15 1271.4 310.066 1191.94Z" fill="url(#paint51_radial_2_3)"/>
  <path d="M86.9094 654.096L302.21 1204.51C333.294 1283.96 423.802 1322.12 502.379 1288.88L1120.73 1027.4C1192.63 996.999 1275.83 1026.58 1312.39 1095.55L1578.5 1597.61L1579.38 1597.14L1313.27 1095.09C1276.47 1025.66 1192.72 995.876 1120.34 1026.48L501.989 1287.96C423.931 1320.98 334.02 1283.07 303.141 1204.14L87.8407 653.731L86.9094 654.096Z" fill="url(#paint52_radial_2_3)"/>
  <path d="M294.368 1217.07L79.0669 666.657L79.9982 666.293L295.299 1216.7C326.178 1295.63 416.088 1333.54 494.147 1300.52L1112.5 1039.04C1184.88 1008.44 1268.63 1038.22 1305.43 1107.65L1571.54 1609.7L1570.66 1610.17L1304.55 1108.12C1267.99 1039.14 1184.79 1009.56 1112.89 1039.96L494.536 1301.44C415.959 1334.68 325.451 1296.52 294.368 1217.07Z" fill="url(#paint53_radial_2_3)"/>
  <path d="M71.211 679.205L286.512 1229.62C317.595 1309.07 408.103 1347.23 486.68 1313.99L1105.03 1052.51C1176.93 1022.11 1260.14 1051.69 1296.69 1120.66L1562.8 1622.72L1563.69 1622.25L1297.58 1120.2C1260.78 1050.76 1177.02 1020.99 1104.64 1051.58L486.291 1313.07C408.232 1346.09 318.322 1308.18 287.443 1229.25L72.1423 678.841L71.211 679.205Z" fill="url(#paint54_radial_2_3)"/>
  <path d="M278.656 1242.18L63.3551 691.767L64.2863 691.402L279.587 1241.81C310.466 1320.74 400.376 1358.65 478.435 1325.63L1096.79 1064.15C1169.16 1033.55 1252.92 1063.33 1289.72 1132.76L1555.83 1634.81L1554.95 1635.28L1288.84 1133.23C1252.28 1064.25 1169.08 1034.67 1097.18 1065.07L478.825 1326.55C400.247 1359.79 309.74 1321.63 278.656 1242.18Z" fill="url(#paint55_radial_2_3)"/>
  <path d="M55.4991 704.314L270.8 1254.73C301.884 1334.18 392.391 1372.34 470.969 1339.1L1089.32 1077.62C1161.22 1047.22 1244.42 1076.8 1280.98 1145.77L1547.09 1647.83L1547.97 1647.36L1281.86 1145.3C1245.06 1075.87 1161.31 1046.09 1088.93 1076.69L470.579 1338.18C392.52 1371.2 302.61 1333.29 271.731 1254.36L56.4304 703.95L55.4991 704.314Z" fill="url(#paint56_radial_2_3)"/>
  <path d="M262.944 1267.29L47.6432 716.876L48.5744 716.512L263.875 1266.92C294.754 1345.85 384.664 1383.76 462.723 1350.74L1081.08 1089.26C1153.45 1058.66 1237.21 1088.44 1274.01 1157.87L1540.12 1659.92L1539.23 1660.39L1273.12 1158.33C1236.57 1089.36 1153.36 1059.78 1081.47 1090.18L463.113 1351.66C384.535 1384.9 294.028 1346.74 262.944 1267.29Z" fill="url(#paint57_radial_2_3)"/>
  <path d="M39.8007 729.424L255.101 1279.83C286.185 1359.29 376.693 1397.45 455.27 1364.21L1073.62 1102.72C1145.52 1072.33 1228.72 1101.91 1265.28 1170.88L1531.39 1672.94L1532.28 1672.47L1266.17 1170.41C1229.37 1100.98 1145.61 1071.2 1073.23 1101.8L454.881 1363.29C376.822 1396.3 286.911 1358.4 256.033 1279.47L40.732 729.06L39.8007 729.424Z" fill="url(#paint58_radial_2_3)"/>
  <path d="M247.245 1292.4L31.9447 741.986L32.876 741.621L248.177 1292.03C279.055 1370.96 368.966 1408.87 447.025 1375.85L1065.38 1114.37C1137.75 1083.77 1221.51 1113.55 1258.31 1182.98L1524.42 1685.03L1523.54 1685.5L1257.43 1183.44C1220.87 1114.47 1137.67 1084.89 1065.77 1115.29L447.414 1376.77C368.837 1410.01 278.329 1371.85 247.245 1292.4Z" fill="url(#paint59_radial_2_3)"/>
  <path d="M24.0888 754.547L239.389 1304.96C270.473 1384.41 360.981 1422.57 439.558 1389.33L1057.91 1127.85C1129.81 1097.45 1213.01 1127.03 1249.57 1196.01L1515.68 1698.06L1516.56 1697.59L1250.45 1195.54C1213.65 1126.11 1129.9 1096.33 1057.52 1126.93L439.169 1388.41C361.11 1421.43 271.2 1383.52 240.321 1304.59L25.0201 754.183L24.0888 754.547Z" fill="url(#paint60_radial_2_3)"/>
  <path d="M231.534 1317.51L16.2329 767.095L17.1642 766.731L232.465 1317.14C263.344 1396.07 353.254 1433.98 431.313 1400.96L1049.67 1139.47C1122.04 1108.88 1205.8 1138.65 1242.6 1208.09L1508.71 1710.14L1507.82 1710.61L1241.71 1208.55C1205.16 1139.58 1121.95 1110 1050.05 1140.4L431.702 1401.88C353.125 1435.12 262.617 1396.96 231.534 1317.51Z" fill="url(#paint61_radial_2_3)"/>
  <path d="M8.37695 779.657L223.678 1330.07C254.761 1409.52 345.269 1447.68 423.846 1414.44L1042.2 1152.96C1114.1 1122.56 1197.3 1152.14 1233.86 1221.12L1499.97 1723.17L1500.85 1722.7L1234.74 1220.65C1197.94 1151.22 1114.19 1121.44 1041.81 1152.04L423.457 1413.52C345.398 1446.54 255.488 1408.63 224.609 1329.7L9.30824 779.292L8.37695 779.657Z" fill="url(#paint62_radial_2_3)"/>
  <path d="M0.534424 792.205L215.835 1342.62C246.919 1422.07 337.427 1460.23 416.004 1426.99L1034.36 1165.51C1106.26 1135.11 1189.46 1164.69 1226.02 1233.66L1492.13 1735.72L1493.01 1735.25L1226.9 1233.19C1190.1 1163.76 1106.34 1133.98 1033.97 1164.58L415.614 1426.07C337.556 1459.09 247.645 1421.18 216.766 1342.25L1.46571 791.84L0.534424 792.205Z" fill="url(#paint63_radial_2_3)"/>
  <defs>
  <radialGradient id="paint0_radial_2_3" cx="0" cy="0" r="1" gradientUnits="userSpaceOnUse" gradientTransform="translate(1054.5 1147) rotate(-161.267) scale(820.464 931.675)">
  <stop stop-color="#EEECFF"/>
  <stop offset="0.276042" stop-color="#EEECFF" stop-opacity="0.307292"/>
  <stop offset="1" stop-color="#EEECFF" stop-opacity="0"/>
  </radialGradient>
  <radialGradient id="paint1_radial_2_3" cx="0" cy="0" r="1" gradientUnits="userSpaceOnUse" gradientTransform="translate(1054.5 1147) rotate(-161.267) scale(820.464 931.675)">
  <stop stop-color="#EEECFF"/>
  <stop offset="0.276042" stop-color="#EEECFF" stop-opacity="0.307292"/>
  <stop offset="1" stop-color="#EEECFF" stop-opacity="0"/>
  </radialGradient>
  <radialGradient id="paint2_radial_2_3" cx="0" cy="0" r="1" gradientUnits="userSpaceOnUse" gradientTransform="translate(1054.5 1147) rotate(-161.267) scale(820.464 931.675)">
  <stop stop-color="#EEECFF"/>
  <stop offset="0.276042" stop-color="#EEECFF" stop-opacity="0.307292"/>
  <stop offset="1" stop-color="#EEECFF" stop-opacity="0"/>
  </radialGradient>
  <radialGradient id="paint3_radial_2_3" cx="0" cy="0" r="1" gradientUnits="userSpaceOnUse" gradientTransform="translate(1054.5 1147) rotate(-161.267) scale(820.464 931.675)">
  <stop stop-color="#EEECFF"/>
  <stop offset="0.276042" stop-color="#EEECFF" stop-opacity="0.307292"/>
  <stop offset="1" stop-color="#EEECFF" stop-opacity="0"/>
  </radialGradient>
  <radialGradient id="paint4_radial_2_3" cx="0" cy="0" r="1" gradientUnits="userSpaceOnUse" gradientTransform="translate(1054.5 1147) rotate(-161.267) scale(820.464 931.675)">
  <stop stop-color="#EEECFF"/>
  <stop offset="0.276042" stop-color="#EEECFF" stop-opacity="0.307292"/>
  <stop offset="1" stop-color="#EEECFF" stop-opacity="0"/>
  </radialGradient>
  <radialGradient id="paint5_radial_2_3" cx="0" cy="0" r="1" gradientUnits="userSpaceOnUse" gradientTransform="translate(1054.5 1147) rotate(-161.267) scale(820.464 931.675)">
  <stop stop-color="#EEECFF"/>
  <stop offset="0.276042" stop-color="#EEECFF" stop-opacity="0.307292"/>
  <stop offset="1" stop-color="#EEECFF" stop-opacity="0"/>
  </radialGradient>
  <radialGradient id="paint6_radial_2_3" cx="0" cy="0" r="1" gradientUnits="userSpaceOnUse" gradientTransform="translate(1054.5 1147) rotate(-161.267) scale(820.464 931.675)">
  <stop stop-color="#EEECFF"/>
  <stop offset="0.276042" stop-color="#EEECFF" stop-opacity="0.307292"/>
  <stop offset="1" stop-color="#EEECFF" stop-opacity="0"/>
  </radialGradient>
  <radialGradient id="paint7_radial_2_3" cx="0" cy="0" r="1" gradientUnits="userSpaceOnUse" gradientTransform="translate(1054.5 1147) rotate(-161.267) scale(820.464 931.675)">
  <stop stop-color="#EEECFF"/>
  <stop offset="0.276042" stop-color="#EEECFF" stop-opacity="0.307292"/>
  <stop offset="1" stop-color="#EEECFF" stop-opacity="0"/>
  </radialGradient>
  <radialGradient id="paint8_radial_2_3" cx="0" cy="0" r="1" gradientUnits="userSpaceOnUse" gradientTransform="translate(1054.5 1147) rotate(-161.267) scale(820.464 931.675)">
  <stop stop-color="#EEECFF"/>
  <stop offset="0.276042" stop-color="#EEECFF" stop-opacity="0.307292"/>
  <stop offset="1" stop-color="#EEECFF" stop-opacity="0"/>
  </radialGradient>
  <radialGradient id="paint9_radial_2_3" cx="0" cy="0" r="1" gradientUnits="userSpaceOnUse" gradientTransform="translate(1054.5 1147) rotate(-161.267) scale(820.464 931.675)">
  <stop stop-color="#EEECFF"/>
  <stop offset="0.276042" stop-color="#EEECFF" stop-opacity="0.307292"/>
  <stop offset="1" stop-color="#EEECFF" stop-opacity="0"/>
  </radialGradient>
  <radialGradient id="paint10_radial_2_3" cx="0" cy="0" r="1" gradientUnits="userSpaceOnUse" gradientTransform="translate(1054.5 1147) rotate(-161.267) scale(820.464 931.675)">
  <stop stop-color="#EEECFF"/>
  <stop offset="0.276042" stop-color="#EEECFF" stop-opacity="0.307292"/>
  <stop offset="1" stop-color="#EEECFF" stop-opacity="0"/>
  </radialGradient>
  <radialGradient id="paint11_radial_2_3" cx="0" cy="0" r="1" gradientUnits="userSpaceOnUse" gradientTransform="translate(1054.5 1147) rotate(-161.267) scale(820.464 931.675)">
  <stop stop-color="#EEECFF"/>
  <stop offset="0.276042" stop-color="#EEECFF" stop-opacity="0.307292"/>
  <stop offset="1" stop-color="#EEECFF" stop-opacity="0"/>
  </radialGradient>
  <radialGradient id="paint12_radial_2_3" cx="0" cy="0" r="1" gradientUnits="userSpaceOnUse" gradientTransform="translate(1054.5 1147) rotate(-161.267) scale(820.464 931.675)">
  <stop stop-color="#EEECFF"/>
  <stop offset="0.276042" stop-color="#EEECFF" stop-opacity="0.307292"/>
  <stop offset="1" stop-color="#EEECFF" stop-opacity="0"/>
  </radialGradient>
  <radialGradient id="paint13_radial_2_3" cx="0" cy="0" r="1" gradientUnits="userSpaceOnUse" gradientTransform="translate(1054.5 1147) rotate(-161.267) scale(820.464 931.675)">
  <stop stop-color="#EEECFF"/>
  <stop offset="0.276042" stop-color="#EEECFF" stop-opacity="0.307292"/>
  <stop offset="1" stop-color="#EEECFF" stop-opacity="0"/>
  </radialGradient>
  <radialGradient id="paint14_radial_2_3" cx="0" cy="0" r="1" gradientUnits="userSpaceOnUse" gradientTransform="translate(1054.5 1147) rotate(-161.267) scale(820.464 931.675)">
  <stop stop-color="#EEECFF"/>
  <stop offset="0.276042" stop-color="#EEECFF" stop-opacity="0.307292"/>
  <stop offset="1" stop-color="#EEECFF" stop-opacity="0"/>
  </radialGradient>
  <radialGradient id="paint15_radial_2_3" cx="0" cy="0" r="1" gradientUnits="userSpaceOnUse" gradientTransform="translate(1054.5 1147) rotate(-161.267) scale(820.464 931.675)">
  <stop stop-color="#EEECFF"/>
  <stop offset="0.276042" stop-color="#EEECFF" stop-opacity="0.307292"/>
  <stop offset="1" stop-color="#EEECFF" stop-opacity="0"/>
  </radialGradient>
  <radialGradient id="paint16_radial_2_3" cx="0" cy="0" r="1" gradientUnits="userSpaceOnUse" gradientTransform="translate(1054.5 1147) rotate(-161.267) scale(820.464 931.675)">
  <stop stop-color="#EEECFF"/>
  <stop offset="0.276042" stop-color="#EEECFF" stop-opacity="0.307292"/>
  <stop offset="1" stop-color="#EEECFF" stop-opacity="0"/>
  </radialGradient>
  <radialGradient id="paint17_radial_2_3" cx="0" cy="0" r="1" gradientUnits="userSpaceOnUse" gradientTransform="translate(1054.5 1147) rotate(-161.267) scale(820.464 931.675)">
  <stop stop-color="#EEECFF"/>
  <stop offset="0.276042" stop-color="#EEECFF" stop-opacity="0.307292"/>
  <stop offset="1" stop-color="#EEECFF" stop-opacity="0"/>
  </radialGradient>
  <radialGradient id="paint18_radial_2_3" cx="0" cy="0" r="1" gradientUnits="userSpaceOnUse" gradientTransform="translate(1054.5 1147) rotate(-161.267) scale(820.464 931.675)">
  <stop stop-color="#EEECFF"/>
  <stop offset="0.276042" stop-color="#EEECFF" stop-opacity="0.307292"/>
  <stop offset="1" stop-color="#EEECFF" stop-opacity="0"/>
  </radialGradient>
  <radialGradient id="paint19_radial_2_3" cx="0" cy="0" r="1" gradientUnits="userSpaceOnUse" gradientTransform="translate(1054.5 1147) rotate(-161.267) scale(820.464 931.675)">
  <stop stop-color="#EEECFF"/>
  <stop offset="0.276042" stop-color="#EEECFF" stop-opacity="0.307292"/>
  <stop offset="1" stop-color="#EEECFF" stop-opacity="0"/>
  </radialGradient>
  <radialGradient id="paint20_radial_2_3" cx="0" cy="0" r="1" gradientUnits="userSpaceOnUse" gradientTransform="translate(1054.5 1147) rotate(-161.267) scale(820.464 931.675)">
  <stop stop-color="#EEECFF"/>
  <stop offset="0.276042" stop-color="#EEECFF" stop-opacity="0.307292"/>
  <stop offset="1" stop-color="#EEECFF" stop-opacity="0"/>
  </radialGradient>
  <radialGradient id="paint21_radial_2_3" cx="0" cy="0" r="1" gradientUnits="userSpaceOnUse" gradientTransform="translate(1054.5 1147) rotate(-161.267) scale(820.464 931.675)">
  <stop stop-color="#EEECFF"/>
  <stop offset="0.276042" stop-color="#EEECFF" stop-opacity="0.307292"/>
  <stop offset="1" stop-color="#EEECFF" stop-opacity="0"/>
  </radialGradient>
  <radialGradient id="paint22_radial_2_3" cx="0" cy="0" r="1" gradientUnits="userSpaceOnUse" gradientTransform="translate(1054.5 1147) rotate(-161.267) scale(820.464 931.675)">
  <stop stop-color="#EEECFF"/>
  <stop offset="0.276042" stop-color="#EEECFF" stop-opacity="0.307292"/>
  <stop offset="1" stop-color="#EEECFF" stop-opacity="0"/>
  </radialGradient>
  <radialGradient id="paint23_radial_2_3" cx="0" cy="0" r="1" gradientUnits="userSpaceOnUse" gradientTransform="translate(1054.5 1147) rotate(-161.267) scale(820.464 931.675)">
  <stop stop-color="#EEECFF"/>
  <stop offset="0.276042" stop-color="#EEECFF" stop-opacity="0.307292"/>
  <stop offset="1" stop-color="#EEECFF" stop-opacity="0"/>
  </radialGradient>
  <radialGradient id="paint24_radial_2_3" cx="0" cy="0" r="1" gradientUnits="userSpaceOnUse" gradientTransform="translate(1054.5 1147) rotate(-161.267) scale(820.464 931.675)">
  <stop stop-color="#EEECFF"/>
  <stop offset="0.276042" stop-color="#EEECFF" stop-opacity="0.307292"/>
  <stop offset="1" stop-color="#EEECFF" stop-opacity="0"/>
  </radialGradient>
  <radialGradient id="paint25_radial_2_3" cx="0" cy="0" r="1" gradientUnits="userSpaceOnUse" gradientTransform="translate(1054.5 1147) rotate(-161.267) scale(820.464 931.675)">
  <stop stop-color="#EEECFF"/>
  <stop offset="0.276042" stop-color="#EEECFF" stop-opacity="0.307292"/>
  <stop offset="1" stop-color="#EEECFF" stop-opacity="0"/>
  </radialGradient>
  <radialGradient id="paint26_radial_2_3" cx="0" cy="0" r="1" gradientUnits="userSpaceOnUse" gradientTransform="translate(1054.5 1147) rotate(-161.267) scale(820.464 931.675)">
  <stop stop-color="#EEECFF"/>
  <stop offset="0.276042" stop-color="#EEECFF" stop-opacity="0.307292"/>
  <stop offset="1" stop-color="#EEECFF" stop-opacity="0"/>
  </radialGradient>
  <radialGradient id="paint27_radial_2_3" cx="0" cy="0" r="1" gradientUnits="userSpaceOnUse" gradientTransform="translate(1054.5 1147) rotate(-161.267) scale(820.464 931.675)">
  <stop stop-color="#EEECFF"/>
  <stop offset="0.276042" stop-color="#EEECFF" stop-opacity="0.307292"/>
  <stop offset="1" stop-color="#EEECFF" stop-opacity="0"/>
  </radialGradient>
  <radialGradient id="paint28_radial_2_3" cx="0" cy="0" r="1" gradientUnits="userSpaceOnUse" gradientTransform="translate(1054.5 1147) rotate(-161.267) scale(820.464 931.675)">
  <stop stop-color="#EEECFF"/>
  <stop offset="0.276042" stop-color="#EEECFF" stop-opacity="0.307292"/>
  <stop offset="1" stop-color="#EEECFF" stop-opacity="0"/>
  </radialGradient>
  <radialGradient id="paint29_radial_2_3" cx="0" cy="0" r="1" gradientUnits="userSpaceOnUse" gradientTransform="translate(1054.5 1147) rotate(-161.267) scale(820.464 931.675)">
  <stop stop-color="#EEECFF"/>
  <stop offset="0.276042" stop-color="#EEECFF" stop-opacity="0.307292"/>
  <stop offset="1" stop-color="#EEECFF" stop-opacity="0"/>
  </radialGradient>
  <radialGradient id="paint30_radial_2_3" cx="0" cy="0" r="1" gradientUnits="userSpaceOnUse" gradientTransform="translate(1054.5 1147) rotate(-161.267) scale(820.464 931.675)">
  <stop stop-color="#EEECFF"/>
  <stop offset="0.276042" stop-color="#EEECFF" stop-opacity="0.307292"/>
  <stop offset="1" stop-color="#EEECFF" stop-opacity="0"/>
  </radialGradient>
  <radialGradient id="paint31_radial_2_3" cx="0" cy="0" r="1" gradientUnits="userSpaceOnUse" gradientTransform="translate(1054.5 1147) rotate(-161.267) scale(820.464 931.675)">
  <stop stop-color="#EEECFF"/>
  <stop offset="0.276042" stop-color="#EEECFF" stop-opacity="0.307292"/>
  <stop offset="1" stop-color="#EEECFF" stop-opacity="0"/>
  </radialGradient>
  <radialGradient id="paint32_radial_2_3" cx="0" cy="0" r="1" gradientUnits="userSpaceOnUse" gradientTransform="translate(1054.5 1147) rotate(-161.267) scale(820.464 931.675)">
  <stop stop-color="#EEECFF"/>
  <stop offset="0.276042" stop-color="#EEECFF" stop-opacity="0.307292"/>
  <stop offset="1" stop-color="#EEECFF" stop-opacity="0"/>
  </radialGradient>
  <radialGradient id="paint33_radial_2_3" cx="0" cy="0" r="1" gradientUnits="userSpaceOnUse" gradientTransform="translate(1054.5 1147) rotate(-161.267) scale(820.464 931.675)">
  <stop stop-color="#EEECFF"/>
  <stop offset="0.276042" stop-color="#EEECFF" stop-opacity="0.307292"/>
  <stop offset="1" stop-color="#EEECFF" stop-opacity="0"/>
  </radialGradient>
  <radialGradient id="paint34_radial_2_3" cx="0" cy="0" r="1" gradientUnits="userSpaceOnUse" gradientTransform="translate(1054.5 1147) rotate(-161.267) scale(820.464 931.675)">
  <stop stop-color="#EEECFF"/>
  <stop offset="0.276042" stop-color="#EEECFF" stop-opacity="0.307292"/>
  <stop offset="1" stop-color="#EEECFF" stop-opacity="0"/>
  </radialGradient>
  <radialGradient id="paint35_radial_2_3" cx="0" cy="0" r="1" gradientUnits="userSpaceOnUse" gradientTransform="translate(1054.5 1147) rotate(-161.267) scale(820.464 931.675)">
  <stop stop-color="#EEECFF"/>
  <stop offset="0.276042" stop-color="#EEECFF" stop-opacity="0.307292"/>
  <stop offset="1" stop-color="#EEECFF" stop-opacity="0"/>
  </radialGradient>
  <radialGradient id="paint36_radial_2_3" cx="0" cy="0" r="1" gradientUnits="userSpaceOnUse" gradientTransform="translate(1054.5 1147) rotate(-161.267) scale(820.464 931.675)">
  <stop stop-color="#EEECFF"/>
  <stop offset="0.276042" stop-color="#EEECFF" stop-opacity="0.307292"/>
  <stop offset="1" stop-color="#EEECFF" stop-opacity="0"/>
  </radialGradient>
  <radialGradient id="paint37_radial_2_3" cx="0" cy="0" r="1" gradientUnits="userSpaceOnUse" gradientTransform="translate(1054.5 1147) rotate(-161.267) scale(820.464 931.675)">
  <stop stop-color="#EEECFF"/>
  <stop offset="0.276042" stop-color="#EEECFF" stop-opacity="0.307292"/>
  <stop offset="1" stop-color="#EEECFF" stop-opacity="0"/>
  </radialGradient>
  <radialGradient id="paint38_radial_2_3" cx="0" cy="0" r="1" gradientUnits="userSpaceOnUse" gradientTransform="translate(1054.5 1147) rotate(-161.267) scale(820.464 931.675)">
  <stop stop-color="#EEECFF"/>
  <stop offset="0.276042" stop-color="#EEECFF" stop-opacity="0.307292"/>
  <stop offset="1" stop-color="#EEECFF" stop-opacity="0"/>
  </radialGradient>
  <radialGradient id="paint39_radial_2_3" cx="0" cy="0" r="1" gradientUnits="userSpaceOnUse" gradientTransform="translate(1054.5 1147) rotate(-161.267) scale(820.464 931.675)">
  <stop stop-color="#EEECFF"/>
  <stop offset="0.276042" stop-color="#EEECFF" stop-opacity="0.307292"/>
  <stop offset="1" stop-color="#EEECFF" stop-opacity="0"/>
  </radialGradient>
  <radialGradient id="paint40_radial_2_3" cx="0" cy="0" r="1" gradientUnits="userSpaceOnUse" gradientTransform="translate(1054.5 1147) rotate(-161.267) scale(820.464 931.675)">
  <stop stop-color="#EEECFF"/>
  <stop offset="0.276042" stop-color="#EEECFF" stop-opacity="0.307292"/>
  <stop offset="1" stop-color="#EEECFF" stop-opacity="0"/>
  </radialGradient>
  <radialGradient id="paint41_radial_2_3" cx="0" cy="0" r="1" gradientUnits="userSpaceOnUse" gradientTransform="translate(1054.5 1147) rotate(-161.267) scale(820.464 931.675)">
  <stop stop-color="#EEECFF"/>
  <stop offset="0.276042" stop-color="#EEECFF" stop-opacity="0.307292"/>
  <stop offset="1" stop-color="#EEECFF" stop-opacity="0"/>
  </radialGradient>
  <radialGradient id="paint42_radial_2_3" cx="0" cy="0" r="1" gradientUnits="userSpaceOnUse" gradientTransform="translate(1054.5 1147) rotate(-161.267) scale(820.464 931.675)">
  <stop stop-color="#EEECFF"/>
  <stop offset="0.276042" stop-color="#EEECFF" stop-opacity="0.307292"/>
  <stop offset="1" stop-color="#EEECFF" stop-opacity="0"/>
  </radialGradient>
  <radialGradient id="paint43_radial_2_3" cx="0" cy="0" r="1" gradientUnits="userSpaceOnUse" gradientTransform="translate(1054.5 1147) rotate(-161.267) scale(820.464 931.675)">
  <stop stop-color="#EEECFF"/>
  <stop offset="0.276042" stop-color="#EEECFF" stop-opacity="0.307292"/>
  <stop offset="1" stop-color="#EEECFF" stop-opacity="0"/>
  </radialGradient>
  <radialGradient id="paint44_radial_2_3" cx="0" cy="0" r="1" gradientUnits="userSpaceOnUse" gradientTransform="translate(1054.5 1147) rotate(-161.267) scale(820.464 931.675)">
  <stop stop-color="#EEECFF"/>
  <stop offset="0.276042" stop-color="#EEECFF" stop-opacity="0.307292"/>
  <stop offset="1" stop-color="#EEECFF" stop-opacity="0"/>
  </radialGradient>
  <radialGradient id="paint45_radial_2_3" cx="0" cy="0" r="1" gradientUnits="userSpaceOnUse" gradientTransform="translate(1054.5 1147) rotate(-161.267) scale(820.464 931.675)">
  <stop stop-color="#EEECFF"/>
  <stop offset="0.276042" stop-color="#EEECFF" stop-opacity="0.307292"/>
  <stop offset="1" stop-color="#EEECFF" stop-opacity="0"/>
  </radialGradient>
  <radialGradient id="paint46_radial_2_3" cx="0" cy="0" r="1" gradientUnits="userSpaceOnUse" gradientTransform="translate(1054.5 1147) rotate(-161.267) scale(820.464 931.675)">
  <stop stop-color="#EEECFF"/>
  <stop offset="0.276042" stop-color="#EEECFF" stop-opacity="0.307292"/>
  <stop offset="1" stop-color="#EEECFF" stop-opacity="0"/>
  </radialGradient>
  <radialGradient id="paint47_radial_2_3" cx="0" cy="0" r="1" gradientUnits="userSpaceOnUse" gradientTransform="translate(1054.5 1147) rotate(-161.267) scale(820.464 931.675)">
  <stop stop-color="#EEECFF"/>
  <stop offset="0.276042" stop-color="#EEECFF" stop-opacity="0.307292"/>
  <stop offset="1" stop-color="#EEECFF" stop-opacity="0"/>
  </radialGradient>
  <radialGradient id="paint48_radial_2_3" cx="0" cy="0" r="1" gradientUnits="userSpaceOnUse" gradientTransform="translate(1054.5 1147) rotate(-161.267) scale(820.464 931.675)">
  <stop stop-color="#EEECFF"/>
  <stop offset="0.276042" stop-color="#EEECFF" stop-opacity="0.307292"/>
  <stop offset="1" stop-color="#EEECFF" stop-opacity="0"/>
  </radialGradient>
  <radialGradient id="paint49_radial_2_3" cx="0" cy="0" r="1" gradientUnits="userSpaceOnUse" gradientTransform="translate(1054.5 1147) rotate(-161.267) scale(820.464 931.675)">
  <stop stop-color="#EEECFF"/>
  <stop offset="0.276042" stop-color="#EEECFF" stop-opacity="0.307292"/>
  <stop offset="1" stop-color="#EEECFF" stop-opacity="0"/>
  </radialGradient>
  <radialGradient id="paint50_radial_2_3" cx="0" cy="0" r="1" gradientUnits="userSpaceOnUse" gradientTransform="translate(1054.5 1147) rotate(-161.267) scale(820.464 931.675)">
  <stop stop-color="#EEECFF"/>
  <stop offset="0.276042" stop-color="#EEECFF" stop-opacity="0.307292"/>
  <stop offset="1" stop-color="#EEECFF" stop-opacity="0"/>
  </radialGradient>
  <radialGradient id="paint51_radial_2_3" cx="0" cy="0" r="1" gradientUnits="userSpaceOnUse" gradientTransform="translate(1054.5 1147) rotate(-161.267) scale(820.464 931.675)">
  <stop stop-color="#EEECFF"/>
  <stop offset="0.276042" stop-color="#EEECFF" stop-opacity="0.307292"/>
  <stop offset="1" stop-color="#EEECFF" stop-opacity="0"/>
  </radialGradient>
  <radialGradient id="paint52_radial_2_3" cx="0" cy="0" r="1" gradientUnits="userSpaceOnUse" gradientTransform="translate(1054.5 1147) rotate(-161.267) scale(820.464 931.675)">
  <stop stop-color="#EEECFF"/>
  <stop offset="0.276042" stop-color="#EEECFF" stop-opacity="0.307292"/>
  <stop offset="1" stop-color="#EEECFF" stop-opacity="0"/>
  </radialGradient>
  <radialGradient id="paint53_radial_2_3" cx="0" cy="0" r="1" gradientUnits="userSpaceOnUse" gradientTransform="translate(1054.5 1147) rotate(-161.267) scale(820.464 931.675)">
  <stop stop-color="#EEECFF"/>
  <stop offset="0.276042" stop-color="#EEECFF" stop-opacity="0.307292"/>
  <stop offset="1" stop-color="#EEECFF" stop-opacity="0"/>
  </radialGradient>
  <radialGradient id="paint54_radial_2_3" cx="0" cy="0" r="1" gradientUnits="userSpaceOnUse" gradientTransform="translate(1054.5 1147) rotate(-161.267) scale(820.464 931.675)">
  <stop stop-color="#EEECFF"/>
  <stop offset="0.276042" stop-color="#EEECFF" stop-opacity="0.307292"/>
  <stop offset="1" stop-color="#EEECFF" stop-opacity="0"/>
  </radialGradient>
  <radialGradient id="paint55_radial_2_3" cx="0" cy="0" r="1" gradientUnits="userSpaceOnUse" gradientTransform="translate(1054.5 1147) rotate(-161.267) scale(820.464 931.675)">
  <stop stop-color="#EEECFF"/>
  <stop offset="0.276042" stop-color="#EEECFF" stop-opacity="0.307292"/>
  <stop offset="1" stop-color="#EEECFF" stop-opacity="0"/>
  </radialGradient>
  <radialGradient id="paint56_radial_2_3" cx="0" cy="0" r="1" gradientUnits="userSpaceOnUse" gradientTransform="translate(1054.5 1147) rotate(-161.267) scale(820.464 931.675)">
  <stop stop-color="#EEECFF"/>
  <stop offset="0.276042" stop-color="#EEECFF" stop-opacity="0.307292"/>
  <stop offset="1" stop-color="#EEECFF" stop-opacity="0"/>
  </radialGradient>
  <radialGradient id="paint57_radial_2_3" cx="0" cy="0" r="1" gradientUnits="userSpaceOnUse" gradientTransform="translate(1054.5 1147) rotate(-161.267) scale(820.464 931.675)">
  <stop stop-color="#EEECFF"/>
  <stop offset="0.276042" stop-color="#EEECFF" stop-opacity="0.307292"/>
  <stop offset="1" stop-color="#EEECFF" stop-opacity="0"/>
  </radialGradient>
  <radialGradient id="paint58_radial_2_3" cx="0" cy="0" r="1" gradientUnits="userSpaceOnUse" gradientTransform="translate(1054.5 1147) rotate(-161.267) scale(820.464 931.675)">
  <stop stop-color="#EEECFF"/>
  <stop offset="0.276042" stop-color="#EEECFF" stop-opacity="0.307292"/>
  <stop offset="1" stop-color="#EEECFF" stop-opacity="0"/>
  </radialGradient>
  <radialGradient id="paint59_radial_2_3" cx="0" cy="0" r="1" gradientUnits="userSpaceOnUse" gradientTransform="translate(1054.5 1147) rotate(-161.267) scale(820.464 931.675)">
  <stop stop-color="#EEECFF"/>
  <stop offset="0.276042" stop-color="#EEECFF" stop-opacity="0.307292"/>
  <stop offset="1" stop-color="#EEECFF" stop-opacity="0"/>
  </radialGradient>
  <radialGradient id="paint60_radial_2_3" cx="0" cy="0" r="1" gradientUnits="userSpaceOnUse" gradientTransform="translate(1054.5 1147) rotate(-161.267) scale(820.464 931.675)">
  <stop stop-color="#EEECFF"/>
  <stop offset="0.276042" stop-color="#EEECFF" stop-opacity="0.307292"/>
  <stop offset="1" stop-color="#EEECFF" stop-opacity="0"/>
  </radialGradient>
  <radialGradient id="paint61_radial_2_3" cx="0" cy="0" r="1" gradientUnits="userSpaceOnUse" gradientTransform="translate(1054.5 1147) rotate(-161.267) scale(820.464 931.675)">
  <stop stop-color="#EEECFF"/>
  <stop offset="0.276042" stop-color="#EEECFF" stop-opacity="0.307292"/>
  <stop offset="1" stop-color="#EEECFF" stop-opacity="0"/>
  </radialGradient>
  <radialGradient id="paint62_radial_2_3" cx="0" cy="0" r="1" gradientUnits="userSpaceOnUse" gradientTransform="translate(1054.5 1147) rotate(-161.267) scale(820.464 931.675)">
  <stop stop-color="#EEECFF"/>
  <stop offset="0.276042" stop-color="#EEECFF" stop-opacity="0.307292"/>
  <stop offset="1" stop-color="#EEECFF" stop-opacity="0"/>
  </radialGradient>
  <radialGradient id="paint63_radial_2_3" cx="0" cy="0" r="1" gradientUnits="userSpaceOnUse" gradientTransform="translate(1054.5 1147) rotate(-161.267) scale(820.464 931.675)">
  <stop stop-color="#EEECFF"/>
  <stop offset="0.276042" stop-color="#EEECFF" stop-opacity="0.307292"/>
  <stop offset="1" stop-color="#EEECFF" stop-opacity="0"/>
  </radialGradient>
  </defs>
  </svg>
  