<svg width="233" height="58" viewBox="0 0 233 58" fill="none" xmlns="http://www.w3.org/2000/svg">
  <g clip-path="url(#clip0_1475_10937)">
  <path d="M111.376 31.5485C111.376 28.7736 110.836 26.386 109.816 24.3577C108.795 22.3294 107.324 20.7776 105.522 19.6717C103.721 18.5684 101.621 18.0308 99.2787 18.0308C96.936 18.0308 94.8061 18.5684 92.976 19.6717C91.146 20.7751 89.7055 22.3269 88.6547 24.3577C87.6038 26.386 87.0938 28.743 87.0938 31.4899C87.0938 35.6688 88.2036 38.8896 90.4258 41.188C92.648 43.4558 95.6775 44.6203 99.5196 44.6203C101.38 44.6203 103.093 44.2915 104.653 43.6367C106.214 42.9793 107.534 42.0543 108.616 40.8924C109.698 39.7279 110.477 38.357 110.956 36.8332L105.794 35.6101C105.284 36.8944 104.474 37.9366 103.362 38.7137C102.252 39.4884 101.022 39.8782 99.699 39.8782C97.8382 39.8782 96.3362 39.1928 95.1675 37.8194C94.2063 36.6854 93.6373 35.075 93.4579 32.9244H111.407V31.551H111.376V31.5485ZM93.5758 28.6232C93.8167 27.0409 94.296 25.7872 95.0163 24.8036C96.1261 23.3104 97.5383 22.5664 99.2787 22.5664C101.019 22.5664 102.49 23.341 103.662 24.8648C104.382 25.8203 104.861 27.074 105.133 28.5952H93.5758V28.6258V28.6232Z" fill="#050A4A"/>
  <path d="M152.527 27.3723V43.8433H146.134V28.0883C146.134 26.5059 145.745 25.2523 144.963 24.3579C144.184 23.4635 143.133 22.9845 141.81 22.9845C140.488 22.9845 139.26 23.5221 138.327 24.5949C137.366 25.6702 136.918 27.1022 136.918 28.891V43.8407H130.525V28.0858C130.525 26.5034 130.133 25.2497 129.323 24.3553C128.513 23.461 127.491 22.9819 126.201 22.9819C124.792 22.9819 123.62 23.5196 122.69 24.5923C121.759 25.6676 121.308 27.0997 121.308 28.8884V43.8382H114.916V18.7775H121.098V22.8367C121.849 21.4632 122.839 20.3599 124.069 19.4936C125.45 18.538 127.07 18.0615 128.872 18.0615C131.302 18.0615 133.255 18.8973 134.695 20.5077C135.357 21.2543 135.867 22.1487 136.226 23.1628C137.035 21.611 138.117 20.4185 139.468 19.4936C140.908 18.538 142.531 18.0615 144.361 18.0615C146.852 18.0615 148.833 18.8973 150.305 20.5077C151.807 22.1793 152.527 24.4471 152.527 27.3698V27.3723Z" fill="#050A4A"/>
  <path d="M207.403 18.7773V43.8431H201.19V39.6056C200.38 41.0682 199.298 42.2327 197.948 43.1271C196.476 44.0826 194.795 44.5591 192.934 44.5591C190.353 44.5591 188.313 43.7233 186.752 42.1129C185.222 40.4719 184.471 38.2041 184.471 35.2789V18.7773H190.863V34.5323C190.863 36.1147 191.314 37.3683 192.155 38.2627C193.024 39.1877 194.195 39.6361 195.636 39.6361C197.168 39.6361 198.427 39.0985 199.478 38.0257C200.498 36.9504 201.011 35.5184 201.011 33.7296V18.7799H207.403V18.7773Z" fill="#050A4A"/>
  <path d="M83.1085 38.9482C82.5087 39.0679 81.9679 39.0985 81.4886 39.0985C78.9076 39.0985 77.6158 37.906 77.6158 35.5184V23.792H85V18.7799H77.6158V10.1367L71.1927 13.8264V18.7748H66.5996V23.7869H71.1927V35.9618C71.1927 38.7061 71.9436 40.765 73.4149 42.1384C74.8861 43.5118 76.957 44.1973 79.597 44.1973C80.5582 44.1973 81.5475 44.1081 82.5676 43.9577C83.5878 43.8074 84.5182 43.629 85.3281 43.4201L84.7283 38.6449C84.249 38.7647 83.7082 38.8539 83.1085 38.9431V38.9482Z" fill="#050A4A"/>
  <path d="M179.875 24.0598C179.003 22.0901 177.773 20.5994 176.243 19.5827C174.682 18.5686 172.942 18.0615 170.991 18.0615C168.469 18.0615 166.37 18.8667 164.689 20.4491C163.786 21.3155 163.069 22.299 162.559 23.4635V18.7775H156.346V52.9655L162.738 49.2911V39.723C163.189 40.6785 163.758 41.5143 164.478 42.2303C166.07 43.7821 168.141 44.5567 170.663 44.5567C172.614 44.5567 174.354 44.0497 175.946 43.0355C177.507 42.0214 178.737 40.5282 179.667 38.5585C180.598 36.5888 181.079 34.1732 181.138 31.3066C181.169 28.4425 180.749 26.0244 179.877 24.0547L179.875 24.0598ZM174.621 31.3117C174.562 34.1171 174.021 36.176 172.97 37.4883C171.919 38.8006 170.479 39.458 168.587 39.458C166.695 39.458 165.255 38.8006 164.235 37.4883C163.246 36.176 162.735 34.1171 162.735 31.3117C162.735 28.5062 163.276 26.4473 164.327 25.1351C165.409 23.8228 166.88 23.1654 168.769 23.1654C170.658 23.1654 172.101 23.8228 173.152 25.1351C174.203 26.4473 174.682 28.5062 174.623 31.3117H174.621Z" fill="#050A4A"/>
  <path d="M231.14 31.7572C229.91 30.5341 227.959 29.6678 225.288 29.1607L220.426 28.2663C219.196 28.0574 218.296 27.7006 217.786 27.191C217.276 26.6839 217.004 26.0571 217.004 25.3105C217.004 24.4747 217.363 23.7893 218.086 23.2822C218.806 22.8057 219.826 22.5356 221.118 22.5356C222.559 22.5356 223.789 22.9535 224.809 23.7281C225.829 24.5333 226.519 25.5169 226.88 26.712L231.752 23.9116C231.045 22.4413 229.956 21.1953 228.5 20.148C226.549 18.7466 224.058 18.0586 221.057 18.0586C217.876 18.0586 215.354 18.7746 213.552 20.2678C211.722 21.7304 210.822 23.6695 210.822 26.0571C210.822 28.0854 211.422 29.6678 212.622 30.8603C213.793 32.0528 215.774 32.9192 218.504 33.4874L223.156 34.4123C224.445 34.6799 225.347 35.0392 225.888 35.4876C226.398 35.9361 226.667 36.5018 226.667 37.2178C226.667 38.023 226.278 38.711 225.527 39.2767C224.806 39.8143 223.666 40.1125 222.164 40.1125C220.662 40.1125 219.342 39.7532 218.322 38.9785C217.279 38.237 216.533 37.2051 216.023 35.9055L210.938 38.8257C211.714 40.3214 212.862 41.57 214.39 42.5586C216.461 43.9321 219.042 44.6175 222.133 44.6481C225.524 44.6481 228.197 43.9015 230.117 42.4389C232.039 41.0068 232.998 39.0372 232.998 36.591C232.998 34.5907 232.368 32.9803 231.137 31.7572H231.14Z" fill="#050A4A"/>
  <path d="M9.46292 57.9592C9.39371 57.921 9.31426 57.8446 9.31426 57.7019V49.5148C9.31426 48.8956 9.65002 48.3172 10.1908 48.0063L17.3239 43.909C17.3777 43.8784 17.429 43.8657 17.4726 43.8657C17.5315 43.8657 17.5828 43.886 17.6238 43.909C17.693 43.9472 17.7724 44.0236 17.7724 44.1663V52.3559C17.7724 52.9777 17.4367 53.5536 16.8959 53.8644L9.7628 57.9592C9.63977 58.0306 9.53212 57.9975 9.46292 57.9592ZM7.28429 46.0188C7.8251 46.3297 8.49663 46.3297 9.03744 46.0188L16.1705 41.924C16.2935 41.8526 16.3192 41.7456 16.3192 41.6666C16.3192 41.5877 16.2935 41.4806 16.1705 41.4093L9.03744 37.3145C8.76832 37.159 8.46331 37.0826 8.16087 37.0826C7.85843 37.0826 7.55342 37.159 7.28429 37.3145L0.148659 41.4093C0.0256309 41.4806 0 41.5877 0 41.6666C0 41.7456 0.0256309 41.8526 0.151222 41.924L7.28686 46.0163L7.28429 46.0188ZM20.5278 39.3988L27.6608 35.304C28.2016 34.9931 28.5374 34.4147 28.5374 33.7955V25.6059C28.5374 25.4632 28.4554 25.3868 28.3888 25.3486C28.3503 25.3256 28.299 25.3052 28.2375 25.3052C28.1914 25.3052 28.1427 25.318 28.0889 25.3486L20.9558 29.4459C20.415 29.7568 20.0792 30.3352 20.0792 30.9544V39.1415C20.0792 39.2842 20.1612 39.3606 20.2279 39.3988C20.2971 39.437 20.4047 39.4702 20.5278 39.3988ZM19.8024 18.7541C19.5333 18.5986 19.2283 18.5222 18.9258 18.5222C18.6234 18.5222 18.3184 18.5986 18.0493 18.7541L10.9136 22.8489C10.7906 22.9202 10.765 23.0272 10.765 23.1062C10.765 23.1852 10.7906 23.2922 10.9162 23.3636L18.0518 27.4558C18.5926 27.7667 19.2642 27.7667 19.805 27.4558L26.938 23.361C27.0611 23.2897 27.0867 23.1801 27.0867 23.1037C27.0867 23.0272 27.0611 22.9177 26.938 22.8463L19.805 18.7515L19.8024 18.7541ZM20.5226 51.7801L27.6557 47.6853C28.1965 47.3744 28.5323 46.796 28.5323 46.1768V37.9872C28.5323 37.8445 28.4503 37.768 28.3836 37.7298C28.3452 37.7069 28.2939 37.6865 28.2324 37.6865C28.1863 37.6865 28.1376 37.6992 28.0837 37.7298L20.9507 41.8272C20.4099 42.138 20.0741 42.7165 20.0741 43.3357V51.5227C20.0741 51.6654 20.1561 51.7419 20.2228 51.7801C20.292 51.8183 20.3996 51.8514 20.5226 51.7801ZM31.2927 20.8792L38.4258 16.7844C38.9666 16.4735 39.3024 15.8951 39.3024 15.2759V7.08374C39.3024 6.94104 39.2204 6.8646 39.1537 6.82638C39.1153 6.80344 39.064 6.78306 39.0025 6.78306C38.9564 6.78306 38.9077 6.7958 38.8538 6.82638L31.7208 10.9237C31.18 11.2346 30.8442 11.813 30.8442 12.4322V20.6193C30.8442 20.762 30.9262 20.8384 30.9928 20.8766C31.0595 20.9149 31.1671 20.948 31.2927 20.8766V20.8792ZM30.5699 0.231878C30.3008 0.0764432 29.9958 0 29.6934 0C29.3909 0 29.0859 0.0764432 28.8168 0.231878L21.6812 4.32668C21.5581 4.39803 21.5325 4.5076 21.5325 4.58404C21.5325 4.66049 21.5581 4.77006 21.6812 4.8414L28.8168 8.93366C29.3576 9.24453 30.0291 9.24453 30.5699 8.93366L37.703 4.83885C37.826 4.76751 37.8517 4.66049 37.8517 4.5815C37.8517 4.5025 37.826 4.39548 37.703 4.32414L30.5699 0.231878ZM31.2902 33.2579L38.4232 29.1631C38.9641 28.8522 39.2998 28.2738 39.2998 27.6546V19.465C39.2998 19.3223 39.2178 19.2458 39.1512 19.2076C39.1127 19.1847 39.0614 19.1643 38.9999 19.1643C38.9538 19.1643 38.9051 19.1745 38.8513 19.2076L31.7182 23.305C31.1774 23.6159 30.8416 24.1943 30.8416 24.8135V33.0005C30.8416 33.1432 30.9236 33.2197 30.9903 33.2579C31.0569 33.2961 31.1671 33.3292 31.2902 33.2579ZM31.2953 45.6009L38.4284 41.5061C38.9692 41.1952 39.3049 40.6168 39.3049 39.9976V31.808C39.3049 31.6653 39.2229 31.5889 39.1563 31.5507C39.1178 31.5277 39.0666 31.5073 39.0076 31.5073C38.9615 31.5073 38.9102 31.5175 38.859 31.5507L31.7259 35.648C31.1851 35.9589 30.8493 36.5373 30.8493 37.1565V45.3436C30.8493 45.4863 30.9313 45.5627 30.998 45.6009C31.0646 45.6391 31.1723 45.6723 31.2979 45.6009H31.2953Z" fill="#050A4A"/>
  </g>
  <defs>
  <clipPath id="clip0_1475_10937">
  <rect width="233" height="58" fill="white"/>
  </clipPath>
  </defs>
  </svg>
  