<svg width="443" height="426" viewBox="0 0 443 426" fill="none" xmlns="http://www.w3.org/2000/svg">
<path d="M279.754 221.494C285.647 221.494 290.423 216.718 290.423 210.826C290.423 204.934 285.647 200.157 279.754 200.157C273.862 200.157 269.086 204.934 269.086 210.826C269.086 216.718 273.862 221.494 279.754 221.494Z" stroke="#EEECFF" stroke-linecap="round" stroke-linejoin="round"/>
<mask id="path-2-inside-1_1243_12609" fill="white">
<path d="M82.7697 188.561C81.8558 181.077 80.9403 173.591 80.0232 166.104L92.9092 184.093L110.528 183.189L97.0602 194.997L98.8928 216.734L84.7322 199.807L70.7832 197.95"/>
</mask>
<path d="M82.7697 188.561C81.8558 181.077 80.9403 173.591 80.0232 166.104L92.9092 184.093L110.528 183.189L97.0602 194.997L98.8928 216.734L84.7322 199.807L70.7832 197.95" fill="#EEECFF"/>
<path d="M80.0232 166.104L80.8362 165.521L79.0306 166.225L80.0232 166.104ZM92.9092 184.093L92.0962 184.675L92.4145 185.12L92.9604 185.092L92.9092 184.093ZM110.528 183.189L111.187 183.941L113.352 182.042L110.477 182.19L110.528 183.189ZM97.0602 194.997L96.4009 194.245L96.0213 194.578L96.0637 195.081L97.0602 194.997ZM98.8928 216.734L98.1258 217.375L100.155 219.801L99.8893 216.649L98.8928 216.734ZM84.7322 199.807L85.4992 199.165L85.2496 198.867L84.8641 198.816L84.7322 199.807ZM83.7623 188.44C82.8484 180.956 81.9329 173.47 81.0158 165.982L79.0306 166.225C79.9477 173.713 80.8632 181.198 81.7771 188.683L83.7623 188.44ZM79.2102 166.686L92.0962 184.675L93.7221 183.511L80.8362 165.521L79.2102 166.686ZM92.9604 185.092L110.579 184.187L110.477 182.19L92.8579 183.094L92.9604 185.092ZM109.869 182.437L96.4009 194.245L97.7195 195.749L111.187 183.941L109.869 182.437ZM96.0637 195.081L97.8963 216.818L99.8893 216.649L98.0567 194.913L96.0637 195.081ZM99.6598 216.092L85.4992 199.165L83.9652 200.449L98.1258 217.375L99.6598 216.092ZM84.8641 198.816L70.9151 196.959L70.6513 198.942L84.6002 200.798L84.8641 198.816Z" fill="#EEECFF" mask="url(#path-2-inside-1_1243_12609)"/>
<path d="M356.891 328.161L368.344 314.299C367.228 320.071 366.105 325.828 364.977 331.572L375.121 341.254L360.932 339.922L349.388 352.856L351.422 335.429L344.861 326.353L356.891 328.161Z" stroke="#EEECFF" stroke-linecap="round" stroke-linejoin="round"/>
<path d="M186.921 72.7607H175.185V84.4971H186.921V72.7607Z" stroke="#EEECFF" stroke-linecap="round" stroke-linejoin="round"/>
<path d="M267.296 91.4377C256.286 91.4377 247.33 101.125 247.33 113.035V146.296C247.33 156.084 240.115 164.045 231.212 164.045H202.775V75.5262C202.769 71.0632 200.993 66.7849 197.837 63.6291C194.681 60.4733 190.403 58.6976 185.94 58.6912H131.587C130.789 58.5911 129.986 58.5413 129.182 58.5421H65.7959V62.3901H118.706V62.5392H131.322C139.86 63.7032 146.493 71.7311 146.493 81.4377V144.997C146.493 157.623 155.988 167.893 167.657 167.893H198.922V284.112H202.77V167.878H231.212C242.222 167.878 251.178 158.191 251.178 146.281V113.044C251.178 103.256 258.393 95.2953 267.296 95.2953H308.503V91.4473L267.296 91.4377ZM167.652 164.03C158.109 164.03 150.336 155.488 150.336 144.982V81.4377C150.336 73.5974 146.676 66.6662 141.111 62.5392H185.925C189.37 62.5392 192.673 63.9075 195.109 66.343C197.544 68.7786 198.912 72.0818 198.912 75.5262V164.03H167.652Z" fill="#050A4A" stroke="#EEECFF" stroke-linecap="round" stroke-linejoin="round"/>
<path d="M128.888 60.6152C128.884 57.0345 127.929 53.519 126.122 50.4277C126.073 50.3364 126.055 50.2318 126.071 50.1294C126.086 50.027 126.134 49.9323 126.208 49.8594C126.281 49.7864 126.376 49.7391 126.479 49.7245C126.581 49.7099 126.686 49.7288 126.776 49.7783L142.221 58.6912C142.555 58.8823 142.833 59.1583 143.026 59.4911C143.219 59.8238 143.32 60.2017 143.32 60.5864C143.32 60.971 143.219 61.3489 143.026 61.6817C142.833 62.0145 142.555 62.2904 142.221 62.4815L126.776 71.3992C126.686 71.4487 126.581 71.4676 126.479 71.453C126.376 71.4384 126.281 71.3911 126.208 71.3182C126.134 71.2452 126.086 71.1505 126.071 71.0482C126.055 70.9458 126.073 70.8412 126.122 70.7499C127.92 67.674 128.874 64.178 128.888 60.6152Z" fill="#050A4A" stroke="#EEECFF" stroke-linecap="round" stroke-linejoin="round"/>
<path d="M272.553 93.5156C272.55 89.9363 271.595 86.4222 269.787 83.3329C269.739 83.2416 269.72 83.137 269.736 83.0346C269.751 82.9322 269.799 82.8375 269.873 82.7646C269.946 82.6916 270.041 82.6443 270.144 82.6297C270.246 82.6151 270.351 82.634 270.442 82.6835L285.886 91.6013C286.22 91.793 286.497 92.0695 286.69 92.4026C286.883 92.7358 286.985 93.1139 286.985 93.4988C286.985 93.8837 286.883 94.2618 286.69 94.595C286.497 94.9281 286.22 95.2046 285.886 95.3963L270.442 104.314C270.351 104.364 270.246 104.382 270.144 104.368C270.041 104.353 269.946 104.306 269.873 104.233C269.799 104.16 269.751 104.065 269.736 103.963C269.72 103.861 269.739 103.756 269.787 103.665C271.589 100.585 272.544 97.0835 272.553 93.5156Z" fill="#050A4A" stroke="#EEECFF" stroke-linecap="round" stroke-linejoin="round"/>
<path d="M200.846 203.52C204.435 203.522 207.96 202.567 211.057 200.754C211.149 200.705 211.253 200.687 211.356 200.703C211.458 200.718 211.553 200.766 211.626 200.84C211.699 200.913 211.746 201.008 211.76 201.111C211.775 201.213 211.756 201.318 211.707 201.408L202.789 216.853C202.597 217.187 202.321 217.464 201.988 217.657C201.654 217.85 201.276 217.951 200.891 217.951C200.507 217.951 200.128 217.85 199.795 217.657C199.462 217.464 199.186 217.187 198.994 216.853L190.076 201.408C190.027 201.318 190.008 201.213 190.022 201.111C190.037 201.008 190.084 200.913 190.157 200.84C190.23 200.766 190.325 200.718 190.427 200.703C190.53 200.687 190.634 200.705 190.726 200.754C193.797 202.55 197.288 203.504 200.846 203.52Z" fill="#050A4A" stroke="#EEECFF" stroke-linecap="round" stroke-linejoin="round"/>
<path d="M208.706 251.88C208.706 255.206 206.01 257.902 202.683 257.902C199.357 257.902 196.661 255.206 196.661 251.88C196.661 248.554 199.357 245.857 202.683 245.857C206.01 245.857 208.706 248.554 208.706 251.88Z" fill="#050A4A" stroke="#050A4A"/>
<path d="M219.427 247.209C227.381 248.802 235.248 250.806 242.996 253.212C257.493 257.411 275.906 265.477 283.88 282.254C290.966 297.127 286.468 311.716 283.88 326.708C280.278 347.588 278.835 378.175 289.806 418.579L249.503 413.245C239.402 416.785 231.581 416.804 226.387 416.208C217.729 415.246 212.755 411.345 207.421 413.836C202.794 416.001 200.735 421.436 199.725 425.693C192.94 424.456 186.483 421.837 180.754 417.997C168.441 409.599 163.972 397.935 161.197 399.031C159.412 399.738 159.624 406.155 161.788 411.48C165.074 419.556 172.024 423.115 171.865 423.331C171.567 423.745 143.866 414.135 139.268 394.289C135.627 378.603 150.057 372.235 147.565 353.404C145.382 336.925 134.319 338.041 129.768 320.215C125.156 302.081 134.347 277.406 146.954 263.909C149.98 260.672 158.979 251.249 173.631 246.718C178.183 245.353 182.875 244.504 187.618 244.188C198.931 243.168 207.493 244.837 219.427 247.209Z" fill="url(#paint0_linear_1243_12609)"/>
<path d="M201.495 267.444C196.807 269.569 192.579 272.59 189.052 276.338C172.529 294.039 179.326 321.211 180.158 324.347L186.68 353.389C186.671 357.988 187.267 362.568 188.45 367.011C189.927 372.533 193.842 387.151 207.421 394.871C217.209 400.436 227.209 399.681 231.721 399.022" stroke="#050A4A" stroke-linecap="round" stroke-linejoin="round"/>
<path d="M202.683 358.714C205.622 359.754 208.833 359.731 211.757 358.648C214.681 357.565 217.132 355.492 218.685 352.788" stroke="#050A4A" stroke-linecap="round" stroke-linejoin="round"/>
<path d="M190.826 317.223L193.197 323.153" stroke="#050A4A" stroke-linecap="round" stroke-linejoin="round"/>
<path d="M195.569 257.954C195.569 257.954 200.312 259.729 203.867 273.957C207.421 288.185 200.904 308.334 212.169 319.594C220.23 327.656 224.949 330.859 227.633 335.948C228.793 338.262 229.574 340.747 229.946 343.308C233.842 363.356 228.147 388.709 233.506 400.802C237.32 409.416 249.898 418.44 289.812 418.598" stroke="#050A4A" stroke-linecap="round" stroke-linejoin="round"/>
<path d="M177.787 301.812C177.787 301.812 162.395 314.26 164.155 332.043C165.916 349.825 167.118 357.536 161.192 368.791" stroke="#050A4A" stroke-linecap="round" stroke-linejoin="round"/>
<path d="M171.861 346.862C171.861 346.862 177.787 359.306 178.384 374.125" stroke="#050A4A" stroke-linecap="round" stroke-linejoin="round"/>
<path d="M145.781 306.555C145.781 306.555 145.781 293.515 154.078 288.758C162.376 284.001 173.641 269.792 173.641 269.792" stroke="#050A4A" stroke-linecap="round" stroke-linejoin="round"/>
<path d="M222.837 269.215L235.877 298.258" stroke="#050A4A" stroke-linecap="round" stroke-linejoin="round"/>
<path d="M225.208 253.803L231.726 259.137" stroke="#050A4A" stroke-linecap="round" stroke-linejoin="round"/>
<path d="M181.938 311.889C181.938 311.889 190.826 305.323 195.569 311.158C200.312 316.992 198.551 349.825 198.551 349.825L208.652 349.094" stroke="#050A4A" stroke-linecap="round" stroke-linejoin="round"/>
<path d="M235.107 245.8C245.827 247.257 256.166 250.76 265.564 256.117C276.478 262.37 282.919 269.398 284.232 270.855C284.232 270.855 290.393 277.695 294.41 285.54C304.944 306.122 287.676 325.79 289.143 362.221C289.143 362.221 289.239 364.592 299.951 415.275" stroke="#EEECFF" stroke-linecap="round" stroke-linejoin="round"/>
<path d="M301.678 377.704L310.523 411.6" stroke="#EEECFF" stroke-linecap="round" stroke-linejoin="round"/>
<path d="M377.484 161.625C409.797 161.254 418.85 160.052 425.233 153.15C436.435 140.995 431.418 119.624 429.268 111.957C429.932 106.804 430.593 101.654 431.25 96.5071L440.495 95.8866L431.837 87.2287C432.637 84.187 433.279 81.1062 433.761 77.9983C435.237 67.7488 435.021 57.3264 433.121 47.147L443.001 38.489C433.525 38.1763 427.998 35.2278 424.67 32.4813C419.725 28.3976 417.21 22.7748 407.888 16.7623C406.445 15.8339 405.348 15.2231 404.704 14.8383C396.797 10.4074 388.014 7.76402 378.975 7.09418L390.519 2.81809C384.81 1.04801 370.933 -2.38632 354.742 2.55835C329.572 10.2543 318.826 32.0532 317.037 35.8387C314.156 41.898 311.9 48.235 310.303 54.7516C308.143 63.602 304.31 80.0521 309.735 99.4364C313.104 111.236 319.2 122.078 327.532 131.086C324.46 141.088 321.39 151.085 318.321 161.076C342.13 161.793 362.265 161.812 377.484 161.625Z" fill="url(#paint1_linear_1243_12609)"/>
<path d="M344.55 58.778L365.406 25.0215C365.406 25.0215 418.561 45.7526 419.538 45.892C419.538 45.892 428.196 50.221 438.677 45.2764" stroke="#050A4A" stroke-linecap="round" stroke-linejoin="round"/>
<path d="M324.237 54.8095L334.617 31.457" stroke="#050A4A" stroke-linecap="round" stroke-linejoin="round"/>
<path d="M381.442 7.10352L367.094 9.97989" stroke="#050A4A" stroke-linecap="round" stroke-linejoin="round"/>
<path d="M386.405 66.8779L387.213 74.3382" stroke="#050A4A" stroke-linecap="round" stroke-linejoin="round"/>
<path d="M419.537 68.7344C419.739 70.4515 419.951 74.1504 420.153 75.8724" stroke="#050A4A" stroke-linecap="round" stroke-linejoin="round"/>
<path d="M394.222 106.839C396.768 109.263 400.039 110.784 403.534 111.168C407.741 111.546 411.929 110.271 415.212 107.613" stroke="#050A4A" stroke-linecap="round" stroke-linejoin="round"/>
<path d="M327.532 131.577L336.19 147.772V129.244L347.922 135.42C343.252 123.833 340.437 111.582 339.581 99.1187C339.48 97.6757 339.384 96.2327 339.283 94.8137L336.763 98.426C333.612 98.3828 331.904 97.2957 331.063 96.5983C328.254 94.2606 328.234 90.2539 328.177 82.2452C328.143 76.5935 328.797 74.7705 329.456 73.4814C329.894 72.6301 332.082 68.3684 335.185 68.3492C338.037 68.3492 341.193 71.9037 341.837 77.2813L344.877 42.9043" stroke="#050A4A" stroke-linecap="round" stroke-linejoin="round"/>
<path d="M368.286 53.9143C369.608 52.8947 371.065 52.0642 372.615 51.4468C377.719 49.417 383.553 49.9124 390.523 52.6782C404.395 58.1856 411.528 68.6185 431.889 86.6415L442.384 95.9008H406.569" stroke="#050A4A" stroke-linecap="round" stroke-linejoin="round"/>
<path d="M378.167 66.2667L394.838 66.868" stroke="#050A4A" stroke-linecap="round" stroke-linejoin="round"/>
<path d="M412.745 68.1182C418.301 68.3202 420.768 68.527 426.329 68.7338" stroke="#050A4A" stroke-linecap="round" stroke-linejoin="round"/>
<path d="M366.42 149.624C366.42 149.624 375.92 161.144 390.316 161.865" stroke="#050A4A" stroke-linecap="round" stroke-linejoin="round"/>
<path d="M306.132 110.23C308.426 114.66 311.105 119.369 314.237 124.232C316.449 127.667 318.676 130.861 320.87 133.809L309.807 161.072" stroke="#EEECFF" stroke-linecap="round" stroke-linejoin="round"/>
<path d="M317.185 22.5439C295.814 54.9681 298.027 80.7448 298.027 80.7448" stroke="#EEECFF" stroke-linecap="round" stroke-linejoin="round"/>
<path d="M16.1307 117.929C16.0127 117.864 15.8773 117.735 15.8773 117.494V103.661C15.8773 102.615 16.4496 101.638 17.3715 101.112L29.5307 94.1895C29.6224 94.1378 29.7098 94.1163 29.7841 94.1163C29.8846 94.1163 29.972 94.1507 30.0419 94.1895C30.1598 94.254 30.2953 94.3832 30.2953 94.6243V108.462C30.2953 109.512 29.7229 110.485 28.801 111.01L16.6419 117.929C16.4321 118.05 16.2486 117.994 16.1307 117.929ZM12.417 97.7543C13.3388 98.2795 14.4835 98.2795 15.4054 97.7543L27.5646 90.8356C27.7743 90.7151 27.818 90.5342 27.818 90.4008C27.818 90.2673 27.7743 90.0865 27.5646 89.9659L15.4054 83.0473C14.9467 82.7846 14.4267 82.6555 13.9112 82.6555C13.3956 82.6555 12.8757 82.7846 12.417 83.0473L0.253407 89.9659C0.0436909 90.0865 0 90.2673 0 90.4008C0 90.5342 0.0436909 90.7151 0.257776 90.8356L12.4213 97.75L12.417 97.7543ZM34.992 86.569L47.1512 79.6504C48.0731 79.1251 48.6454 78.1478 48.6454 77.1016V63.2643C48.6454 63.0232 48.5056 62.894 48.392 62.8294C48.3265 62.7907 48.2391 62.7562 48.1343 62.7562C48.0556 62.7562 47.9726 62.7778 47.8809 62.8294L35.7217 69.7524C34.7998 70.2777 34.2275 71.255 34.2275 72.3012V86.1342C34.2275 86.3753 34.3673 86.5044 34.4809 86.569C34.5988 86.6336 34.7823 86.6896 34.992 86.569ZM33.7556 51.6872C33.2968 51.4246 32.7769 51.2955 32.2614 51.2955C31.7458 51.2955 31.2259 51.4246 30.7671 51.6872L18.6036 58.6059C18.3939 58.7264 18.3502 58.9073 18.3502 59.0407C18.3502 59.1742 18.3939 59.355 18.608 59.4756L30.7715 66.3899C31.6934 66.9152 32.8381 66.9152 33.76 66.3899L45.9191 59.4713C46.1289 59.3507 46.1725 59.1656 46.1725 59.0364C46.1725 58.9073 46.1289 58.7221 45.9191 58.6016L33.76 51.6829L33.7556 51.6872ZM34.9833 107.489L47.1425 100.57C48.0644 100.045 48.6367 99.0674 48.6367 98.0212V84.1839C48.6367 83.9428 48.4969 83.8136 48.3833 83.749C48.3178 83.7103 48.2304 83.6758 48.1255 83.6758C48.0469 83.6758 47.9639 83.6974 47.8721 83.749L35.7129 90.672C34.7911 91.1973 34.2187 92.1746 34.2187 93.2208V107.054C34.2187 107.295 34.3585 107.424 34.4721 107.489C34.5901 107.553 34.7736 107.609 34.9833 107.489ZM53.3422 55.2779L65.5014 48.3592C66.4233 47.834 66.9956 46.8567 66.9956 45.8105V31.9688C66.9956 31.7277 66.8558 31.5986 66.7422 31.534C66.6767 31.4952 66.5893 31.4608 66.4844 31.4608C66.4058 31.4608 66.3228 31.4823 66.231 31.534L54.0719 38.457C53.15 38.9822 52.5776 39.9595 52.5776 41.0057V54.8387C52.5776 55.0798 52.7174 55.209 52.831 55.2736C52.9446 55.3382 53.1281 55.3941 53.3422 55.2736V55.2779ZM52.1101 20.3918C51.6514 20.1292 51.1315 20 50.6159 20C50.1004 20 49.5804 20.1292 49.1217 20.3918L36.9581 27.3105C36.7484 27.431 36.7047 27.6161 36.7047 27.7453C36.7047 27.8744 36.7484 28.0596 36.9581 28.1801L49.1217 35.0945C50.0436 35.6197 51.1883 35.6197 52.1101 35.0945L64.2693 28.1758C64.479 28.0553 64.5227 27.8744 64.5227 27.741C64.5227 27.6075 64.479 27.4267 64.2693 27.3061L52.1101 20.3918ZM53.3379 76.1932L65.497 69.2745C66.4189 68.7493 66.9913 67.7719 66.9913 66.7258V52.8884C66.9913 52.6473 66.8514 52.5182 66.7379 52.4536C66.6723 52.4148 66.5849 52.3804 66.4801 52.3804C66.4014 52.3804 66.3184 52.3976 66.2267 52.4536L54.0675 59.3766C53.1456 59.9018 52.5733 60.8791 52.5733 61.9253V75.7583C52.5733 75.9994 52.7131 76.1286 52.8267 76.1932C52.9403 76.2578 53.1281 76.3137 53.3379 76.1932ZM53.3466 97.0482L65.5058 90.1295C66.4276 89.6043 67 88.627 67 87.5808V73.7434C67 73.5023 66.8602 73.3732 66.7466 73.3086C66.6811 73.2699 66.5937 73.2354 66.4932 73.2354C66.4145 73.2354 66.3272 73.2526 66.2398 73.3086L54.0806 80.2316C53.1587 80.7568 52.5864 81.7341 52.5864 82.7803V96.6134C52.5864 96.8545 52.7262 96.9836 52.8398 97.0482C52.9534 97.1128 53.1369 97.1688 53.351 97.0482H53.3466Z" fill="#EEECFF"/>
<defs>
<linearGradient id="paint0_linear_1243_12609" x1="128.562" y1="334.775" x2="289.095" y2="334.386" gradientUnits="userSpaceOnUse">
<stop stop-color="#FF7700"/>
<stop offset="1" stop-color="#C6BFFF"/>
</linearGradient>
<linearGradient id="paint1_linear_1243_12609" x1="306.964" y1="80.8513" x2="442.401" y2="80.54" gradientUnits="userSpaceOnUse">
<stop stop-color="#FF7700"/>
<stop offset="1" stop-color="#C6BFFF"/>
</linearGradient>
</defs>
</svg>
