<svg width="419" height="466" viewBox="0 0 419 466" fill="none" xmlns="http://www.w3.org/2000/svg">
<path d="M383.721 301.874C389.439 299.335 399.931 293.896 407.702 283.642C416.843 271.55 424.237 250.124 411.434 236.508C403.578 228.144 391.344 226.117 381.588 224.502C363.254 221.455 322.676 228.007 315.16 230.216C285.339 233.832 216.529 265.05 213.01 259.859C207.505 251.734 219.739 239.758 213.01 233.623C207.835 228.911 195.702 231.526 190.09 232.735C177.465 235.457 174.347 240.246 155.45 248.3C138.325 255.609 135.049 254.136 134.12 253.628C128.533 250.53 130.534 239.073 133.586 231.394C142.931 207.911 173.407 204.574 175.17 188.272C177.348 168.085 127.792 154.246 131.377 134.673C132.596 128.005 139.711 122.048 146.933 120.666C150.098 120.082 153.361 120.326 156.404 121.372C159.332 122.37 162.026 123.953 164.323 126.025C166.62 128.097 168.472 130.614 169.766 133.423C175.52 145.663 189.71 169.989 218.52 183.701C245.223 196.398 285.903 200.643 315.013 177.475C329.05 166.267 335.886 152.234 339.1 144.007C363.406 132.26 377.698 107.259 374.869 82.6785C371.441 52.8014 343.3 28.4852 309.533 29.6635C305.511 23.5692 296.705 12.117 281.53 5.54538C256.528 -5.28719 218.952 -0.853611 205.286 24.2091C195.636 41.9129 202.289 61.8818 204.509 67.773C196.87 62.4245 188.485 58.2304 179.624 55.3254C171.569 52.6998 138.69 41.9942 108.051 60.5106C85.1979 74.3345 73.2582 98.4729 72.2628 113.419C72.0089 117.274 70.5361 139.355 84.7104 151.539C105.025 169.009 141.92 177.114 144.272 184.28C145.46 187.896 138.279 195.255 121.357 205.178C116.177 208.226 91.2313 223.461 89.3624 248.311C89.0018 253.171 87.7677 269.742 100.535 277.66C112.724 285.196 132.779 281.651 144.993 274.948C160.823 266.253 165.734 250.967 176.216 252.313C178.174 252.506 180.029 253.281 181.543 254.537C189.918 261.779 177.648 279.848 183.031 288.243C191.01 300.686 234.406 286.608 250.673 281.215C299.02 265.187 344.895 245.583 380.597 248.3C391.968 249.164 399.281 251.556 402.562 257.086C408.276 266.68 400.81 284.069 383.721 301.874Z" fill="url(#paint0_linear_1243_12481)"/>
<path d="M339.811 145.003C336.917 145.13 333.687 146.044 329.426 145.236C325.317 144.464 323.433 142.748 320.838 141.62" stroke="#050A4A" stroke-linecap="round" stroke-linejoin="round"/>
<path d="M309.751 29.5869C309.751 29.5869 309.98 31.3796 297.532 31.3796" stroke="#050A4A" stroke-linecap="round" stroke-linejoin="round"/>
<path d="M312.387 82.8157C310.142 85.2398 307.894 87.6606 305.643 90.078" stroke="#050A4A" stroke-linecap="round" stroke-linejoin="round"/>
<path d="M305.643 94.7452L317.323 93.7295" stroke="#050A4A" stroke-linecap="round" stroke-linejoin="round"/>
<path d="M305.125 99.6709L313.164 103.81" stroke="#050A4A" stroke-linecap="round" stroke-linejoin="round"/>
<path d="M223.954 82.8154L230.698 90.0981" stroke="#050A4A" stroke-linecap="round" stroke-linejoin="round"/>
<path d="M230.698 94.7452L219.018 93.7295" stroke="#050A4A" stroke-linecap="round" stroke-linejoin="round"/>
<path d="M231.216 99.6719L223.177 103.811" stroke="#050A4A" stroke-linecap="round" stroke-linejoin="round"/>
<path d="M202.173 65.4414L213.066 74.7758" stroke="#050A4A" stroke-linecap="round" stroke-linejoin="round"/>
<path d="M170.274 22.909C171.732 25.6159 173.347 26.7281 174.596 27.2309C175.612 27.6422 176.577 27.7387 177.537 28.6173C178.381 29.4553 178.927 30.5472 179.091 31.7254" stroke="#EEECFF" stroke-linecap="round" stroke-linejoin="round"/>
<path d="M346.541 147.613C348.755 149.746 350.604 150.31 351.975 150.412C353.067 150.493 354.006 150.285 355.195 150.833C356.256 151.375 357.109 152.251 357.622 153.327" stroke="#EEECFF" stroke-linecap="round" stroke-linejoin="round"/>
<path d="M319.131 14.0922C320.762 13.435 322.193 12.3616 323.28 10.979C323.809 10.2604 324.245 9.47703 324.575 8.64797C325.322 7.01267 326.891 4.84413 330.542 2.68066" stroke="#EEECFF" stroke-linecap="round" stroke-linejoin="round"/>
<path d="M123.078 187.327C121.57 186.774 119.965 186.534 118.361 186.621C116.757 186.708 115.188 187.121 113.749 187.835C110.421 189.048 106.806 189.239 103.368 188.383" stroke="#EEECFF" stroke-linecap="round" stroke-linejoin="round"/>
<path d="M169.411 34.4932C171.712 34.4932 172.92 35.2143 173.596 35.8644C174.271 36.5144 174.662 37.3575 175.81 37.9517C176.401 38.2512 177.048 38.4242 177.709 38.4595" stroke="#EEECFF" stroke-linecap="round" stroke-linejoin="round"/>
<path d="M331.081 14.6104C331.041 15.195 330.796 15.7468 330.39 16.1695C329.43 17.0531 328.008 16.4589 326.414 16.6773C325.368 16.8246 323.9 17.3731 322.265 19.2674" stroke="#EEECFF" stroke-linecap="round" stroke-linejoin="round"/>
<path d="M160.441 229.855C160.653 228.654 161.261 227.558 162.168 226.742C164.276 224.959 166.851 226.188 169.43 224.497C170.499 223.765 171.339 222.746 171.853 221.557" stroke="#EEECFF" stroke-linecap="round" stroke-linejoin="round"/>
<path d="M153.159 141.682C153.327 143.007 153.784 144.729 155.145 145.744C156.745 146.943 158.339 146.252 160.335 147.131C161.579 147.684 163.123 148.924 164.312 151.971" stroke="#EEECFF" stroke-linecap="round" stroke-linejoin="round"/>
<path d="M295.272 254.75C308.758 249.828 322.583 245.888 336.637 242.963C376.189 234.736 389.866 240.388 396.153 243.872C399.378 245.66 402.45 247.427 404.756 250.119" stroke="#050A4A" stroke-linecap="round" stroke-linejoin="round"/>
<path d="M145.897 207.037C133.348 217.316 128.015 228.027 125.669 234.004C123.241 240.2 120.54 247.396 124.115 253.196C127.035 257.934 132.606 259.235 133.449 259.417C140.051 260.86 145.084 257.386 145.897 256.827" stroke="#050A4A" stroke-linecap="round" stroke-linejoin="round"/>
<path d="M177.537 132.865C172.27 117.121 157.334 108.305 144.343 111.083C132.764 113.556 121.606 125.465 123.597 137.532C124.948 145.729 131.804 150.629 133.968 152.057" stroke="#050A4A" stroke-linecap="round" stroke-linejoin="round"/>
<path d="M297.868 259.158L338.324 247.102" stroke="#050A4A" stroke-linecap="round" stroke-linejoin="round"/>
<path d="M184.281 129.234L171.311 109.006" stroke="#050A4A" stroke-linecap="round" stroke-linejoin="round"/>
<path d="M101.388 465.211H258.295" stroke="#EEECFF" stroke-linecap="round" stroke-linejoin="round"/>
<path d="M105.745 460.56H253.937" stroke="#EEECFF" stroke-linecap="round" stroke-linejoin="round"/>
<path d="M234.761 450.138C222.709 443.45 216.478 446.583 207.738 440.256C202.867 436.578 199.221 431.516 197.276 425.731C196.143 422.237 194.543 417.29 196.986 412.654C199.084 408.667 203.141 406.864 206.346 406.051C207.731 405.705 208.984 404.963 209.954 403.916C210.923 402.869 211.567 401.562 211.805 400.155H149.913C150.148 401.563 150.789 402.871 151.757 403.919C152.725 404.967 153.978 405.71 155.362 406.057C158.562 406.864 162.62 408.667 164.722 412.659C167.165 417.295 165.56 422.242 164.433 425.736C162.488 431.521 158.841 436.583 153.971 440.261C145.251 446.583 138.999 443.455 126.948 450.144C123.719 451.936 120.698 454.078 117.938 456.532H243.765C241.005 454.079 237.986 451.935 234.761 450.138V450.138Z" fill="#050A4A" stroke="#EEECFF" stroke-linecap="round" stroke-linejoin="round"/>
<path d="M66.8125 330.421C71.7328 348.127 81.6129 364.056 95.288 376.331C117.192 395.879 141.503 399.342 149.913 400.16H211.805C232.685 396.147 252.366 387.399 269.335 374.589L313.519 338.557C319.288 333.174 334.392 320.599 357.103 317.928C366.045 316.893 375.1 317.485 383.831 319.675L396.188 324.129C396.344 324.185 396.516 324.182 396.671 324.12C396.825 324.058 396.951 323.942 397.026 323.793C397.1 323.644 397.118 323.473 397.074 323.312C397.031 323.151 396.931 323.012 396.792 322.92L386.945 316.415L385.599 312.59C385.696 312.268 385.689 311.923 385.577 311.605C385.465 311.288 385.255 311.014 384.977 310.824C384.699 310.634 384.368 310.537 384.031 310.548C383.695 310.559 383.37 310.676 383.105 310.884L382.089 310.376L381.876 306.73C381.854 306.366 381.705 306.022 381.456 305.757C381.206 305.491 380.872 305.322 380.51 305.277C367.336 303.733 354.035 303.592 340.831 304.856C315.306 307.309 302.133 313.952 269.929 321.706C253.537 325.647 236.954 328.751 220.246 331.005L214.152 325.774L150.517 326.064C144.611 325.104 139.233 327.821 137.445 332.158C136.018 335.622 137.318 339.019 137.735 340.005C122.042 342.016 106.122 341.329 90.6614 337.973C82.4969 336.193 74.5135 333.665 66.8125 330.421V330.421Z" fill="#050A4A" stroke="#EEECFF" stroke-linecap="round" stroke-linejoin="round"/>
<path d="M203.126 316.912C201.8 313.985 201.065 310.825 200.963 307.613H160.335C160.234 310.819 159.521 313.975 158.232 316.912C156.709 320.356 154.457 323.429 151.63 325.917H209.922C207.025 323.448 204.706 320.374 203.126 316.912V316.912Z" fill="#050A4A" stroke="#EEECFF" stroke-linecap="round" stroke-linejoin="round"/>
<path d="M203.553 305.633V305.557C203.45 304.669 203.024 303.85 202.356 303.255C201.689 302.661 200.826 302.332 199.932 302.332H197.515C198.173 300.08 198.318 297.709 197.94 295.393C197.563 293.077 196.671 290.876 195.331 288.95C194.754 288.117 193.985 287.437 193.088 286.968C192.191 286.498 191.194 286.253 190.181 286.253H171.36C170.348 286.252 169.35 286.497 168.453 286.966C167.556 287.436 166.786 288.117 166.21 288.95C165.238 290.345 164.498 291.888 164.022 293.52C163.189 296.4 163.189 299.457 164.022 302.337H161.63C160.736 302.337 159.873 302.666 159.205 303.26C158.538 303.855 158.112 304.674 158.009 305.562V305.638C157.982 305.864 158.001 306.093 158.063 306.312C158.126 306.531 158.231 306.735 158.372 306.914C158.514 307.092 158.689 307.241 158.888 307.351C159.087 307.462 159.306 307.532 159.532 307.558H159.735H201.831C202.291 307.558 202.731 307.375 203.056 307.05C203.381 306.726 203.563 306.285 203.563 305.826C203.564 305.761 203.561 305.697 203.553 305.633V305.633Z" fill="#050A4A" stroke="#EEECFF" stroke-linecap="round" stroke-linejoin="round"/>
<path d="M188.129 280.194C185.427 277.457 181.872 277.543 180.775 277.655C179.678 277.553 176.123 277.467 173.421 280.194C171.878 281.786 170.974 283.89 170.882 286.106H190.627C190.546 283.896 189.657 281.793 188.129 280.194V280.194Z" fill="#050A4A" stroke="#EEECFF" stroke-linecap="round" stroke-linejoin="round"/>
<path d="M180.278 255.426H181.294C182.394 255.426 183.45 255.863 184.228 256.641C185.006 257.419 185.443 258.475 185.443 259.575V278.284H176.129V259.575C176.129 259.03 176.236 258.491 176.445 257.987C176.653 257.484 176.959 257.026 177.344 256.641C177.729 256.256 178.187 255.95 178.69 255.742C179.194 255.533 179.733 255.426 180.278 255.426V255.426Z" fill="#050A4A" stroke="#EEECFF" stroke-linecap="round" stroke-linejoin="round"/>
<path d="M382.074 310.376C370.706 308.912 359.217 308.616 347.789 309.493C314.951 312.032 296.856 323.367 266.72 335.353C241.748 345.286 211.871 357.028 172.868 360.05C140.081 362.589 117.984 357.668 107.517 354.844C94.7388 351.391 82.3871 346.519 70.6924 340.32" stroke="#EEECFF" stroke-linecap="round" stroke-linejoin="round"/>
<path d="M55.1316 354.336C53.4779 352.547 52.6024 350.175 52.6976 347.74C52.7929 345.306 53.851 343.009 55.6394 341.355L57.8029 339.324C59.0776 338.729 63.5518 336.825 67.96 338.689C68.798 339.039 72.1448 340.583 74.8262 347.048C77.5687 353.65 80.5345 367.647 72.2311 379.724C64.6132 390.896 52.2673 393.288 49.4233 393.756C30.6021 396.864 9.70895 384.05 3.4674 366.098C-2.98237 347.551 8.0381 327.501 9.14015 325.611C9.44486 325.068 9.69371 324.657 9.8613 324.382C26.2854 296.958 52.1251 306.816 76.3904 275.024C90.6104 256.396 88.8532 243.699 88.3047 240.627C87.8629 238.179 85.8518 228.845 78.4218 224.706C69.8696 219.937 56.584 223.436 52.8513 233.304C50.4491 239.637 51.3582 250.2 58.0822 253.369C59.5419 254.028 61.1545 254.274 62.7443 254.08C69.7426 253.359 72.5917 244.634 67.569 239.713" stroke="#EEECFF" stroke-linecap="round" stroke-linejoin="round"/>
<path d="M55.65 275.497C53.0802 283.623 49.3323 288.828 46.3156 292.094C39.617 299.351 33.2434 300.697 21.4307 310.768C18.0077 313.683 16.3826 316.273 14.666 318.03" stroke="#EEECFF" stroke-linecap="round" stroke-linejoin="round"/>
<path d="M344.076 355.667C341.803 359.292 338.987 362.546 335.727 365.316C337.237 366.894 338.544 368.655 339.617 370.557C340.739 372.542 341.592 374.666 342.156 376.875C343.542 372.721 346.167 369.092 349.677 366.474C346.995 363.365 345.081 359.668 344.091 355.682L344.076 355.667Z" stroke="#EEECFF" stroke-linecap="round" stroke-linejoin="round"/>
<path d="M283.169 408.276L278.675 413.461L282.133 419.687L285.937 414.502L283.169 408.276Z" fill="#EEECFF" stroke="#EEECFF" stroke-linecap="round" stroke-linejoin="round"/>
<path d="M24.8838 159.365L22.9844 171.97L34.599 178.293L35.4065 166.379L24.8838 159.365Z" stroke="#EEECFF" stroke-linecap="round" stroke-linejoin="round"/>
<path d="M244.131 145.929C244.013 145.864 243.877 145.735 243.877 145.494V131.661C243.877 130.615 244.45 129.638 245.372 129.112L257.531 122.189C257.622 122.138 257.71 122.116 257.784 122.116C257.885 122.116 257.972 122.151 258.042 122.189C258.16 122.254 258.295 122.383 258.295 122.624V136.462C258.295 137.512 257.723 138.485 256.801 139.01L244.642 145.929C244.432 146.05 244.249 145.994 244.131 145.929ZM240.417 125.754C241.339 126.28 242.484 126.28 243.405 125.754L255.565 118.836C255.774 118.715 255.818 118.534 255.818 118.401C255.818 118.267 255.774 118.086 255.565 117.966L243.405 111.047C242.947 110.785 242.427 110.655 241.911 110.655C241.396 110.655 240.876 110.785 240.417 111.047L228.253 117.966C228.044 118.086 228 118.267 228 118.401C228 118.534 228.044 118.715 228.258 118.836L240.421 125.75L240.417 125.754ZM262.992 114.569L275.151 107.65C276.073 107.125 276.645 106.148 276.645 105.102V91.2643C276.645 91.0232 276.506 90.894 276.392 90.8294C276.327 90.7907 276.239 90.7562 276.134 90.7562C276.056 90.7562 275.973 90.7778 275.881 90.8294L263.722 97.7524C262.8 98.2777 262.227 99.255 262.227 100.301V114.134C262.227 114.375 262.367 114.504 262.481 114.569C262.599 114.634 262.782 114.69 262.992 114.569ZM261.756 79.6872C261.297 79.4246 260.777 79.2955 260.261 79.2955C259.746 79.2955 259.226 79.4246 258.767 79.6872L246.604 86.6059C246.394 86.7264 246.35 86.9073 246.35 87.0407C246.35 87.1742 246.394 87.355 246.608 87.4756L258.772 94.3899C259.693 94.9152 260.838 94.9152 261.76 94.3899L273.919 87.4713C274.129 87.3507 274.173 87.1656 274.173 87.0364C274.173 86.9073 274.129 86.7221 273.919 86.6016L261.76 79.6829L261.756 79.6872ZM262.983 135.489L275.142 128.57C276.064 128.045 276.637 127.067 276.637 126.021V112.184C276.637 111.943 276.497 111.814 276.383 111.749C276.318 111.71 276.23 111.676 276.126 111.676C276.047 111.676 275.964 111.697 275.872 111.749L263.713 118.672C262.791 119.197 262.219 120.175 262.219 121.221V135.054C262.219 135.295 262.359 135.424 262.472 135.489C262.59 135.553 262.774 135.609 262.983 135.489ZM281.342 83.2779L293.501 76.3592C294.423 75.834 294.996 74.8567 294.996 73.8105V59.9688C294.996 59.7277 294.856 59.5986 294.742 59.534C294.677 59.4952 294.589 59.4608 294.484 59.4608C294.406 59.4608 294.323 59.4823 294.231 59.534L282.072 66.457C281.15 66.9822 280.578 67.9595 280.578 69.0057V82.8387C280.578 83.0798 280.717 83.209 280.831 83.2736C280.945 83.3382 281.128 83.3941 281.342 83.2736V83.2779ZM280.11 48.3918C279.651 48.1292 279.131 48 278.616 48C278.1 48 277.58 48.1292 277.122 48.3918L264.958 55.3105C264.748 55.431 264.705 55.6161 264.705 55.7453C264.705 55.8744 264.748 56.0596 264.958 56.1801L277.122 63.0945C278.044 63.6197 279.188 63.6197 280.11 63.0945L292.269 56.1758C292.479 56.0553 292.523 55.8744 292.523 55.741C292.523 55.6075 292.479 55.4267 292.269 55.3061L280.11 48.3918ZM281.338 104.193L293.497 97.2745C294.419 96.7493 294.991 95.7719 294.991 94.7258V80.8884C294.991 80.6473 294.851 80.5182 294.738 80.4536C294.672 80.4148 294.585 80.3804 294.48 80.3804C294.401 80.3804 294.318 80.3976 294.227 80.4536L282.067 87.3766C281.146 87.9018 280.573 88.8791 280.573 89.9253V103.758C280.573 103.999 280.713 104.129 280.827 104.193C280.94 104.258 281.128 104.314 281.338 104.193ZM281.347 125.048L293.506 118.13C294.428 117.604 295 116.627 295 115.581V101.743C295 101.502 294.86 101.373 294.747 101.309C294.681 101.27 294.594 101.235 294.493 101.235C294.415 101.235 294.327 101.253 294.24 101.309L282.081 108.232C281.159 108.757 280.586 109.734 280.586 110.78V124.613C280.586 124.854 280.726 124.984 280.84 125.048C280.953 125.113 281.137 125.169 281.351 125.048H281.347Z" fill="#050A4A"/>
<defs>
<linearGradient id="paint0_linear_1243_12481" x1="72.1052" y1="150.916" x2="416.765" y2="149.836" gradientUnits="userSpaceOnUse">
<stop stop-color="#FF7700"/>
<stop offset="1" stop-color="#C6BFFF"/>
</linearGradient>
</defs>
</svg>
