<svg width="120" height="30" viewBox="0 0 120 30" fill="none" xmlns="http://www.w3.org/2000/svg">
    <path
      d="M51.9424 23.6568C50.6601 23.9047 49.5156 23.926 48.509 23.7205C47.5024 23.5151 46.7854 23.0193 46.3579 22.233C46.1442 21.8293 46.0097 21.4184 45.9546 21.0005C45.9063 20.5826 45.8891 20.0336 45.9029 19.3536V18.7905V9.6473L48.7158 8V18.6205V18.9392C48.7089 19.3997 48.7158 19.7645 48.7365 20.0336C48.7641 20.2957 48.833 20.5118 48.9433 20.6818C49.1708 21.0501 49.5328 21.2661 50.0292 21.3299C50.5256 21.3936 51.1633 21.3689 51.9424 21.2555V23.6568ZM44 14.413V12.1817H51.9424V14.413H44Z"
      fill="white"
    />
    <path
      d="M59.4112 23.9755C58.2805 23.9755 57.2739 23.7241 56.3914 23.2212C55.5158 22.7182 54.8298 22.017 54.3334 21.1174C53.8439 20.2178 53.5991 19.2013 53.5991 18.068C53.5991 16.8355 53.837 15.7517 54.3127 14.8167C54.7953 13.8746 55.4641 13.1486 56.319 12.6386C57.1739 12.1215 58.1495 11.8629 59.2457 11.8629C60.404 11.8629 61.3968 12.1463 62.2241 12.7129C63.0514 13.2725 63.6581 14.073 64.0442 15.1142C64.4372 16.1484 64.5786 17.3526 64.4682 18.7267H61.6863V17.6642C61.6863 16.878 61.607 16.2476 61.4485 15.773C61.2899 15.2913 61.0417 14.9371 60.7039 14.7105C60.366 14.4838 59.9213 14.3705 59.3698 14.3705C58.7355 14.3705 58.2115 14.505 57.7978 14.7742C57.3842 15.0363 57.0774 15.4294 56.8774 15.9536C56.6775 16.4778 56.5775 17.133 56.5775 17.9192C56.5775 18.6347 56.6775 19.2438 56.8774 19.7468C57.0774 20.2426 57.3773 20.6216 57.7772 20.8836C58.177 21.1457 58.6666 21.2768 59.2457 21.2768C59.7903 21.2768 60.2592 21.1528 60.6522 20.9049C61.052 20.657 61.3554 20.2993 61.5622 19.8318L64.3752 20.6605C64.0994 21.3476 63.7099 21.9426 63.2066 22.4455C62.7033 22.9414 62.1241 23.3203 61.4692 23.5824C60.8142 23.8445 60.1282 23.9755 59.4112 23.9755ZM55.7088 18.7267V16.5805H63.1135V18.7267H55.7088Z"
      fill="white"
    />
    <path
      d="M79.9446 16.878C79.9446 16.3821 79.8653 15.9536 79.7067 15.5923C79.5482 15.2311 79.3206 14.9548 79.0242 14.7636C78.7346 14.5723 78.3864 14.4767 77.9797 14.4767C77.5936 14.4767 77.2523 14.5723 76.9558 14.7636C76.6663 14.9478 76.4388 15.2098 76.2733 15.5498C76.1147 15.8828 76.0354 16.2688 76.0354 16.708L74.8565 15.9005C74.8565 15.1284 75.0357 14.4413 75.3942 13.8392C75.7528 13.23 76.2388 12.7554 76.8524 12.4154C77.4729 12.0754 78.152 11.9054 78.8897 11.9054C79.724 11.9054 80.4307 12.079 81.0098 12.4261C81.5889 12.7732 82.0233 13.2655 82.3128 13.903C82.6093 14.5334 82.7575 15.2701 82.7575 16.113V23.6568H79.9446V16.878ZM66.4797 23.6568V12.1817H68.9617V15.9855H69.3133V23.6568H66.4797ZM73.2225 16.878C73.2225 16.3821 73.1432 15.9536 72.9846 15.5923C72.8261 15.2311 72.5985 14.9548 72.3021 14.7636C72.0125 14.5723 71.6643 14.4767 71.2576 14.4767C70.8715 14.4767 70.5302 14.5723 70.2337 14.7636C69.9442 14.9478 69.7167 15.2098 69.5512 15.5498C69.3926 15.8828 69.3133 16.2688 69.3133 16.708L68.1344 15.858C68.1344 15.1213 68.3136 14.4519 68.6721 13.8498C69.0375 13.2477 69.5305 12.7732 70.151 12.4261C70.7784 12.079 71.4713 11.9054 72.2297 11.9054C73.0708 11.9054 73.7775 12.0931 74.3497 12.4686C74.922 12.8369 75.346 13.3398 75.6218 13.9773C75.8975 14.6078 76.0354 15.3196 76.0354 16.113V23.6568H73.2225V16.878Z"
      fill="white"
    />
    <path
      d="M90.9278 23.9755C89.8523 23.9755 88.9353 23.717 88.1769 23.1999C87.4254 22.6757 86.8566 21.9568 86.4705 21.043C86.0913 20.1293 85.9017 19.088 85.9017 17.9192C85.9017 16.7576 86.0879 15.7198 86.4602 14.8061C86.8394 13.8923 87.3944 13.1734 88.1252 12.6492C88.8629 12.125 89.7488 11.8629 90.783 11.8629C91.831 11.8629 92.7548 12.1215 93.5546 12.6386C94.3612 13.1557 94.9818 13.8746 95.4161 14.7955C95.8573 15.7163 96.078 16.7576 96.078 17.9192C96.078 19.0597 95.8608 20.0903 95.4264 21.0111C94.999 21.932 94.3923 22.658 93.6063 23.1893C92.8272 23.7135 91.9344 23.9755 90.9278 23.9755ZM85.426 28V12.1817H87.908V20.0443H88.2596V26.3426L85.426 28ZM90.4728 21.4043C91.0588 21.4043 91.5483 21.252 91.9413 20.9474C92.3343 20.6428 92.6238 20.2284 92.81 19.7043C93.003 19.1801 93.0996 18.5851 93.0996 17.9192C93.0996 17.2605 92.9996 16.669 92.7996 16.1449C92.5997 15.6207 92.2963 15.2063 91.8896 14.9017C91.4828 14.59 90.9761 14.4342 90.3693 14.4342C89.7971 14.4342 89.3283 14.5794 88.9629 14.8698C88.5975 15.1532 88.3286 15.5534 88.1562 16.0705C87.9908 16.5876 87.908 17.2038 87.908 17.9192C87.908 18.6417 87.9942 19.2615 88.1666 19.7786C88.3389 20.2957 88.6147 20.6959 88.9939 20.9793C89.3731 21.2626 89.8661 21.4043 90.4728 21.4043Z"
      fill="white"
    />
    <path
      d="M102.511 23.9968C101.201 23.9968 100.222 23.6532 99.5739 22.9662C98.9328 22.2791 98.5329 21.553 98.3743 20.788C98.2226 20.023 98.1468 19.3005 98.1468 18.6205V12.1817H101.001V17.6005C101.001 18.1813 101.042 18.7267 101.125 19.2368C101.208 19.7468 101.425 20.2143 101.777 20.6393C102.135 21.0643 102.676 21.2768 103.4 21.2768C103.8 21.2768 104.173 21.1953 104.517 21.0324C104.869 20.8624 105.165 20.5366 105.407 20.0549C105.655 19.5661 105.779 18.8826 105.779 18.0042L107.392 18.7905C107.392 19.7255 107.21 20.5897 106.844 21.383C106.479 22.1693 105.927 22.8032 105.189 23.2849C104.459 23.7595 103.566 23.9968 102.511 23.9968ZM106.131 23.6568V19.853H105.779V12.1817H108.613V23.6568H106.131Z"
      fill="white"
    />
    <path
      d="M115.326 23.9755C114.395 23.9755 113.578 23.8303 112.875 23.5399C111.841 23.1026 111.046 22.3265 110.605 21.2874L113.216 19.768C113.292 20.1293 113.433 20.4409 113.64 20.703C113.847 20.958 114.109 21.1528 114.426 21.2874C114.75 21.422 115.119 21.4893 115.532 21.4893C115.87 21.4893 116.156 21.4432 116.391 21.3511C116.632 21.2591 116.815 21.128 116.939 20.958C117.063 20.788 117.125 20.5826 117.125 20.3418C117.125 20.1009 117.066 19.9168 116.949 19.7893C116.839 19.6547 116.604 19.5236 116.246 19.3961C115.894 19.2686 115.291 19.088 114.436 18.8542C113.512 18.6134 112.781 18.3442 112.244 18.0467C111.706 17.7492 111.316 17.3951 111.075 16.9842C110.834 16.5734 110.713 16.0705 110.713 15.4755C110.713 14.7459 110.896 14.1084 111.261 13.563C111.627 13.0175 112.144 12.5996 112.813 12.3092C113.481 12.0117 114.264 11.8629 115.16 11.8629C116.029 11.8629 116.801 12.0011 117.477 12.2773C118.453 12.6726 119.143 13.3359 119.592 14.2784L117.022 15.7942C116.987 15.5109 116.894 15.2665 116.742 15.0611C116.591 14.8557 116.387 14.6928 116.132 14.5723C115.877 14.4519 115.574 14.3775 115.222 14.3492C114.877 14.328 114.574 14.3563 114.312 14.4342C114.057 14.505 113.857 14.6184 113.712 14.7742C113.574 14.923 113.505 15.1071 113.505 15.3267C113.505 15.5321 113.574 15.7021 113.712 15.8367C113.85 15.9642 114.119 16.0988 114.519 16.2405C114.919 16.3751 115.574 16.5592 116.484 16.793C117.339 17.0196 118.021 17.2853 118.531 17.5899C119.042 17.8874 119.414 18.2451 119.648 18.663C119.883 19.0809 120 19.5909 120 20.193C120 20.9722 119.814 21.6486 119.442 22.2224C119.069 22.7891 118.531 23.2247 117.828 23.5293C117.125 23.8268 116.291 23.9755 115.326 23.9755Z"
      fill="white"
    />
    <path
      d="M21.5993 12.5551L28.8 16.7397L36 12.5551V15.29L28.8 19.4753L21.5993 15.29L7.19939 23.6598L0.000136957 19.4753V16.7397L12.0479 9.7369L7.19939 6.92014V4.18528L14.3994 0L36 12.5551L35.568 12.8059L14.3994 0.502321L7.63859 4.43825L14.8386 8.62281L14.6154 8.74676L0.432135 16.9912L7.19939 20.925L21.5993 12.5551Z"
      fill="white"
    />
    <path
      d="M7.19925 26.9027L21.5992 18.5329L28.7999 22.7174L35.9999 18.5329V21.6302L28.7999 25.8154L21.5992 21.6302L7.19925 30L0 25.8154V22.7174L7.19925 26.9027Z"
      fill="white"
    />
  </svg>