<svg width="1440" height="507" viewBox="0 0 1440 507" fill="none" xmlns="http://www.w3.org/2000/svg">
  <path fill-rule="evenodd" clip-rule="evenodd" d="M-494.857 971.114C-536.53 898.934 -543.348 811.143 -519.93 714.143C-496.512 617.14 -442.862 510.958 -363.646 402.05C-205.215 184.236 55.4198 -44.4017 380.716 -232.211C706.012 -420.021 1034.34 -531.419 1302.18 -559.717C1436.11 -573.866 1554.89 -567.237 1650.61 -539.016C1746.32 -510.797 1818.94 -460.997 1860.61 -388.817C1902.29 -316.637 1909.1 -228.845 1885.69 -131.845C1862.27 -34.8421 1808.62 71.34 1729.4 180.248C1570.97 398.062 1310.34 626.699 985.04 814.509C659.744 1002.32 331.42 1113.72 63.5726 1142.01C-70.3519 1156.16 -189.133 1149.53 -284.85 1121.31C-380.563 1093.09 -453.184 1043.29 -494.857 971.114ZM380.216 -233.077C54.8276 -45.2145 -205.924 183.51 -364.455 401.462C-443.719 510.437 -497.444 616.739 -520.902 713.908C-544.361 811.082 -537.559 899.153 -495.723 971.614C-453.887 1044.08 -381.017 1094 -285.133 1122.27C-189.252 1150.54 -70.33 1157.17 63.6777 1143.01C331.695 1114.69 660.152 1003.24 985.54 815.375C1310.93 627.512 1571.68 398.787 1730.21 180.836C1809.48 71.8606 1863.2 -34.4408 1886.66 -131.611C1910.12 -228.784 1903.31 -316.855 1861.48 -389.317C1819.64 -461.778 1746.77 -511.705 1650.89 -539.976C1555.01 -568.245 1436.09 -574.869 1302.08 -560.711C1034.06 -532.395 705.604 -420.94 380.216 -233.077ZM-490.171 703.678C-513.008 798.278 -506.357 883.897 -465.716 954.291C-425.074 1024.68 -354.251 1073.25 -260.906 1100.78C-167.558 1128.3 -51.7154 1134.77 78.8965 1120.97C340.119 1093.37 660.321 984.735 977.57 801.572C1294.82 618.408 1549 395.424 1703.51 182.996C1780.77 76.7818 1833.09 -26.7743 1855.93 -121.378C1878.76 -215.979 1872.11 -301.598 1831.47 -371.991C1790.83 -442.385 1720.01 -490.954 1626.66 -518.477C1533.31 -546.001 1417.47 -552.468 1286.86 -538.67C1025.64 -511.075 705.435 -402.436 388.186 -219.272C70.937 -36.1084 -183.249 186.875 -337.758 399.303C-415.013 505.518 -467.334 609.074 -490.171 703.678ZM-338.566 398.715C-183.958 186.149 70.3447 -36.9211 387.686 -220.138C705.027 -403.355 1025.36 -512.052 1286.75 -539.665C1417.45 -553.471 1533.43 -547.009 1626.95 -519.436C1720.46 -491.862 1791.53 -443.166 1832.34 -372.491C1873.14 -301.816 1879.78 -215.918 1856.9 -121.143C1834.02 -26.373 1781.63 77.3024 1704.32 183.585C1549.71 396.15 1295.41 619.221 978.07 802.438C660.729 985.654 340.393 1094.35 79.0016 1121.96C-51.6934 1135.77 -167.677 1129.31 -261.189 1101.74C-354.705 1074.16 -425.777 1025.47 -466.582 954.791C-507.386 884.115 -514.022 798.217 -491.143 703.443C-468.266 608.672 -415.871 504.997 -338.566 398.715ZM-436.604 937.482C-476.214 868.875 -482.697 785.428 -460.44 693.226C-438.182 601.021 -387.187 500.089 -311.891 396.566C-161.298 189.521 86.4461 -27.8123 395.656 -206.335C704.866 -384.857 1016.95 -490.743 1271.56 -517.638C1398.86 -531.085 1511.77 -524.782 1602.75 -497.955C1693.72 -471.129 1762.75 -423.792 1802.36 -355.185C1841.97 -286.578 1848.45 -203.131 1826.2 -110.929C1803.94 -18.7232 1752.94 82.2082 1677.65 185.731C1527.05 392.776 1279.31 610.11 970.101 788.632C660.891 967.155 348.802 1073.04 94.1996 1099.94C-33.1023 1113.38 -146.009 1107.08 -236.99 1080.25C-327.968 1053.43 -396.994 1006.09 -436.604 937.482ZM395.156 -207.201C85.8539 -28.6251 -162.007 188.796 -312.699 395.978C-388.045 499.569 -439.113 600.619 -461.412 692.992C-483.711 785.367 -477.243 869.093 -437.47 937.982C-397.697 1006.87 -328.422 1054.34 -237.273 1081.21C-146.127 1108.09 -33.0804 1114.39 94.3047 1100.93C349.076 1074.02 661.298 968.074 970.601 789.498C1279.9 610.923 1527.76 393.502 1678.46 186.319C1753.8 82.7288 1804.87 -18.322 1827.17 -110.694C1849.47 -203.07 1843 -286.796 1803.23 -355.685C1763.45 -424.573 1694.18 -472.038 1603.03 -498.914C1511.88 -525.789 1398.84 -532.088 1271.45 -518.632C1016.68 -491.72 704.458 -385.776 395.156 -207.201ZM-430.709 682.776C-452.387 772.58 -446.072 853.854 -407.493 920.675C-368.914 987.496 -301.685 1033.6 -213.074 1059.73C-124.46 1085.86 -14.4901 1092 109.502 1078.9C357.485 1052.71 661.459 949.575 962.63 775.694C1263.8 601.813 1505.1 390.129 1651.78 188.467C1725.12 87.6355 1774.79 -10.6712 1796.46 -100.478C1818.14 -190.282 1811.83 -271.556 1773.25 -338.377C1734.67 -405.198 1667.44 -451.304 1578.83 -477.432C1490.22 -503.561 1380.25 -509.701 1256.25 -496.604C1008.27 -470.41 704.297 -367.277 403.126 -193.396C101.955 -19.515 -139.348 192.168 -286.024 393.831C-359.363 494.662 -409.03 592.969 -430.709 682.776ZM-286.833 393.242C-140.057 191.443 101.362 -20.3278 402.626 -194.262C703.889 -368.197 1008 -471.386 1256.15 -497.599C1380.22 -510.705 1490.33 -504.569 1579.11 -478.391C1667.9 -452.212 1735.37 -405.98 1774.11 -338.877C1812.86 -271.775 1819.16 -190.221 1797.44 -100.244C1775.72 -10.2698 1725.98 88.1561 1652.59 189.055C1505.81 390.855 1264.39 602.626 963.13 776.56C661.867 950.495 357.759 1053.68 109.607 1079.9C-14.4681 1093 -124.578 1086.87 -213.357 1060.69C-302.14 1034.51 -369.618 988.277 -408.359 921.175C-447.101 854.073 -453.401 772.518 -431.681 682.541C-409.962 592.568 -360.221 494.142 -286.833 393.242ZM-378.382 903.868C-415.927 838.838 -422.071 759.74 -400.971 672.338C-379.87 584.933 -331.527 489.254 -260.145 391.117C-117.382 194.843 117.481 -11.1871 410.613 -180.427C703.745 -349.667 999.604 -450.049 1240.96 -475.549C1361.64 -488.298 1468.68 -482.325 1554.92 -456.897C1641.16 -431.469 1706.59 -386.599 1744.14 -321.569C1781.68 -256.539 1787.83 -177.44 1766.73 -90.0385C1745.63 -2.63342 1697.28 93.0453 1625.9 191.183C1483.14 387.456 1248.28 593.487 955.143 762.727C662.011 931.967 366.152 1032.35 124.792 1057.85C4.11194 1070.6 -102.92 1064.62 -189.165 1039.2C-275.407 1013.77 -340.837 968.898 -378.382 903.868ZM410.113 -181.293C116.888 -11.9999 -118.091 194.117 -260.954 390.529C-332.385 488.734 -380.802 584.532 -401.943 672.103C-423.085 759.678 -416.956 839.057 -379.248 904.368C-341.54 969.68 -275.861 1014.68 -189.448 1040.16C-103.038 1065.63 4.13385 1071.6 124.897 1058.84C366.426 1033.33 662.418 932.886 955.643 763.593C1248.87 594.299 1483.85 388.182 1626.71 191.771C1698.14 93.566 1746.56 -2.23218 1767.7 -89.8039C1788.84 -177.379 1782.71 -256.757 1745 -322.069C1707.3 -387.381 1641.62 -432.378 1555.2 -457.856C1468.79 -483.333 1361.62 -489.302 1240.86 -476.543C999.33 -451.026 703.337 -350.586 410.113 -181.293ZM-371.239 661.886C-391.76 746.89 -385.784 823.816 -349.27 887.06C-312.756 950.303 -249.124 993.942 -165.249 1018.67C-81.3701 1043.4 22.725 1049.21 140.096 1036.81C374.835 1012.01 662.58 914.386 947.673 749.787C1232.77 585.188 1461.19 384.808 1600.03 193.917C1669.46 98.4713 1716.47 5.41724 1737 -79.5893C1757.52 -164.593 1751.54 -241.519 1715.03 -304.763C1678.51 -368.006 1614.88 -411.645 1531.01 -436.375C1447.13 -461.106 1343.03 -466.916 1225.66 -454.516C990.921 -429.717 703.177 -332.089 418.083 -167.49C132.99 -2.89124 -95.4312 197.489 -234.278 388.38C-303.702 483.826 -350.718 576.88 -371.239 661.886ZM-235.087 387.792C-96.1399 196.763 132.398 -3.70398 417.583 -168.356C702.769 -333.008 990.647 -430.694 1225.56 -455.511C1343.01 -467.92 1447.25 -462.114 1531.29 -437.334C1615.33 -412.554 1679.22 -368.788 1715.89 -305.263C1752.57 -241.737 1758.53 -164.531 1737.97 -79.3547C1717.41 5.81848 1670.32 98.9919 1600.84 194.506C1461.9 385.534 1233.36 586.001 948.173 750.653C662.988 915.305 375.109 1012.99 140.201 1037.81C22.7469 1050.22 -81.4885 1044.41 -165.532 1019.63C-249.578 994.851 -313.46 951.085 -350.136 887.56C-386.813 824.034 -392.774 746.828 -372.211 661.652C-351.649 576.479 -304.56 483.305 -235.087 387.792ZM-320.159 870.252C-355.642 808.795 -361.45 734.041 -341.509 651.436C-321.566 568.828 -275.877 478.398 -208.412 385.644C-73.4811 200.136 148.498 5.40594 425.553 -154.552C702.607 -314.509 982.238 -409.384 1210.36 -433.483C1324.42 -445.533 1425.58 -439.886 1507.09 -415.852C1588.6 -391.82 1650.43 -349.412 1685.92 -287.955C1721.4 -226.498 1727.21 -151.744 1707.26 -69.1389C1687.32 13.4693 1641.63 103.899 1574.17 196.653C1439.24 382.161 1217.26 576.891 940.203 736.849C663.148 896.806 383.518 991.681 155.398 1015.78C41.3372 1027.83 -59.8215 1022.18 -141.334 998.15C-222.842 974.117 -284.677 931.71 -320.159 870.252ZM425.053 -155.418C147.906 4.5932 -74.1898 199.41 -209.22 385.056C-276.735 477.878 -322.498 568.427 -342.481 651.201C-362.464 733.98 -356.671 809.013 -321.026 870.752C-285.38 932.491 -223.296 975.026 -141.616 999.109C-59.94 1023.19 41.3591 1028.83 155.503 1016.77C383.792 992.657 663.556 897.726 940.703 737.715C1217.85 577.704 1439.95 382.887 1574.98 197.242C1642.49 104.419 1688.25 13.8707 1708.24 -68.9041C1728.22 -151.682 1722.43 -226.716 1686.78 -288.455C1651.14 -350.194 1589.05 -392.728 1507.37 -416.811C1425.7 -440.893 1324.4 -446.536 1210.25 -434.477C981.964 -410.36 702.199 -315.428 425.053 -155.418ZM-311.75 640.97C-331.11 721.176 -325.469 793.758 -291.018 853.428C-256.567 913.099 -196.53 954.276 -117.39 977.612C-38.2463 1000.95 59.9738 1006.43 170.722 994.735C392.216 971.339 663.726 879.223 932.733 723.911C1201.74 568.6 1417.27 379.524 1548.28 199.402C1613.78 109.341 1658.14 21.5371 1677.51 -58.6718C1696.87 -138.877 1691.22 -211.459 1656.77 -271.13C1622.32 -330.801 1562.29 -371.977 1483.15 -395.313C1404 -418.65 1305.78 -424.135 1195.03 -412.437C973.54 -389.041 702.03 -296.924 433.023 -141.612C164.015 13.699 -51.5148 202.775 -182.524 382.897C-248.028 472.958 -292.388 560.762 -311.75 640.97ZM-183.332 382.308C-52.2235 202.049 163.423 12.8862 432.523 -142.479C701.622 -297.843 973.265 -390.017 1194.93 -413.431C1305.76 -425.138 1404.12 -419.657 1483.43 -396.272C1562.74 -372.886 1623.03 -331.582 1657.64 -271.63C1692.25 -211.677 1697.88 -138.816 1678.48 -58.4371C1659.08 21.9384 1614.64 109.861 1549.09 199.99C1417.98 380.25 1202.33 569.412 933.233 724.777C664.133 880.142 392.49 972.316 170.827 995.73C59.9957 1007.44 -38.3647 1001.96 -117.673 978.571C-196.984 955.184 -257.271 913.881 -291.884 853.928C-326.498 793.976 -332.124 721.115 -312.722 640.736C-293.32 560.36 -248.886 472.438 -183.332 382.308ZM-261.907 836.622C-295.326 778.738 -300.799 708.328 -282.018 630.521C-263.236 552.71 -220.203 467.532 -156.656 380.162C-29.5639 205.423 179.524 21.9969 440.493 -128.673C701.462 -279.344 964.857 -368.706 1179.73 -391.402C1287.17 -402.75 1382.45 -397.429 1459.23 -374.789C1536 -352.15 1594.24 -312.206 1627.66 -254.321C1661.08 -196.437 1666.56 -126.027 1647.77 -48.2203C1628.99 29.5901 1585.96 114.769 1522.41 202.139C1395.32 376.878 1186.23 560.303 925.263 710.974C664.295 861.644 400.899 951.007 186.025 973.703C78.5869 985.051 -16.6968 979.729 -93.4736 957.09C-170.247 934.451 -228.487 894.506 -261.907 836.622ZM439.993 -129.539C178.932 21.1842 -30.2726 204.697 -157.465 379.573C-221.061 467.011 -264.168 552.309 -282.99 630.286C-301.813 708.267 -296.355 778.956 -262.773 837.122C-229.19 895.288 -170.701 935.36 -93.7565 958.049C-16.8152 980.737 78.6087 986.054 186.13 974.697C401.173 951.984 664.703 862.563 925.763 711.84C1186.82 561.116 1396.03 377.603 1523.22 202.727C1586.82 115.289 1629.92 29.9914 1648.75 -47.9858C1667.57 -125.966 1662.11 -196.655 1628.53 -254.821C1594.95 -312.987 1536.46 -353.059 1459.51 -375.748C1382.57 -398.436 1287.15 -403.753 1179.63 -392.397C964.583 -369.683 701.054 -280.263 439.993 -129.539ZM-252.28 620.081C-270.484 695.486 -265.181 763.719 -232.795 819.813C-200.409 875.907 -143.969 914.616 -69.5645 936.554C4.84351 958.492 97.1888 963.647 201.315 952.647C409.567 930.646 664.847 844.033 917.776 698.004C1170.71 551.975 1373.35 374.203 1496.53 204.852C1558.12 120.176 1599.83 37.6253 1618.04 -37.7832C1636.24 -113.188 1630.94 -181.422 1598.55 -237.516C1566.17 -293.609 1509.73 -332.319 1435.32 -354.256C1360.91 -376.195 1268.57 -381.35 1164.44 -370.349C956.19 -348.348 700.91 -261.735 447.98 -115.706C195.051 30.3227 -7.59796 208.095 -130.777 377.446C-192.367 462.122 -234.076 544.672 -252.28 620.081ZM-131.586 376.857C-8.3067 207.369 194.458 29.5099 447.48 -116.572C700.502 -262.655 955.916 -349.325 1164.34 -371.344C1268.55 -382.353 1361.03 -377.202 1435.6 -355.215C1510.18 -333.227 1566.87 -294.391 1599.42 -238.016C1631.97 -181.64 1637.25 -113.127 1619.01 -37.5485C1600.76 38.0266 1558.98 120.697 1497.34 205.44C1374.06 374.928 1171.3 552.788 918.276 698.87C665.254 844.952 409.841 931.622 201.42 953.641C97.2108 964.651 4.72516 959.5 -69.8473 937.513C-144.423 915.525 -201.113 876.689 -233.661 820.313C-266.21 763.938 -271.498 695.425 -253.252 619.846C-235.007 544.271 -193.225 461.601 -131.586 376.857ZM-203.684 803.006C-235.039 748.699 -240.174 682.638 -222.549 609.631C-204.924 536.621 -164.543 456.695 -104.911 374.71C14.3521 210.742 210.559 38.6202 455.45 -102.768C700.341 -244.155 947.506 -328.014 1149.14 -349.315C1249.95 -359.966 1339.36 -354.974 1411.4 -333.733C1483.44 -312.493 1538.09 -275.015 1569.44 -220.708C1600.79 -166.4 1605.93 -100.339 1588.31 -27.3323C1570.68 45.6777 1530.3 125.604 1470.67 207.588C1351.4 371.556 1155.2 543.678 910.306 685.066C665.415 826.454 418.249 910.313 216.618 931.614C115.801 942.264 26.3923 937.273 -45.649 916.031C-117.687 894.791 -172.33 857.314 -203.684 803.006ZM454.95 -103.634C209.967 37.8074 13.6434 210.017 -105.72 374.122C-165.401 456.174 -205.856 536.22 -223.522 609.396C-241.188 682.576 -236.068 748.917 -204.55 803.506C-173.033 858.095 -118.141 895.7 -45.9318 916.991C26.2738 938.28 115.823 943.268 216.723 932.608C418.523 911.29 665.823 827.373 910.806 685.932C1155.79 544.491 1352.11 372.282 1471.48 208.177C1531.16 126.125 1571.61 46.079 1589.28 -27.0977C1606.94 -100.278 1601.82 -166.618 1570.31 -221.208C1538.79 -275.797 1483.9 -313.402 1411.69 -334.692C1339.48 -355.982 1249.93 -360.969 1149.03 -350.31C947.232 -328.991 699.933 -245.075 454.95 -103.634ZM-192.818 599.181C-209.863 669.789 -204.896 733.678 -174.573 786.199C-144.25 838.72 -91.4037 874.967 -21.7327 895.509C47.9417 916.053 134.414 920.881 231.921 910.581C426.932 889.98 665.984 808.875 902.836 672.128C1139.69 535.382 1329.45 368.91 1444.8 210.325C1502.47 131.032 1541.53 53.7303 1558.57 -16.8813C1575.62 -87.4894 1570.65 -151.379 1540.33 -203.9C1510.01 -256.421 1457.16 -292.667 1387.49 -313.209C1317.81 -333.753 1231.34 -338.582 1133.84 -328.281C938.824 -307.68 699.772 -226.575 462.92 -89.8286C226.068 46.918 36.303 213.39 -79.0437 371.975C-136.717 451.268 -175.772 528.569 -192.818 599.181ZM-79.8524 371.387C35.5942 212.665 225.476 46.1052 462.42 -90.6946C699.364 -227.494 938.55 -308.657 1133.73 -329.276C1231.32 -339.585 1317.93 -334.761 1387.77 -314.169C1457.61 -293.575 1510.71 -257.202 1541.2 -204.4C1571.68 -151.597 1576.63 -87.4283 1559.55 -16.6466C1542.46 54.1317 1503.33 131.552 1445.61 210.913C1330.16 369.635 1140.28 536.195 903.336 672.994C666.392 809.794 427.206 890.957 232.026 911.575C134.436 921.885 47.8233 917.061 -22.0155 896.469C-91.8578 875.875 -144.953 839.502 -175.439 786.699C-205.925 733.897 -210.877 669.728 -193.79 598.946C-176.704 528.168 -137.575 450.747 -79.8524 371.387ZM-145.461 769.391C-174.753 718.656 -179.552 656.939 -163.086 588.729C-146.62 520.516 -108.892 445.839 -53.1765 369.238C58.2538 216.036 241.577 55.2138 470.39 -76.8915C699.204 -208.997 930.141 -287.348 1118.53 -307.249C1212.73 -317.199 1296.27 -312.534 1363.57 -292.688C1430.88 -272.843 1481.93 -237.828 1511.22 -187.093C1540.51 -136.359 1545.31 -74.6418 1528.84 -6.43207C1512.38 61.7811 1474.65 136.458 1418.93 213.059C1307.5 366.261 1124.18 527.083 895.367 659.189C666.553 791.294 435.616 869.646 247.224 889.546C153.027 899.497 69.4912 894.832 2.18359 874.985C-65.1206 855.14 -116.169 820.125 -145.461 769.391ZM469.89 -77.7575C240.985 54.4011 57.5452 215.31 -53.9852 368.65C-109.75 445.319 -147.552 520.115 -164.058 588.495C-180.566 656.878 -175.781 718.874 -146.327 769.891C-116.873 820.907 -65.5746 856.049 1.90076 875.944C69.3728 895.839 153.049 900.5 247.329 890.541C435.89 870.622 666.961 792.213 895.867 660.055C1124.77 527.896 1308.21 366.987 1419.74 213.648C1475.51 136.979 1513.31 62.1824 1529.82 -6.19745C1546.32 -74.5807 1541.54 -136.577 1512.08 -187.593C1482.63 -238.61 1431.33 -273.751 1363.86 -293.647C1296.38 -313.542 1212.71 -318.203 1118.43 -308.243C929.867 -288.325 698.796 -209.916 469.89 -77.7575ZM-133.321 578.276C-149.208 644.083 -144.578 703.623 -116.32 752.567C-88.0624 801.511 -38.8139 835.291 26.1199 854.436C91.0572 873.582 171.653 878.082 262.535 868.481C444.298 849.278 667.113 773.681 887.879 646.222C1108.65 518.762 1285.52 363.598 1393.03 215.788C1446.79 141.882 1483.19 69.8342 1499.08 4.0238C1514.96 -61.7831 1510.33 -121.323 1482.08 -170.268C1453.82 -219.212 1404.57 -252.991 1339.64 -272.136C1274.7 -291.283 1194.1 -295.782 1103.22 -286.181C921.458 -266.978 698.643 -191.381 477.877 -63.922C257.111 63.5373 80.2351 218.702 -27.2766 366.512C-81.0329 440.418 -117.434 512.466 -133.321 578.276ZM-28.0854 365.924C79.5264 217.976 256.519 62.7245 477.377 -64.788C698.235 -192.301 921.184 -267.955 1103.12 -287.175C1194.08 -296.786 1274.82 -292.29 1339.92 -273.096C1405.02 -253.9 1454.52 -219.993 1482.94 -170.768C1511.36 -121.542 1515.98 -61.7219 1500.05 4.25848C1484.12 70.2354 1447.65 142.402 1393.84 216.376C1286.23 364.324 1109.24 519.575 888.379 647.088C667.521 774.6 444.573 850.255 262.64 869.475C171.675 879.085 90.9388 874.59 25.8372 855.395C-39.2679 836.2 -88.7658 802.293 -117.186 753.067C-145.607 703.842 -150.222 644.022 -134.293 578.041C-118.366 512.064 -81.8908 439.897 -28.0854 365.924ZM-87.2095 735.759C-114.436 688.601 -118.898 631.233 -103.59 567.824C-88.2823 504.412 -53.2084 434.99 -1.41028 363.775C102.185 221.348 272.62 71.8332 485.347 -50.9849C698.074 -173.803 912.774 -246.646 1087.92 -265.149C1175.49 -274.4 1253.15 -270.064 1315.72 -251.615C1378.29 -233.167 1425.74 -200.619 1452.96 -153.461C1480.19 -106.304 1484.65 -48.9355 1469.35 14.473C1454.04 77.8849 1418.96 147.308 1367.17 218.522C1263.57 360.95 1093.14 510.464 880.409 633.282C667.681 756.1 452.981 828.944 277.837 847.446C190.265 856.698 112.606 852.361 50.0355 833.912C-12.5316 815.464 -59.983 782.917 -87.2095 735.759ZM484.847 -51.8509C272.027 71.0204 101.476 220.622 -2.21899 363.187C-54.0663 434.469 -89.2141 504.011 -104.562 567.59C-119.912 631.172 -115.465 688.819 -88.0755 736.259C-60.6863 783.698 -12.9856 816.373 49.7526 834.871C112.487 853.369 190.287 857.701 277.942 848.441C453.255 829.92 668.089 757.02 880.909 634.148C1093.73 511.277 1264.28 361.675 1367.97 219.11C1419.82 147.828 1454.97 78.2862 1470.32 14.7076C1485.67 -48.8743 1481.22 -106.522 1453.83 -153.961C1426.44 -201.401 1378.74 -234.076 1316 -252.574C1253.27 -271.071 1175.47 -275.403 1087.81 -266.143C912.5 -247.623 697.666 -174.722 484.847 -51.8509ZM-73.8587 557.374C-88.5866 618.384 -84.2929 673.58 -58.0977 718.952C-31.9026 764.323 13.7516 795.639 73.9518 813.39C134.155 831.141 208.878 835.314 293.141 826.413C461.664 808.611 668.251 738.521 872.939 620.344C1077.63 502.167 1241.62 358.303 1341.3 221.258C1391.14 152.736 1424.89 85.9372 1439.61 24.9238C1454.34 -36.0863 1450.05 -91.2823 1423.85 -136.654C1397.66 -182.025 1352 -213.341 1291.8 -231.092C1231.6 -248.843 1156.88 -253.016 1072.62 -244.115C904.092 -226.313 697.505 -156.223 492.817 -38.0462C288.129 80.1307 124.136 223.995 24.4571 361.04C-25.3829 429.562 -59.13 496.361 -73.8587 557.374ZM23.6484 360.451C123.427 223.269 287.537 79.3179 492.317 -38.9122C697.098 -157.142 903.818 -227.289 1072.51 -245.109C1156.86 -254.02 1231.72 -249.851 1292.09 -232.051C1352.46 -214.25 1398.36 -182.807 1424.72 -137.154C1451.08 -91.5006 1455.36 -36.0252 1440.59 25.1584C1425.82 86.3385 1392 153.256 1342.11 221.847C1242.33 359.029 1078.22 502.98 873.439 621.21C668.659 739.44 461.938 809.587 293.246 827.408C208.9 836.318 134.037 832.149 73.669 814.349C13.2976 796.548 -32.606 765.105 -58.9638 719.452C-85.3215 673.799 -89.6006 618.323 -74.8308 557.14C-60.0619 495.959 -26.2408 429.042 23.6484 360.451ZM-28.9861 702.145C-54.1498 658.56 -58.2756 605.536 -44.1272 546.924C-29.9778 488.309 2.44244 424.136 50.3243 358.304C146.087 226.643 303.638 88.4282 500.287 -25.1074C696.937 -138.643 895.41 -205.979 1057.31 -223.081C1138.27 -231.632 1210.05 -227.622 1267.89 -210.568C1325.72 -193.516 1369.58 -163.431 1394.74 -119.846C1419.91 -76.2609 1424.03 -23.2371 1409.88 35.3746C1395.73 93.9896 1363.31 158.163 1315.43 223.995C1219.67 355.656 1062.12 493.871 865.469 607.406C668.82 720.942 470.347 788.278 308.444 805.38C227.491 813.931 155.705 809.921 97.8682 792.867C40.0348 775.815 -3.82233 745.73 -28.9861 702.145ZM499.787 -25.9734C303.046 87.6154 145.378 225.917 49.5156 357.716C1.58459 423.615 -30.9097 487.908 -45.0992 546.69C-59.2896 605.475 -55.1785 658.778 -29.8521 702.645C-4.5257 746.511 39.5807 776.723 97.5853 793.827C155.587 810.929 227.513 814.935 308.549 806.375C470.621 789.255 669.228 721.861 865.969 608.272C1062.71 494.684 1220.38 356.382 1316.24 224.583C1364.17 158.684 1396.67 94.391 1410.86 35.6093C1425.05 -23.176 1420.94 -76.4792 1395.61 -120.346C1370.28 -164.212 1326.18 -194.424 1268.17 -211.528C1210.17 -228.63 1138.24 -232.636 1057.21 -224.076C895.136 -206.956 696.529 -139.562 499.787 -25.9734ZM-14.3965 536.474C-27.9656 592.688 -24.0078 643.539 0.124634 685.338C24.257 727.136 66.3169 755.99 121.784 772.345C177.254 788.702 246.103 792.548 323.746 784.347C479.03 767.945 669.388 703.363 857.999 594.469C1046.61 485.574 1197.72 353.01 1289.57 226.731C1335.49 163.591 1366.58 102.042 1380.15 45.8256C1393.72 -10.3876 1389.76 -61.2393 1365.63 -103.038C1341.5 -144.836 1299.44 -173.69 1243.97 -190.045C1188.5 -206.402 1119.65 -210.248 1042.01 -202.047C886.726 -185.645 696.368 -121.063 507.757 -12.1685C319.146 96.7258 168.037 229.29 76.1906 355.569C30.2669 418.709 -0.826599 480.258 -14.3965 536.474ZM75.3818 354.981C167.328 228.565 318.554 95.9131 507.257 -13.0345C695.96 -121.982 886.452 -186.622 1041.91 -203.042C1119.63 -211.252 1188.62 -207.409 1244.26 -191.004C1299.89 -174.598 1342.2 -145.618 1366.5 -103.538C1390.79 -61.4576 1394.74 -10.3265 1381.12 46.0602C1367.51 102.443 1336.35 164.112 1290.37 227.319C1198.43 353.735 1047.2 486.387 858.499 595.335C669.796 704.282 479.304 768.922 323.851 785.342C246.125 793.552 177.135 789.709 121.501 773.304C65.8629 756.898 23.5536 727.918 -0.741394 685.838C-25.0364 643.758 -28.9796 592.627 -15.3686 536.24C-1.75848 479.857 29.409 418.188 75.3818 354.981ZM29.236 668.529C6.13739 628.521 2.34985 579.846 15.3416 526.035C28.3341 472.22 58.1027 413.299 102.07 352.853C190.003 231.963 334.673 105.052 515.244 0.798767C695.816 -103.454 878.059 -165.286 1026.72 -180.994C1101.05 -188.847 1166.96 -185.167 1220.06 -169.512C1273.16 -153.857 1313.42 -126.239 1336.52 -86.2315C1359.62 -46.2236 1363.41 2.4519 1350.41 56.2632C1337.42 110.078 1307.65 168.999 1263.69 229.445C1175.75 350.335 1031.08 477.246 850.512 581.499C669.94 685.752 487.697 747.584 339.036 763.292C264.705 771.145 198.794 767.465 145.693 751.81C92.5951 736.155 52.3346 708.537 29.236 668.529ZM514.744 -0.0672607C334.08 104.239 189.294 231.237 101.261 352.265C57.2448 412.779 27.4023 471.819 14.3695 525.8C1.33588 579.785 5.10876 628.74 28.37 669.029C51.6312 709.319 92.1411 737.064 145.41 752.769C198.676 768.473 264.727 772.149 339.141 764.286C487.971 748.561 670.348 686.672 851.012 582.365C1031.68 478.059 1176.46 351.061 1264.5 230.033C1308.51 169.519 1338.35 110.479 1351.39 56.4979C1364.42 2.51306 1360.65 -46.4419 1337.39 -86.7315C1314.13 -127.021 1273.62 -154.766 1220.35 -170.471C1167.08 -186.175 1101.03 -189.851 1026.61 -181.988C877.785 -166.263 695.408 -104.374 514.744 -0.0672607ZM45.1003 515.569C32.6895 566.981 36.3099 613.484 58.3771 651.706C80.4444 689.927 118.907 716.314 169.636 731.272C220.369 746.231 283.342 749.749 354.36 742.247C496.396 727.243 670.517 668.169 843.042 568.562C1015.57 468.955 1153.79 347.698 1237.8 232.194C1279.8 174.441 1308.24 118.146 1320.66 66.7305C1333.07 15.3187 1329.45 -31.1843 1307.38 -69.4058C1285.31 -107.627 1246.85 -134.014 1196.12 -148.972C1145.39 -163.931 1082.41 -167.449 1011.4 -159.947C869.36 -144.943 695.239 -85.869 522.714 13.738C350.19 113.345 211.969 234.602 127.958 350.106C85.9515 407.859 57.5119 464.154 45.1003 515.569ZM127.149 349.518C211.261 233.876 349.597 112.532 522.214 12.8721C694.831 -86.7883 869.086 -145.92 1011.29 -160.941C1082.39 -168.452 1145.51 -164.939 1196.4 -149.931C1247.3 -134.923 1286.02 -108.409 1308.24 -69.9058C1330.47 -31.4026 1334.08 15.3798 1321.63 66.9652C1309.18 118.547 1280.66 174.962 1238.61 232.782C1154.5 348.424 1016.16 469.768 843.542 569.428C670.925 669.088 496.67 728.22 354.465 743.241C283.364 750.752 220.251 747.239 169.353 732.231C118.453 717.223 79.741 690.709 57.5112 652.206C35.2813 613.703 31.6755 566.92 44.1282 515.335C56.58 463.753 85.0936 407.338 127.149 349.518ZM87.4888 634.897C66.4529 598.461 63.0005 554.131 74.8318 505.117C86.6641 456.1 113.777 402.43 153.825 347.369C233.92 237.247 365.699 121.641 530.185 26.6747C694.67 -68.2912 860.678 -124.611 996.094 -138.915C1063.8 -146.067 1123.84 -142.712 1172.2 -128.451C1220.57 -114.191 1257.23 -89.0353 1278.27 -52.6002C1299.3 -16.165 1302.76 28.1658 1290.93 77.1792C1279.09 126.196 1251.98 179.867 1211.93 234.928C1131.84 345.049 1000.06 460.656 835.572 555.622C671.087 650.588 505.079 706.908 369.663 721.212C301.955 728.364 241.919 725.009 193.553 710.748C145.19 696.487 108.525 671.332 87.4888 634.897ZM529.685 25.8087C365.107 120.828 233.211 236.522 153.016 346.78C112.919 401.909 85.7322 455.699 73.8598 504.883C61.9865 554.07 65.4243 598.68 86.6227 635.397C107.821 672.113 144.736 697.396 193.27 711.707C241.8 726.017 301.977 729.367 369.768 722.206C505.353 707.885 671.494 651.507 836.072 556.488C1000.65 461.469 1132.55 345.775 1212.74 235.516C1252.84 180.387 1280.02 126.597 1291.9 77.4139C1303.77 28.2268 1300.33 -16.3834 1279.13 -53.1002C1257.94 -89.817 1221.02 -115.099 1172.49 -129.41C1123.96 -143.72 1063.78 -147.071 995.988 -139.91C860.404 -125.588 694.263 -69.2104 529.685 25.8087ZM104.563 494.667C93.3106 541.282 96.5951 583.441 116.6 618.09C136.604 652.739 171.472 676.662 217.468 690.225C263.467 703.789 320.567 706.981 384.966 700.179C513.761 686.575 671.655 633.009 828.102 542.684C984.549 452.359 1109.89 342.403 1186.06 237.664C1224.15 185.294 1249.94 134.249 1261.19 87.6302C1272.45 41.0151 1269.16 -1.14349 1249.16 -35.7922C1229.15 -70.4409 1194.28 -94.3646 1148.29 -107.928C1102.29 -121.492 1045.19 -124.683 980.79 -117.881C851.995 -104.278 694.101 -50.7111 537.654 39.6136C381.207 129.938 255.87 239.895 179.691 344.633C141.601 397.003 115.815 448.049 104.563 494.667ZM178.883 344.045C255.161 239.169 380.615 129.125 537.154 38.7476C693.693 -51.6303 851.721 -105.254 980.685 -118.876C1045.17 -125.687 1102.41 -122.499 1148.57 -108.887C1194.74 -95.2733 1229.86 -71.2226 1250.02 -36.2922C1270.19 -1.36182 1273.46 41.0762 1262.17 87.8647C1250.87 134.65 1225.01 185.815 1186.87 238.252C1110.59 343.128 985.141 453.172 828.602 543.55C672.063 633.928 514.035 687.552 385.071 701.173C320.589 707.984 263.349 704.797 217.185 691.184C171.018 677.571 135.901 653.52 115.734 618.59C95.5665 583.659 92.2966 541.221 103.59 494.433C114.883 447.648 140.743 396.483 178.883 344.045ZM145.711 601.283C126.74 568.425 123.626 528.443 134.3 484.23C144.976 440.013 169.437 391.596 205.57 341.92C277.836 242.57 396.733 138.266 545.141 52.583C693.549 -33.1004 843.327 -83.9166 965.5 -96.8256C1026.59 -103.28 1080.75 -100.255 1124.38 -87.3921C1168.01 -74.53 1201.07 -51.8417 1220.04 -18.9836C1239.02 13.8745 1242.13 53.857 1231.46 98.0701C1220.78 142.287 1196.32 190.704 1160.19 240.38C1087.92 339.73 969.023 444.033 820.615 529.717C672.206 615.4 522.429 666.216 400.256 679.125C339.169 685.58 285.007 682.555 241.377 669.692C197.75 656.83 164.681 634.142 145.711 601.283ZM544.641 51.717C396.141 137.454 277.127 241.844 204.761 341.332C168.579 391.075 144.044 439.612 133.328 483.995C122.612 528.382 125.711 568.644 144.845 601.783C163.978 634.923 197.296 657.739 241.094 670.651C284.889 683.563 339.191 686.583 400.361 680.12C522.703 667.193 672.614 616.319 821.115 530.583C969.615 444.846 1088.63 340.456 1160.99 240.968C1197.18 191.225 1221.71 142.688 1232.43 98.3047C1243.14 53.9182 1240.04 13.6562 1220.91 -19.4836C1201.78 -52.6235 1168.46 -75.4387 1124.66 -88.3513C1080.87 -101.263 1026.56 -104.283 965.395 -97.82C843.053 -84.8932 693.141 -34.0197 544.641 51.717ZM164.032 473.778C153.937 515.593 156.883 553.403 174.822 584.475C192.762 615.546 224.033 637.003 265.293 649.168C306.557 661.333 357.782 664.195 415.559 658.091C531.112 645.882 672.776 597.819 813.145 516.777C953.514 435.735 1065.97 337.081 1134.32 243.114C1168.49 196.13 1191.63 150.337 1201.72 108.519C1211.82 66.7042 1208.87 28.8939 1190.93 -2.17786C1172.99 -33.2496 1141.72 -54.7064 1100.46 -66.8709C1059.2 -79.0365 1007.97 -81.8983 950.198 -75.7938C834.645 -63.585 692.981 -15.5224 552.612 65.5198C412.242 146.562 299.787 245.215 231.437 339.183C197.262 386.167 174.128 431.96 164.032 473.778ZM230.629 338.594C299.078 244.49 411.65 145.749 552.112 64.6538C692.573 -16.4417 834.371 -64.5616 950.093 -76.7882C1007.95 -82.9015 1059.32 -80.0443 1100.75 -67.8302C1142.18 -55.6151 1173.7 -34.0313 1191.8 -2.67786C1209.9 28.6755 1212.83 66.7654 1202.7 108.753C1192.56 150.738 1169.35 196.651 1135.13 243.702C1066.68 337.807 954.106 436.547 813.645 517.643C673.184 598.738 531.386 646.858 415.664 659.085C357.804 665.198 306.438 662.341 265.011 650.127C223.579 637.912 192.058 616.328 173.956 584.975C155.854 553.621 152.923 515.531 163.06 473.543C173.196 431.558 196.404 385.646 230.629 338.594ZM203.933 567.667C187.025 538.382 184.247 502.744 193.763 463.328C203.279 423.908 225.087 380.74 257.304 336.447C321.737 247.863 427.751 154.859 560.081 78.4584C692.411 2.05737 825.961 -43.2515 934.894 -54.7601C989.361 -60.5145 1037.65 -57.816 1076.55 -46.3479C1115.44 -34.8807 1144.91 -14.6555 1161.82 14.6299C1178.73 43.9152 1181.51 79.5533 1171.99 118.97C1162.48 158.389 1140.67 201.558 1108.45 245.85C1044.02 334.435 938.005 427.438 805.675 503.839C673.344 580.24 539.794 625.549 430.861 637.057C376.394 642.812 328.106 640.113 289.209 628.645C250.316 617.178 220.841 596.953 203.933 567.667ZM559.581 77.5923C427.159 154.047 321.028 247.137 256.495 335.859C224.229 380.219 202.348 423.507 192.791 463.093C183.233 502.683 185.997 538.6 203.067 568.167C220.138 597.734 249.862 618.087 288.926 629.604C327.987 641.121 376.416 643.815 430.966 638.052C540.068 626.525 673.752 581.159 806.175 504.705C938.597 428.251 1044.73 335.16 1109.26 246.439C1141.53 202.078 1163.41 158.79 1172.96 119.204C1182.52 79.6145 1179.76 43.6969 1162.69 14.1299C1145.62 -15.4372 1115.89 -35.7894 1076.83 -47.3071C1037.77 -58.8237 989.339 -61.5177 934.789 -55.7546C825.687 -44.2281 692.004 1.13818 559.581 77.5923ZM223.522 452.862C214.587 489.879 217.198 523.345 233.075 550.844C248.951 578.343 276.627 597.337 313.152 608.107C349.681 618.879 395.031 621.415 446.185 616.013C548.493 605.207 673.922 562.656 798.205 490.901C922.488 419.146 1022.05 331.797 1082.56 248.599C1112.82 207 1133.3 166.457 1142.23 129.437C1151.17 92.4198 1148.56 58.9542 1132.68 31.4553C1116.8 3.95642 1089.13 -15.0377 1052.6 -25.8083C1016.07 -36.58 970.725 -39.1164 919.57 -33.7136C817.263 -22.9083 691.834 19.6426 567.551 91.3976C443.268 163.153 343.703 250.501 283.192 333.7C252.936 375.299 232.457 415.842 223.522 452.862ZM282.383 333.112C342.995 249.776 442.676 162.34 567.051 90.5316C691.427 18.7234 816.989 -23.8849 919.465 -34.7081C970.703 -40.1196 1016.19 -37.5877 1052.89 -26.7676C1089.58 -15.9464 1117.51 3.17474 1133.55 30.9553C1149.59 58.736 1152.18 92.4808 1143.21 129.671C1134.23 166.858 1113.68 207.52 1083.37 249.187C1022.76 332.523 923.08 419.959 798.705 491.767C674.329 563.576 548.767 606.184 446.29 617.007C395.053 622.419 349.562 619.887 312.87 609.066C276.173 598.245 248.248 579.124 232.208 551.344C216.169 523.563 213.573 489.818 222.55 452.628C231.525 415.441 252.078 374.779 282.383 333.112ZM262.186 534.035C247.341 508.323 244.898 477.029 253.253 442.411C261.609 407.789 280.761 369.871 309.059 330.963C365.654 253.148 458.777 171.449 575.021 104.335C691.266 37.2213 808.58 -2.57599 904.268 -12.6812C952.113 -17.7338 994.526 -15.3608 1028.69 -5.28656C1062.85 4.78668 1088.73 22.5493 1103.57 48.2618C1118.42 73.9743 1120.86 105.268 1112.5 139.886C1104.15 174.508 1085 212.426 1056.7 251.334C1000.1 329.149 906.979 410.848 790.735 477.962C674.491 545.076 557.176 584.873 461.488 594.978C413.644 600.031 371.23 597.658 337.069 587.583C302.911 577.51 277.031 559.748 262.186 534.035ZM574.521 103.469C458.185 170.636 364.946 252.422 308.25 330.375C279.903 369.351 260.678 407.388 252.281 442.176C243.884 476.968 246.312 508.541 261.32 534.535C276.328 560.529 302.456 578.419 336.786 588.543C371.112 598.665 413.666 601.034 461.593 595.973C557.45 585.85 674.899 545.995 791.235 478.828C907.572 411.661 1000.81 329.875 1057.51 251.922C1085.85 212.946 1105.08 174.909 1113.48 140.121C1121.87 105.329 1119.44 73.756 1104.44 47.7618C1089.43 21.7676 1063.3 3.87805 1028.97 -6.24573C994.645 -16.3684 952.091 -18.7371 904.163 -13.6757C808.306 -3.55255 690.858 36.302 574.521 103.469ZM282.991 431.973C275.213 464.189 277.486 493.307 291.297 517.229C305.109 541.151 329.189 557.678 360.978 567.05C392.771 576.423 432.246 578.63 476.779 573.924C565.844 564.514 675.042 527.467 783.248 464.995C891.453 402.522 978.136 326.477 1030.82 254.05C1057.16 217.836 1074.99 182.546 1082.77 150.326C1090.54 118.109 1088.27 88.992 1074.46 65.0701C1060.65 41.1481 1036.57 24.621 1004.78 15.2487C972.986 5.87555 933.511 3.66895 888.978 8.37427C799.913 17.7847 690.714 54.8316 582.509 117.304C474.303 179.777 387.62 255.822 334.938 328.249C308.597 364.463 290.77 399.753 282.991 431.973ZM334.129 327.661C386.911 255.096 473.711 178.964 582.009 116.438C690.306 53.9124 799.639 16.8081 888.873 7.37982C933.489 2.66571 973.104 4.86786 1005.06 14.2896C1037.02 23.7123 1061.35 40.3664 1075.33 64.5701C1089.3 88.7737 1091.56 118.17 1083.74 150.56C1075.92 182.947 1058.02 218.356 1031.63 254.638C978.845 327.202 892.046 403.335 783.748 465.861C675.45 528.386 566.118 565.491 476.884 574.919C432.268 579.633 392.652 577.431 360.695 568.009C328.735 558.586 304.405 541.932 290.431 517.729C276.457 493.525 274.199 464.128 282.019 431.738C289.838 399.352 307.739 363.943 334.129 327.661ZM320.408 500.421C307.628 478.286 305.523 451.341 312.722 421.523C319.922 391.701 336.421 359.036 360.805 325.513C409.57 258.469 489.812 188.074 589.978 130.243C690.145 72.4113 791.23 38.1181 873.675 29.4078C914.898 25.0526 951.436 27.0958 980.862 35.7717C1010.28 44.4465 1032.57 59.742 1045.35 81.8776C1058.13 104.013 1060.23 130.958 1053.03 160.776C1045.83 190.598 1029.33 223.263 1004.95 256.786C956.185 323.83 875.944 394.225 775.778 452.056C675.611 509.888 574.526 544.181 492.081 552.891C450.858 557.246 414.319 555.203 384.893 546.527C355.471 537.852 333.188 522.557 320.408 500.421ZM589.478 129.377C489.219 187.261 408.862 257.744 359.996 324.925C335.564 358.515 318.99 391.3 311.75 421.288C304.509 451.28 306.6 478.504 319.542 500.921C332.485 523.339 355.017 538.761 384.611 547.486C414.201 556.211 450.88 558.25 492.186 553.886C574.8 545.157 676.019 510.807 776.278 452.922C876.536 395.038 956.894 324.555 1005.76 257.374C1030.19 223.784 1046.77 190.999 1054.01 161.011C1061.25 131.019 1059.16 103.795 1046.21 81.3776C1033.27 58.9603 1010.74 43.5377 981.145 34.8124C951.555 26.0881 914.876 24.0493 873.569 28.4133C790.956 37.1415 689.737 71.4921 589.478 129.377ZM342.454 411.071C335.834 438.491 337.771 463.264 349.52 483.613C361.269 503.962 381.754 518.026 408.81 526.004C435.869 533.982 469.471 535.862 507.384 531.857C583.209 523.847 676.18 492.307 768.308 439.117C860.436 385.927 934.235 321.182 979.085 259.52C1001.51 228.689 1016.68 198.649 1023.3 171.226C1029.92 143.806 1027.99 119.033 1016.24 98.684C1004.49 78.3348 984.002 64.2709 956.947 56.2935C929.888 48.3151 896.285 46.4351 858.372 50.4402C782.547 58.4504 689.576 89.9899 597.449 143.18C505.321 196.37 431.521 261.115 386.672 322.777C364.247 353.608 349.074 383.648 342.454 411.071ZM385.863 322.188C430.812 260.39 504.729 195.557 596.949 142.314C689.169 89.0707 782.273 57.4738 858.267 49.4458C896.263 45.4318 930.006 47.3074 957.23 55.3343C984.457 63.3622 1005.19 77.5532 1017.1 98.184C1029.01 118.815 1030.94 143.867 1024.28 171.46C1017.61 199.05 1002.37 229.21 979.893 260.109C934.944 321.907 861.028 386.74 768.808 439.983C676.588 493.226 583.483 524.823 507.49 532.851C469.493 536.865 435.751 534.99 408.527 526.963C381.3 518.935 360.565 504.744 348.654 484.113C336.743 463.482 334.82 438.43 341.482 410.837C348.142 383.247 363.389 353.087 385.863 322.188ZM378.632 466.806C367.914 448.243 366.145 425.642 372.185 400.621C378.226 375.597 392.072 348.181 412.539 320.041C453.472 263.763 520.83 204.667 604.919 156.119C689.008 107.57 773.865 78.784 843.07 71.4741C877.673 67.819 908.339 69.5356 933.031 76.8166C957.72 84.0966 976.408 96.929 987.126 115.492C997.843 134.055 999.612 156.655 993.572 181.677C987.531 206.701 973.685 234.117 953.218 262.257C912.285 318.535 844.927 377.63 760.838 426.179C676.75 474.728 591.892 503.514 522.688 510.824C488.084 514.479 457.418 512.762 432.726 505.481C408.037 498.201 389.349 485.369 378.632 466.806ZM604.419 155.253C520.238 203.855 452.763 263.037 411.73 319.453C391.214 347.66 377.294 375.195 371.213 400.387C365.131 425.581 366.886 448.462 377.766 467.306C388.646 486.15 407.583 499.11 432.443 506.44C457.3 513.77 488.106 515.482 522.792 511.818C592.167 504.49 677.157 475.647 761.338 427.045C845.52 378.443 912.994 319.261 954.027 262.845C974.543 234.638 988.463 207.102 994.544 181.911C1000.63 156.716 998.872 133.836 987.992 114.992C977.112 96.1474 958.174 83.1879 933.314 75.8575C908.457 68.528 877.651 66.8157 842.965 70.4796C773.591 77.8074 688.6 106.651 604.419 155.253ZM401.95 390.166C396.489 412.784 398.089 433.209 407.772 449.981C417.456 466.753 434.344 478.35 456.662 484.93C478.984 491.511 506.71 493.063 537.999 489.756C600.575 483.144 677.309 457.113 753.35 413.21C829.392 369.308 890.303 315.87 927.317 264.983C945.825 239.539 958.344 214.753 963.806 192.131C969.267 169.513 967.667 149.088 957.984 132.316C948.3 115.544 931.412 103.946 909.094 97.3666C886.772 90.7858 859.046 89.2344 827.757 92.5405C765.181 99.1526 688.447 125.184 612.406 169.087C536.364 212.989 475.453 266.427 438.439 317.314C419.931 342.758 407.412 367.544 401.95 390.166ZM437.63 316.726C474.744 265.701 535.771 212.177 611.906 168.221C688.04 124.265 764.907 98.176 827.652 91.546C859.024 88.2311 886.89 89.7781 909.376 96.4075C931.866 103.038 949.004 114.762 958.85 131.816C968.696 148.87 970.281 169.574 964.778 192.366C959.276 215.154 946.683 240.06 928.126 265.571C891.012 316.596 829.984 370.12 753.85 414.076C677.716 458.032 600.849 484.121 538.104 490.751C506.732 494.066 478.866 492.519 456.379 485.89C433.89 479.259 416.752 467.535 406.906 450.481C397.06 433.427 395.475 412.723 400.978 389.931C406.48 367.143 419.073 342.237 437.63 316.726ZM436.883 433.174C428.231 418.188 426.8 399.936 431.681 379.716C436.564 359.493 447.756 337.331 464.305 314.578C497.404 269.074 551.872 221.287 619.875 182.025C687.878 142.764 756.498 119.486 812.455 113.574C840.434 110.618 865.223 112.006 885.178 117.89C905.13 123.772 920.22 134.138 928.872 149.124C937.524 164.11 938.956 182.362 934.075 202.582C929.192 222.805 918 244.967 901.45 267.719C868.352 313.223 813.883 361.011 745.88 400.272C677.877 439.534 609.258 462.812 553.301 468.723C525.322 471.679 500.533 470.291 480.578 464.408C460.626 458.526 445.535 448.16 436.883 433.174ZM619.375 181.159C551.28 220.474 496.695 268.349 463.497 313.99C446.898 336.81 435.632 359.091 430.709 379.481C425.786 399.875 427.203 418.406 436.017 433.674C444.832 448.941 460.172 459.434 480.295 465.367C500.415 471.299 525.344 472.683 553.406 469.718C609.532 463.788 678.285 440.453 746.38 401.138C814.476 361.824 869.061 313.949 902.259 268.308C918.858 245.487 930.124 223.206 935.047 202.816C939.97 182.423 938.553 163.891 929.738 148.624C920.924 133.356 905.583 122.863 885.461 116.931C865.341 110.999 840.412 109.615 812.35 112.58C756.224 118.51 687.471 141.844 619.375 181.159ZM461.413 369.266C457.111 387.088 458.374 403.167 465.995 416.367C473.616 429.566 486.909 438.701 504.494 443.885C522.083 449.072 543.935 450.296 568.604 447.69C617.941 442.479 678.447 421.955 738.411 387.334C798.375 352.714 846.402 310.576 875.584 270.456C890.175 250.395 900.041 230.857 904.344 213.032C908.646 195.211 907.382 179.131 899.761 165.932C892.141 152.732 878.847 143.598 861.262 138.413C843.674 133.227 821.821 132.002 797.152 134.608C747.816 139.82 687.31 160.344 627.346 194.964C567.382 229.584 519.354 271.722 490.173 311.843C475.581 331.904 465.716 351.441 461.413 369.266ZM489.364 311.255C518.646 270.996 566.789 228.771 626.846 194.098C686.902 159.424 747.542 138.843 797.047 133.614C821.799 130.999 843.792 132.219 861.545 137.454C879.301 142.689 892.844 151.951 900.628 165.432C908.411 178.913 909.66 195.272 905.316 213.267C900.973 231.259 891.033 250.915 876.393 271.044C847.111 311.302 798.967 353.527 738.911 388.2C678.854 422.874 618.215 443.455 568.709 448.685C543.957 451.3 521.964 450.079 504.212 444.845C486.455 439.609 472.912 430.348 465.129 416.867C457.346 403.386 456.097 387.026 460.441 369.031C464.784 351.04 474.723 331.383 489.364 311.255Z" fill="url(#paint0_radial_1518_11284)"/>
  <defs>
    <radialGradient id="paint0_radial_1518_11284" cx="0" cy="0" r="1" gradientUnits="userSpaceOnUse" gradientTransform="translate(682.878 291.149) rotate(40.3418) scale(629.263 891.568)">
      <stop stop-color="white"/>
      <stop offset="1" stop-color="white" stop-opacity="0"/>
    </radialGradient>
  </defs>
</svg>
