<svg width="289" height="426" viewBox="0 0 289 426" fill="none" xmlns="http://www.w3.org/2000/svg">
<path opacity="0.1" d="M69.5786 425.532C69.0698 425.251 68.4855 424.69 68.4855 423.642V363.533C68.4855 358.987 70.9543 354.741 74.9308 352.458L127.379 322.376C127.774 322.151 128.151 322.058 128.472 322.058C128.905 322.058 129.282 322.208 129.584 322.376C130.092 322.657 130.677 323.218 130.677 324.265V384.393C130.677 388.958 128.208 393.186 124.231 395.468L71.7836 425.532C70.879 426.056 70.0874 425.812 69.5786 425.532ZM53.5597 337.866C57.5362 340.148 62.4737 340.148 66.4502 337.866L118.898 307.802C119.803 307.279 119.991 306.493 119.991 305.913C119.991 305.333 119.803 304.547 118.898 304.023L66.4502 273.96C64.4714 272.818 62.2288 272.257 60.005 272.257C57.7812 272.257 55.5385 272.818 53.5597 273.96L1.09306 304.023C0.188458 304.547 0 305.333 0 305.913C0 306.493 0.188458 307.279 1.1119 307.802L53.5785 337.847L53.5597 337.866ZM150.936 289.263L203.384 259.199C207.36 256.917 209.829 252.67 209.829 248.124V187.996C209.829 186.949 209.226 186.388 208.736 186.107C208.453 185.939 208.076 185.789 207.624 185.789C207.285 185.789 206.927 185.882 206.531 186.107L154.083 216.189C150.107 218.472 147.638 222.718 147.638 227.265V287.373C147.638 288.421 148.241 288.982 148.731 289.263C149.24 289.543 150.031 289.787 150.936 289.263ZM145.602 137.691C143.624 136.55 141.381 135.988 139.157 135.988C136.933 135.988 134.691 136.55 132.712 137.691L80.2453 167.754C79.3407 168.278 79.1523 169.064 79.1523 169.644C79.1523 170.224 79.3407 171.01 80.2642 171.533L132.731 201.578C136.707 203.861 141.645 203.861 145.621 201.578L198.069 171.515C198.974 170.991 199.162 170.186 199.162 169.625C199.162 169.064 198.974 168.26 198.069 167.736L145.621 137.672L145.602 137.691ZM150.898 380.165L203.346 350.101C207.322 347.819 209.791 343.572 209.791 339.026V278.899C209.791 277.851 209.188 277.29 208.698 277.009C208.415 276.841 208.039 276.691 207.586 276.691C207.247 276.691 206.889 276.785 206.493 277.009L154.045 307.091C150.069 309.374 147.6 313.621 147.6 318.167V378.275C147.6 379.323 148.203 379.884 148.693 380.165C149.202 380.445 149.994 380.689 150.898 380.165ZM230.088 153.293L282.536 123.229C286.512 120.947 288.981 116.7 288.981 112.154V52.0082C288.981 50.9605 288.378 50.3993 287.888 50.1187C287.605 49.9503 287.228 49.8006 286.776 49.8006C286.437 49.8006 286.079 49.8942 285.683 50.1187L233.235 80.2011C229.259 82.4835 226.79 86.7302 226.79 91.2762V151.385C226.79 152.433 227.393 152.994 227.883 153.274C228.373 153.555 229.165 153.798 230.088 153.274V153.293ZM224.774 1.70243C222.795 0.561239 220.552 0 218.328 0C216.105 0 213.862 0.561239 211.883 1.70243L159.416 31.7661C158.512 32.29 158.323 33.0944 158.323 33.6557C158.323 34.2169 158.512 35.0213 159.416 35.5452L211.883 65.5902C215.86 67.8726 220.797 67.8726 224.774 65.5902L277.221 35.5265C278.126 35.0026 278.314 34.2169 278.314 33.6369C278.314 33.057 278.126 32.2713 277.221 31.7474L224.774 1.70243ZM230.069 244.177L282.517 214.113C286.493 211.83 288.962 207.584 288.962 203.038V142.91C288.962 141.863 288.359 141.301 287.869 141.021C287.587 140.852 287.21 140.703 286.757 140.703C286.418 140.703 286.06 140.778 285.664 141.021L233.216 171.103C229.24 173.386 226.771 177.632 226.771 182.178V242.287C226.771 243.335 227.374 243.896 227.864 244.177C228.354 244.457 229.165 244.7 230.069 244.177ZM230.107 334.798L282.555 304.734C286.531 302.452 289 298.205 289 293.659V233.532C289 232.484 288.397 231.923 287.907 231.642C287.624 231.474 287.247 231.324 286.814 231.324C286.475 231.324 286.098 231.399 285.721 231.642L233.273 261.725C229.297 264.007 226.828 268.254 226.828 272.8V332.908C226.828 333.956 227.431 334.517 227.921 334.798C228.411 335.079 229.202 335.322 230.126 334.798H230.107Z" fill="#EEECFF"/>
</svg>
