<svg width="1440" height="326" viewBox="0 0 1440 326" fill="none" xmlns="http://www.w3.org/2000/svg">
<mask id="mask0_1215_22241" style="mask-type:alpha" maskUnits="userSpaceOnUse" x="0" y="0" width="1440" height="326">
<path d="M0 0H1440V326H0V0Z" fill="#D9D9D9"/>
</mask>
<g mask="url(#mask0_1215_22241)">
<mask id="mask1_1215_22241" style="mask-type:alpha" maskUnits="userSpaceOnUse" x="0" y="-455" width="1440" height="781">
<path d="M0 -455H1440V326H0V-455Z" fill="#EFECFF"/>
</mask>
<g mask="url(#mask1_1215_22241)">
<path d="M-228.659 1122.99L719.7 459.037" stroke="white" stroke-opacity="0.5" stroke-width="1.13309" stroke-miterlimit="10"/>
<path d="M-282.976 1037.97L719.701 459.038" stroke="white" stroke-opacity="0.5" stroke-width="1.13309" stroke-miterlimit="10"/>
<path d="M-329.539 948.231L719.695 459.039" stroke="white" stroke-opacity="0.5" stroke-width="1.13309" stroke-miterlimit="10"/>
<path d="M-368.168 854.947L719.696 459.039" stroke="white" stroke-opacity="0.5" stroke-width="1.13309" stroke-miterlimit="10"/>
<path d="M-398.696 758.626L719.7 459.038" stroke="white" stroke-opacity="0.5" stroke-width="1.13309" stroke-miterlimit="10"/>
<path d="M-420.456 659.945L719.7 459.039" stroke="white" stroke-opacity="0.5" stroke-width="1.13309" stroke-miterlimit="10"/>
<path d="M-433.783 559.914L719.699 459.039" stroke="white" stroke-opacity="0.5" stroke-width="1.13309" stroke-miterlimit="10"/>
<path d="M-438 458.869L719.7 459.038" stroke="white" stroke-opacity="0.5" stroke-width="1.13309" stroke-miterlimit="10"/>
<path d="M-433.611 357.994L719.703 459.038" stroke="white" stroke-opacity="0.5" stroke-width="1.13309" stroke-miterlimit="10"/>
<path d="M-420.461 257.794L719.696 459.038" stroke="white" stroke-opacity="0.5" stroke-width="1.13309" stroke-miterlimit="10"/>
<path d="M-398.526 159.281L719.701 459.038" stroke="white" stroke-opacity="0.5" stroke-width="1.13309" stroke-miterlimit="10"/>
<path d="M-368.331 62.9606L719.701 459.038" stroke="white" stroke-opacity="0.5" stroke-width="1.13309" stroke-miterlimit="10"/>
<path d="M-329.705 -30.3227L719.697 459.039" stroke="white" stroke-opacity="0.5" stroke-width="1.13309" stroke-miterlimit="10"/>
<path d="M-282.98 -119.895L719.696 459.039" stroke="white" stroke-opacity="0.5" stroke-width="1.13309" stroke-miterlimit="10"/>
<path d="M-228.664 -205.251L719.696 459.04" stroke="white" stroke-opacity="0.5" stroke-width="1.13309" stroke-miterlimit="10"/>
<path d="M-167.262 -285.209L719.695 459.039" stroke="white" stroke-opacity="0.5" stroke-width="1.13309" stroke-miterlimit="10"/>
<path d="M-99.1073 -359.769L719.7 459.039" stroke="white" stroke-opacity="0.5" stroke-width="1.13309" stroke-miterlimit="10"/>
<path d="M1668.22 1122.82L719.865 458.869" stroke="white" stroke-opacity="0.5" stroke-width="1.13309" stroke-miterlimit="10"/>
<path d="M1722.55 1037.81L719.872 458.872" stroke="white" stroke-opacity="0.5" stroke-width="1.13309" stroke-miterlimit="10"/>
<path d="M1769.1 948.061L719.87 458.869" stroke="white" stroke-opacity="0.5" stroke-width="1.13309" stroke-miterlimit="10"/>
<path d="M1807.73 854.779L719.869 458.87" stroke="white" stroke-opacity="0.5" stroke-width="1.13309" stroke-miterlimit="10"/>
<path d="M1838.26 758.459L719.864 458.87" stroke="white" stroke-opacity="0.5" stroke-width="1.13309" stroke-miterlimit="10"/>
<path d="M1860.02 659.775L719.864 458.869" stroke="white" stroke-opacity="0.5" stroke-width="1.13309" stroke-miterlimit="10"/>
<path d="M1873.36 559.747L719.873 458.872" stroke="white" stroke-opacity="0.5" stroke-width="1.13309" stroke-miterlimit="10"/>
<path d="M1877.57 458.705L719.872 458.874" stroke="white" stroke-opacity="0.5" stroke-width="1.13309" stroke-miterlimit="10"/>
<path d="M1873.18 357.828L719.87 458.871" stroke="white" stroke-opacity="0.5" stroke-width="1.13309" stroke-miterlimit="10"/>
<path d="M1860.03 257.627L719.869 458.87" stroke="white" stroke-opacity="0.5" stroke-width="1.13309" stroke-miterlimit="10"/>
<path d="M1838.1 159.115L719.871 458.872" stroke="white" stroke-opacity="0.5" stroke-width="1.13309" stroke-miterlimit="10"/>
<path d="M1807.9 62.7938L719.871 458.871" stroke="white" stroke-opacity="0.5" stroke-width="1.13309" stroke-miterlimit="10"/>
<path d="M1769.27 -30.4902L719.867 458.871" stroke="white" stroke-opacity="0.5" stroke-width="1.13309" stroke-miterlimit="10"/>
<path d="M1722.55 -120.061L719.868 458.873" stroke="white" stroke-opacity="0.5" stroke-width="1.13309" stroke-miterlimit="10"/>
<path d="M1668.23 -205.417L719.869 458.873" stroke="white" stroke-opacity="0.5" stroke-width="1.13309" stroke-miterlimit="10"/>
<path d="M1606.83 -285.378L719.869 458.87" stroke="white" stroke-opacity="0.5" stroke-width="1.13309" stroke-miterlimit="10"/>
<path d="M1538.51 -359.77L719.872 458.869" stroke="white" stroke-opacity="0.5" stroke-width="1.13309" stroke-miterlimit="10"/>
<path d="M1464.12 -428.088L719.872 458.869" stroke="white" stroke-opacity="0.5" stroke-width="1.13309" stroke-miterlimit="10"/>
<path d="M1383.99 -489.659L719.872 458.869" stroke="white" stroke-opacity="0.5" stroke-width="1.13309" stroke-miterlimit="10"/>
<path d="M1298.81 -543.808L719.872 458.869" stroke="white" stroke-opacity="0.5" stroke-width="1.13309" stroke-miterlimit="10"/>
<path d="M1209.23 -590.534L719.872 458.869" stroke="white" stroke-opacity="0.5" stroke-width="1.13309" stroke-miterlimit="10"/>
<path d="M1115.95 -629.164L719.872 458.869" stroke="white" stroke-opacity="0.5" stroke-width="1.13309" stroke-miterlimit="10"/>
<path d="M1019.46 -659.527L719.872 458.869" stroke="white" stroke-opacity="0.5" stroke-width="1.13309" stroke-miterlimit="10"/>
<path d="M920.947 -681.456L719.872 458.869" stroke="white" stroke-opacity="0.5" stroke-width="1.13309" stroke-miterlimit="10"/>
<path d="M820.747 -694.614L719.872 458.869" stroke="white" stroke-opacity="0.5" stroke-width="1.13309" stroke-miterlimit="10"/>
<path d="M719.872 -699L719.872 458.869" stroke="white" stroke-opacity="0.5" stroke-width="1.13309" stroke-miterlimit="10"/>
<path d="M618.997 -694.614L719.872 458.869" stroke="white" stroke-opacity="0.5" stroke-width="1.13309" stroke-miterlimit="10"/>
<path d="M518.797 -681.457L719.872 458.869" stroke="white" stroke-opacity="0.5" stroke-width="1.13309" stroke-miterlimit="10"/>
<path d="M420.284 -659.527L719.872 458.869" stroke="white" stroke-opacity="0.5" stroke-width="1.13309" stroke-miterlimit="10"/>
<path d="M323.795 -629.164L719.872 458.869" stroke="white" stroke-opacity="0.5" stroke-width="1.13309" stroke-miterlimit="10"/>
<path d="M230.511 -590.534L719.872 458.869" stroke="white" stroke-opacity="0.5" stroke-width="1.13309" stroke-miterlimit="10"/>
<path d="M140.938 -543.808L719.872 458.869" stroke="white" stroke-opacity="0.5" stroke-width="1.13309" stroke-miterlimit="10"/>
<path d="M55.7508 -489.659L719.872 458.869" stroke="white" stroke-opacity="0.5" stroke-width="1.13309" stroke-miterlimit="10"/>
<path d="M-24.3756 -428.088L719.872 458.869" stroke="white" stroke-opacity="0.5" stroke-width="1.13309" stroke-miterlimit="10"/>
<path d="M-254.81 1084.02L719.696 459.037" stroke="white" stroke-opacity="0.5" stroke-width="1.13309" stroke-miterlimit="10"/>
<path d="M-305.584 996.813L719.697 459.039" stroke="white" stroke-opacity="0.5" stroke-width="1.13309" stroke-miterlimit="10"/>
<path d="M-348.593 905.215L719.703 459.038" stroke="white" stroke-opacity="0.5" stroke-width="1.13309" stroke-miterlimit="10"/>
<path d="M-383.518 810.583L719.696 459.039" stroke="white" stroke-opacity="0.5" stroke-width="1.13309" stroke-miterlimit="10"/>
<path d="M-409.832 713.081L719.697 459.038" stroke="white" stroke-opacity="0.5" stroke-width="1.13309" stroke-miterlimit="10"/>
<path d="M-427.707 613.556L719.703 459.038" stroke="white" stroke-opacity="0.5" stroke-width="1.13309" stroke-miterlimit="10"/>
<path d="M-436.819 513.019L719.7 459.04" stroke="white" stroke-opacity="0.5" stroke-width="1.13309" stroke-miterlimit="10"/>
<path d="M-437.16 412.144L719.697 459.039" stroke="white" stroke-opacity="0.5" stroke-width="1.13309" stroke-miterlimit="10"/>
<path d="M-428.724 311.268L719.698 459.038" stroke="white" stroke-opacity="0.5" stroke-width="1.13309" stroke-miterlimit="10"/>
<path d="M-411.348 211.912L719.7 459.039" stroke="white" stroke-opacity="0.5" stroke-width="1.13309" stroke-miterlimit="10"/>
<path d="M-385.536 114.241L719.702 459.038" stroke="white" stroke-opacity="0.5" stroke-width="1.13309" stroke-miterlimit="10"/>
<path d="M-351.298 19.2701L719.697 459.038" stroke="white" stroke-opacity="0.5" stroke-width="1.13309" stroke-miterlimit="10"/>
<path d="M-308.786 -72.495L719.7 459.039" stroke="white" stroke-opacity="0.5" stroke-width="1.13309" stroke-miterlimit="10"/>
<path d="M-258.69 -160.043L719.696 459.039" stroke="white" stroke-opacity="0.5" stroke-width="1.13309" stroke-miterlimit="10"/>
<path d="M-200.997 -243.038L719.697 459.038" stroke="white" stroke-opacity="0.5" stroke-width="1.13309" stroke-miterlimit="10"/>
<path d="M-136.22 -320.633L719.699 459.039" stroke="white" stroke-opacity="0.5" stroke-width="1.13309" stroke-miterlimit="10"/>
<path d="M-65.2012 -392.325L719.7 459.039" stroke="white" stroke-opacity="0.5" stroke-width="1.13309" stroke-miterlimit="10"/>
<path d="M1698.26 1077.95L719.873 458.871" stroke="white" stroke-opacity="0.5" stroke-width="1.13309" stroke-miterlimit="10"/>
<path d="M1748.52 990.235L719.871 458.87" stroke="white" stroke-opacity="0.5" stroke-width="1.13309" stroke-miterlimit="10"/>
<path d="M1790.86 898.638L719.866 458.871" stroke="white" stroke-opacity="0.5" stroke-width="1.13309" stroke-miterlimit="10"/>
<path d="M1825.11 803.669L719.87 458.872" stroke="white" stroke-opacity="0.5" stroke-width="1.13309" stroke-miterlimit="10"/>
<path d="M1850.92 705.996L719.871 458.869" stroke="white" stroke-opacity="0.5" stroke-width="1.13309" stroke-miterlimit="10"/>
<path d="M1868.13 606.475L719.874 458.873" stroke="white" stroke-opacity="0.5" stroke-width="1.13309" stroke-miterlimit="10"/>
<path d="M1876.73 505.765L719.872 458.87" stroke="white" stroke-opacity="0.5" stroke-width="1.13309" stroke-miterlimit="10"/>
<path d="M1876.22 404.723L719.873 458.872" stroke="white" stroke-opacity="0.5" stroke-width="1.13309" stroke-miterlimit="10"/>
<path d="M1867.28 304.016L719.868 458.871" stroke="white" stroke-opacity="0.5" stroke-width="1.13309" stroke-miterlimit="10"/>
<path d="M1849.4 204.827L719.871 458.87" stroke="white" stroke-opacity="0.5" stroke-width="1.13309" stroke-miterlimit="10"/>
<path d="M1822.92 107.158L719.87 458.871" stroke="white" stroke-opacity="0.5" stroke-width="1.13309" stroke-miterlimit="10"/>
<path d="M1788.17 12.3554L719.872 458.87" stroke="white" stroke-opacity="0.5" stroke-width="1.13309" stroke-miterlimit="10"/>
<path d="M1745.15 -78.9032L719.869 458.871" stroke="white" stroke-opacity="0.5" stroke-width="1.13309" stroke-miterlimit="10"/>
<path d="M1694.37 -166.455L719.867 458.869" stroke="white" stroke-opacity="0.5" stroke-width="1.13309" stroke-miterlimit="10"/>
<path d="M1636.17 -248.941L719.866 458.87" stroke="white" stroke-opacity="0.5" stroke-width="1.13309" stroke-miterlimit="10"/>
<path d="M1570.9 -326.028L719.872 458.873" stroke="white" stroke-opacity="0.5" stroke-width="1.13309" stroke-miterlimit="10"/>
<path d="M1499.38 -397.219L719.872 458.869" stroke="white" stroke-opacity="0.5" stroke-width="1.13309" stroke-miterlimit="10"/>
<path d="M1421.78 -461.995L719.872 458.869" stroke="white" stroke-opacity="0.5" stroke-width="1.13309" stroke-miterlimit="10"/>
<path d="M1338.79 -519.686L719.872 458.869" stroke="white" stroke-opacity="0.5" stroke-width="1.13309" stroke-miterlimit="10"/>
<path d="M1251.24 -569.786L719.872 458.869" stroke="white" stroke-opacity="0.5" stroke-width="1.13309" stroke-miterlimit="10"/>
<path d="M1159.47 -612.295L719.872 458.869" stroke="white" stroke-opacity="0.5" stroke-width="1.13309" stroke-miterlimit="10"/>
<path d="M1064.5 -646.538L719.872 458.869" stroke="white" stroke-opacity="0.5" stroke-width="1.13309" stroke-miterlimit="10"/>
<path d="M966.83 -672.348L719.872 458.869" stroke="white" stroke-opacity="0.5" stroke-width="1.13309" stroke-miterlimit="10"/>
<path d="M867.305 -689.553L719.872 458.869" stroke="white" stroke-opacity="0.5" stroke-width="1.13309" stroke-miterlimit="10"/>
<path d="M766.767 -697.988L719.872 458.869" stroke="white" stroke-opacity="0.5" stroke-width="1.13309" stroke-miterlimit="10"/>
<path d="M665.724 -697.819L719.872 458.869" stroke="white" stroke-opacity="0.5" stroke-width="1.13309" stroke-miterlimit="10"/>
<path d="M565.017 -688.541L719.872 458.869" stroke="white" stroke-opacity="0.5" stroke-width="1.13309" stroke-miterlimit="10"/>
<path d="M465.661 -670.829L719.872 458.869" stroke="white" stroke-opacity="0.5" stroke-width="1.13309" stroke-miterlimit="10"/>
<path d="M368.328 -644.345L719.872 458.869" stroke="white" stroke-opacity="0.5" stroke-width="1.13309" stroke-miterlimit="10"/>
<path d="M273.357 -609.427L719.872 458.869" stroke="white" stroke-opacity="0.5" stroke-width="1.13309" stroke-miterlimit="10"/>
<path d="M181.929 -566.581L719.872 458.869" stroke="white" stroke-opacity="0.5" stroke-width="1.13309" stroke-miterlimit="10"/>
<path d="M94.7175 -515.806L719.872 458.869" stroke="white" stroke-opacity="0.5" stroke-width="1.13309" stroke-miterlimit="10"/>
<path d="M12.0608 -457.44L719.872 458.869" stroke="white" stroke-opacity="0.5" stroke-width="1.13309" stroke-miterlimit="10"/>
</g>
</g>
</svg>
