<svg width="1437" height="507" viewBox="0 0 1437 507" fill="none" xmlns="http://www.w3.org/2000/svg">
  <path fill-rule="evenodd" clip-rule="evenodd" d="M1672.06 507C1672.06 -416.454 923.454 -1165.06 0 -1165.06V-1164.06C922.902 -1164.06 1671.06 -415.902 1671.06 507H1672.06ZM0 -1150.1C915.195 -1150.1 1657.1 -408.194 1657.1 507H1656.1C1656.1 -407.642 914.642 -1149.1 0 -1149.1V-1150.1ZM1642.14 507C1642.14 -399.926 906.926 -1135.14 0 -1135.14V-1134.14C906.374 -1134.14 1641.14 -399.374 1641.14 507H1642.14ZM0 -1120.18C898.666 -1120.18 1627.18 -391.666 1627.18 507H1626.18C1626.18 -391.114 898.114 -1119.18 0 -1119.18V-1120.18ZM1612.22 507C1612.22 -383.398 890.407 -1105.21 0 -1105.21V-1104.21C889.854 -1104.21 1611.22 -382.845 1611.22 507H1612.22ZM0 -1090.25C882.138 -1090.25 1597.25 -375.138 1597.25 507H1596.25C1596.25 -374.586 881.586 -1089.25 0 -1089.25V-1090.25ZM1582.29 507C1582.29 -366.879 873.878 -1075.29 0 -1075.29V-1074.29C873.326 -1074.29 1581.29 -366.326 1581.29 507H1582.29ZM0 -1060.33C865.61 -1060.33 1567.33 -358.61 1567.33 507H1566.33C1566.33 -358.058 865.058 -1059.33 0 -1059.33V-1060.33ZM1552.37 507C1552.37 -350.35 857.35 -1045.37 0 -1045.37V-1044.37C856.798 -1044.37 1551.37 -349.798 1551.37 507H1552.37ZM0 -1030.41C849.091 -1030.41 1537.41 -342.082 1537.41 507H1536.41C1536.41 -341.529 848.538 -1029.41 0 -1029.41V-1030.41ZM1522.45 507C1522.45 -333.822 840.822 -1015.45 0 -1015.45V-1014.45C840.27 -1014.45 1521.45 -333.27 1521.45 507H1522.45ZM0 -1000.48C832.562 -1000.48 1507.49 -325.562 1507.49 507H1506.49C1506.49 -325.01 832.01 -999.481 0 -999.481V-1000.48ZM1492.52 507C1492.52 -317.294 824.303 -985.521 0 -985.521V-984.521C823.75 -984.521 1491.52 -316.741 1491.52 507H1492.52ZM0 -970.56C816.034 -970.56 1477.56 -309.034 1477.56 507H1476.56C1476.56 -308.482 815.482 -969.56 0 -969.56V-970.56ZM1462.6 507C1462.6 -300.774 807.774 -955.6 0 -955.6V-954.6C807.222 -954.6 1461.6 -300.222 1461.6 507H1462.6ZM0 -940.64C799.506 -940.64 1447.64 -292.506 1447.64 507H1446.64C1446.64 -291.954 798.954 -939.64 0 -939.64V-940.64ZM1432.68 507C1432.68 -284.246 791.246 -925.679 0 -925.679V-924.679C790.694 -924.679 1431.68 -283.694 1431.68 507H1432.68ZM0 -910.719C782.987 -910.719 1417.72 -275.978 1417.72 507H1416.72C1416.72 -275.425 782.434 -909.719 0 -909.719V-910.719ZM1402.76 507C1402.76 -267.718 774.718 -895.75 0 -895.75V-894.75C774.166 -894.75 1401.76 -267.166 1401.76 507H1402.76ZM0 -880.79C766.458 -880.79 1387.79 -259.458 1387.79 507H1386.79C1386.79 -258.906 765.906 -879.79 0 -879.79V-880.79ZM1372.83 507C1372.83 -251.19 758.199 -865.829 0 -865.829V-864.829C757.646 -864.829 1371.83 -250.638 1371.83 507H1372.83ZM0 -850.869C749.93 -850.869 1357.87 -242.93 1357.87 507H1356.87C1356.87 -242.378 749.378 -849.869 0 -849.869V-850.869ZM1342.91 507C1342.91 -234.671 741.67 -835.909 0 -835.909V-834.909C741.118 -834.909 1341.91 -234.118 1341.91 507H1342.91ZM0 -820.948C733.402 -820.948 1327.95 -226.402 1327.95 507H1326.95C1326.95 -225.85 732.85 -819.948 0 -819.948V-820.948ZM1312.99 507C1312.99 -218.142 725.142 -805.988 0 -805.988V-804.988C724.59 -804.988 1311.99 -217.59 1311.99 507H1312.99ZM0 -791.019C716.883 -791.019 1298.03 -209.874 1298.03 507H1297.03C1297.03 -209.322 716.33 -790.019 0 -790.019V-791.019ZM1283.06 507C1283.06 -201.614 708.614 -776.059 0 -776.059V-775.059C708.062 -775.059 1282.06 -201.062 1282.06 507H1283.06ZM0 -761.098C700.354 -761.098 1268.1 -193.354 1268.1 507H1267.1C1267.1 -192.802 699.802 -760.098 0 -760.098V-761.098ZM1253.14 507C1253.14 -185.086 692.086 -746.138 0 -746.138V-745.138C691.534 -745.138 1252.14 -184.534 1252.14 507H1253.14ZM0 -731.178C683.826 -731.178 1238.18 -176.826 1238.18 507H1237.18C1237.18 -176.274 683.274 -730.178 0 -730.178V-731.178ZM1223.22 507C1223.22 -168.558 675.567 -716.217 0 -716.217V-715.217C675.014 -715.217 1222.22 -168.005 1222.22 507H1223.22ZM0 -701.257C667.298 -701.257 1208.26 -160.298 1208.26 507H1207.26C1207.26 -159.746 666.746 -700.257 0 -700.257V-701.257ZM1193.3 507C1193.3 -152.038 659.038 -686.288 0 -686.288V-685.288C658.486 -685.288 1192.3 -151.486 1192.3 507H1193.3ZM0 -671.328C650.779 -671.328 1178.33 -143.77 1178.33 507H1177.33C1177.33 -143.218 650.226 -670.328 0 -670.328V-671.328ZM1163.37 507C1163.37 -135.51 642.51 -656.367 0 -656.367V-655.367C641.958 -655.367 1162.37 -134.958 1162.37 507H1163.37ZM0 -641.407C634.25 -641.407 1148.41 -127.25 1148.41 507H1147.41C1147.41 -126.698 633.698 -640.407 0 -640.407V-641.407ZM1133.45 507C1133.45 -118.982 625.982 -626.447 0 -626.447V-625.447C625.43 -625.447 1132.45 -118.43 1132.45 507H1133.45ZM0 -611.486C617.722 -611.486 1118.49 -110.722 1118.49 507H1117.49C1117.49 -110.17 617.17 -610.486 0 -610.486V-611.486ZM1103.53 507C1103.53 -102.454 609.463 -596.526 0 -596.526V-595.526C608.91 -595.526 1102.53 -101.901 1102.53 507H1103.53ZM0 -581.557C601.194 -581.557 1088.57 -94.1941 1088.57 507H1087.57C1087.57 -93.6418 600.642 -580.557 0 -580.557V-581.557ZM1073.6 507C1073.6 -85.9346 592.934 -566.597 0 -566.597V-565.597C592.382 -565.597 1072.6 -85.3822 1072.6 507H1073.6ZM0 -551.636C584.675 -551.636 1058.64 -77.6658 1058.64 507H1057.64C1057.64 -77.1135 584.122 -550.636 0 -550.636V-551.636ZM1043.68 507C1043.68 -69.4064 576.406 -536.676 0 -536.676V-535.676C575.854 -535.676 1042.68 -68.854 1042.68 507H1043.68ZM0 -521.716C568.146 -521.716 1028.72 -61.1465 1028.72 507H1027.72C1027.72 -60.5942 567.594 -520.716 0 -520.716V-521.716ZM1013.76 507C1013.76 -52.8781 559.878 -506.755 0 -506.755V-505.755C559.326 -505.755 1012.76 -52.3258 1012.76 507H1013.76ZM0 -491.795C551.618 -491.795 998.795 -44.6183 998.795 507H997.795C997.795 -44.066 551.066 -490.795 0 -490.795V-491.795ZM983.835 507C983.835 -36.3499 543.359 -476.826 0 -476.826V-475.826C542.806 -475.826 982.835 -35.7976 982.835 507H983.835ZM0 -461.865C535.09 -461.865 968.866 -28.0901 968.866 507H967.866C967.866 -27.5377 534.538 -460.865 0 -460.865V-461.865ZM953.905 507C953.905 -19.8304 526.83 -446.905 0 -446.905V-445.905C526.278 -445.905 952.905 -19.2782 952.905 507H953.905ZM0 -431.945C518.562 -431.945 938.945 -11.5618 938.945 507H937.945C937.945 -11.0095 518.01 -430.945 0 -430.945V-431.945ZM923.985 507C923.985 -3.30225 510.302 -416.985 0 -416.985V-415.985C509.75 -415.985 922.985 -2.74988 922.985 507H923.985ZM0 -402.024C502.043 -402.024 909.024 4.96606 909.024 507H908.024C908.024 5.51831 501.49 -401.024 0 -401.024V-402.024ZM894.064 507C894.064 13.226 493.774 -387.064 0 -387.064V-386.064C493.222 -386.064 893.064 13.7782 893.064 507H894.064ZM0 -372.095C485.514 -372.095 879.104 21.4856 879.104 507H878.104C878.104 22.0378 484.962 -371.095 0 -371.095V-372.095ZM864.135 507C864.135 29.7542 477.255 -357.135 0 -357.135V-356.135C476.702 -356.135 863.135 30.3064 863.135 507H864.135ZM0 -342.174C468.986 -342.174 849.174 38.0138 849.174 507H848.174C848.174 38.566 468.434 -341.174 0 -341.174V-342.174ZM834.214 507C834.214 46.2736 460.727 -327.214 0 -327.214V-326.214C460.174 -326.214 833.214 46.8258 833.214 507H834.214ZM0 -312.254C452.458 -312.254 819.254 54.5419 819.254 507H818.254C818.254 55.0942 451.906 -311.254 0 -311.254V-312.254ZM804.293 507C804.293 62.8018 444.198 -297.293 0 -297.293V-296.293C443.646 -296.293 803.293 63.354 803.293 507H804.293ZM0 -282.333C435.939 -282.333 789.333 71.0701 789.333 507H788.333C788.333 71.6224 435.386 -281.333 0 -281.333V-282.333ZM774.373 507C774.373 79.33 427.67 -267.364 0 -267.364V-266.364C427.118 -266.364 773.373 79.8822 773.373 507H774.373ZM0 -252.404C419.41 -252.404 759.404 87.5896 759.404 507H758.404C758.404 88.1418 418.858 -251.404 0 -251.404V-252.404ZM744.443 507C744.443 95.8582 411.142 -237.443 0 -237.443V-236.443C410.59 -236.443 743.443 96.4104 743.443 507H744.443ZM0 -222.483C402.882 -222.483 729.483 104.118 729.483 507H728.483C728.483 104.67 402.33 -221.483 0 -221.483V-222.483ZM714.523 507C714.523 112.377 394.623 -207.523 0 -207.523V-206.523C394.07 -206.523 713.523 112.93 713.523 507H714.523ZM0 -192.562C386.354 -192.562 699.562 120.646 699.562 507H698.562C698.562 121.198 385.802 -191.562 0 -191.562V-192.562ZM684.602 507C684.602 128.906 378.094 -177.602 0 -177.602V-176.602C377.542 -176.602 683.602 129.458 683.602 507H684.602ZM0 -162.633C369.835 -162.633 669.642 137.174 669.642 507H668.642C668.642 137.726 369.282 -161.633 0 -161.633V-162.633ZM654.672 507C654.672 145.434 361.566 -147.672 0 -147.672V-146.672C361.014 -146.672 653.672 145.986 653.672 507H654.672ZM0 -132.712C353.306 -132.712 639.712 153.694 639.712 507H638.712C638.712 154.246 352.754 -131.712 0 -131.712V-132.712ZM624.752 507C624.752 161.962 345.038 -117.752 0 -117.752V-116.752C344.486 -116.752 623.752 162.514 623.752 507H624.752ZM0 -102.792C336.778 -102.792 609.792 170.222 609.792 507H608.792C608.792 170.774 336.226 -101.792 0 -101.792V-102.792ZM594.831 507C594.831 178.49 328.519 -87.8313 0 -87.8313V-86.8313C327.966 -86.8313 593.831 179.042 593.831 507H594.831ZM0 -72.8711C320.25 -72.8711 579.871 186.75 579.871 507H578.871C578.871 187.302 319.698 -71.8711 0 -71.8711V-72.8711ZM564.911 507C564.911 195.01 311.99 -57.9019 0 -57.9019V-56.9019C311.438 -56.9019 563.911 195.562 563.911 507H564.911ZM0 -42.9414C303.731 -42.9414 549.941 203.278 549.941 507H548.941C548.941 203.83 303.178 -41.9414 0 -41.9414V-42.9414ZM534.981 507C534.981 211.538 295.462 -27.9812 0 -27.9812V-26.9812C294.91 -26.9812 533.981 212.09 533.981 507H534.981ZM0 -13.021C287.203 -13.021 520.021 219.797 520.021 507H519.021C519.021 220.35 286.65 -12.021 0 -12.021V-13.021ZM505.061 507C505.061 228.066 278.934 1.93945 0 1.93945V2.93945C278.382 2.93945 504.061 228.618 504.061 507H505.061ZM0 16.8999C270.674 16.8999 490.1 236.326 490.1 507H489.1C489.1 236.878 270.122 17.8999 0 17.8999V16.8999ZM475.14 507C475.14 244.594 262.415 31.8601 0 31.8601V32.8601C261.862 32.8601 474.14 245.146 474.14 507H475.14ZM0 46.8291C254.146 46.8291 460.18 252.854 460.18 507H459.18C459.18 253.406 253.594 47.8291 0 47.8291V46.8291ZM445.21 507C445.21 261.114 245.886 61.7896 0 61.7896V62.7896C245.334 62.7896 444.21 261.666 444.21 507H445.21ZM0 76.75C237.618 76.75 430.25 269.382 430.25 507H429.25C429.25 269.934 237.066 77.75 0 77.75V76.75ZM415.29 507C415.29 277.642 229.358 91.71 0 91.71V92.71C228.806 92.71 414.29 278.194 414.29 507H415.29ZM0 106.67C221.099 106.67 400.33 285.901 400.33 507H399.33C399.33 286.454 220.546 107.67 0 107.67V106.67ZM385.369 507C385.369 294.17 212.83 121.631 0 121.631V122.631C212.278 122.631 384.369 294.722 384.369 507H385.369ZM0 136.591C204.57 136.591 370.409 302.43 370.409 507H369.409C369.409 302.982 204.018 137.591 0 137.591V136.591ZM355.449 507C355.449 310.698 196.311 151.56 0 151.56V152.56C195.758 152.56 354.449 311.25 354.449 507H355.449ZM0 166.521C188.042 166.521 340.479 318.958 340.479 507H339.479C339.479 319.51 187.49 167.521 0 167.521V166.521ZM325.519 507C325.519 327.218 179.782 181.481 0 181.481V182.481C179.23 182.481 324.519 327.77 324.519 507H325.519ZM0 196.441C171.514 196.441 310.559 335.486 310.559 507H309.559C309.559 336.038 170.962 197.441 0 197.441V196.441ZM295.599 507C295.599 343.746 163.254 211.401 0 211.401V212.401C162.702 212.401 294.599 344.298 294.599 507H295.599ZM0 226.362C154.995 226.362 280.638 352.014 280.638 507H279.638C279.638 352.567 154.442 227.362 0 227.362V226.362ZM265.678 507C265.678 360.274 146.726 241.322 0 241.322V242.322C146.174 242.322 264.678 360.826 264.678 507H265.678ZM0 256.291C138.466 256.291 250.718 368.534 250.718 507H249.718C249.718 369.086 137.914 257.291 0 257.291V256.291ZM235.748 507C235.748 376.802 130.207 271.251 0 271.251V272.251C129.654 272.251 234.748 377.354 234.748 507H235.748ZM0 286.212C121.938 286.212 220.788 385.062 220.788 507H219.788C219.788 385.614 121.386 287.212 0 287.212V286.212ZM205.828 507C205.828 393.321 113.679 301.172 0 301.172V302.172C113.126 302.172 204.828 393.874 204.828 507H205.828ZM0 316.133C105.41 316.133 190.867 401.59 190.867 507H189.867C189.867 402.142 104.858 317.133 0 317.133V316.133ZM175.907 507C175.907 409.85 97.1504 331.093 0 331.093V332.093C96.5981 332.093 174.907 410.402 174.907 507H175.907ZM160.947 507C160.947 418.118 88.8907 346.053 0 346.053V347.053C88.3383 347.053 159.947 418.67 159.947 507H160.947Z" fill="url(#paint0_radial_1660_13697)"/>
  <defs>
    <radialGradient id="paint0_radial_1660_13697" cx="0" cy="0" r="1" gradientUnits="userSpaceOnUse" gradientTransform="translate(1.93715e-06 507) rotate(-13.2228) scale(1110.44 1110.44)">
      <stop stop-color="#FAFAFF"/>
      <stop offset="1" stop-color="#FAFAFF" stop-opacity="0"/>
    </radialGradient>
  </defs>
</svg>
