<svg width="64" height="64" viewBox="0 0 64 64" fill="none" xmlns="http://www.w3.org/2000/svg">
  <g clip-path="url(#clip0_207_22)">
    <rect width="64" height="64" fill="white"/>
    <rect width="320" height="320" fill="url(#paint0_linear_207_22)"/>
    <path d="M53.0625 10.4072C53.0625 9.06005 52.3385 7.80565 51.172 7.13208L43.8506 2.90517C42.684 2.2316 41.236 2.2316 40.0694 2.90517L32.748 7.13208C31.5815 7.80565 30.8575 9.06005 30.8575 10.4072V18.861C30.8575 19.2076 30.9112 19.5443 31.0023 19.8697C30.6687 19.9543 30.345 20.0829 30.0407 20.2586L22.7193 24.4855C21.5527 25.1591 20.8287 26.4135 20.8287 27.7606V36.2144C20.8287 36.5707 20.8808 36.9222 20.9768 37.2557C20.6433 37.3403 20.3179 37.4688 20.012 37.6445L12.6906 41.8714C11.524 42.545 10.8 43.7994 10.8 45.1466V53.6004C10.8 54.9459 11.524 56.2019 12.6906 56.8755L20.012 61.1024C20.5944 61.4392 21.2485 61.6068 21.9025 61.6068C22.5566 61.6068 23.2106 61.4375 23.7931 61.1024L31.1145 56.8755C31.588 56.6022 31.9866 56.2328 32.2957 55.8C32.8261 55.7496 33.3467 55.5885 33.8218 55.3152L41.1433 51.0883C41.6183 50.8133 42.0186 50.4424 42.3277 50.0096C42.8565 49.9575 43.3771 49.7981 43.8506 49.5248L51.172 45.2979C52.3385 44.6243 53.0625 43.3699 53.0625 42.0227V33.5689C53.0625 33.0206 52.9405 32.4886 52.7193 32.0038C52.9405 31.5189 53.0625 30.9869 53.0625 30.4386V21.9848C53.0625 21.4381 52.9405 20.9077 52.7209 20.4229C52.9405 19.9397 53.0625 19.4077 53.0625 18.861V10.4072V10.4072Z" fill="#1E1E1E"/>
    <path d="M23.1195 58.8474C23.0561 58.81 22.9796 58.7384 22.9796 58.605V50.9337C22.9796 50.3529 23.292 49.8111 23.7947 49.5199L30.4393 45.6802C30.4898 45.6509 30.5353 45.6412 30.5792 45.6412C30.6346 45.6412 30.6834 45.6591 30.7192 45.6802C30.7826 45.7176 30.8591 45.7892 30.8591 45.9226V53.5955C30.8591 54.1763 30.5467 54.7181 30.0423 55.0093L23.3977 58.8458C23.2822 58.9125 23.183 58.8832 23.1179 58.8458L23.1195 58.8474ZM21.0923 47.6619C21.595 47.9515 22.2214 47.9515 22.7242 47.6619L29.3671 43.8271C29.4827 43.7604 29.5071 43.6595 29.5071 43.5847C29.5071 43.5098 29.4827 43.4089 29.3671 43.3422L22.7225 39.5058C22.4704 39.361 22.1889 39.2878 21.9058 39.2878C21.6227 39.2878 21.3412 39.361 21.089 39.5058L14.4444 43.3422C14.3289 43.4089 14.3045 43.5098 14.3045 43.5847C14.3045 43.6595 14.3289 43.7604 14.4444 43.8271L21.0907 47.6619H21.0923ZM33.4265 41.4598L40.0711 37.6234C40.5738 37.3322 40.8878 36.7904 40.8878 36.2095V28.5367C40.8878 28.4033 40.8113 28.3317 40.7479 28.2943C40.7121 28.2731 40.6633 28.2552 40.608 28.2552C40.5657 28.2552 40.5185 28.2666 40.468 28.2943L33.8234 32.1339C33.3207 32.4252 33.0083 32.967 33.0083 33.5478V41.219C33.0083 41.3524 33.0848 41.424 33.1482 41.4614C33.2117 41.4989 33.3126 41.5282 33.4281 41.4614L33.4265 41.4598ZM32.7496 22.1182C32.4975 21.9734 32.216 21.9002 31.9329 21.9002C31.6498 21.9002 31.3683 21.9734 31.1161 22.1182L24.4715 25.9547C24.356 26.0214 24.3316 26.1222 24.3316 26.1971C24.3316 26.2719 24.356 26.3728 24.4715 26.4395L31.1178 30.2743C31.6205 30.5639 32.2469 30.5655 32.7496 30.2743L39.3926 26.4395C39.5081 26.3728 39.5325 26.2719 39.5325 26.1971C39.5325 26.1222 39.5081 26.0214 39.3926 25.9547L32.748 22.1182H32.7496ZM33.4216 53.0586L40.0662 49.2222C40.5689 48.9309 40.8829 48.3891 40.8829 47.8083V40.1354C40.8829 40.002 40.8065 39.9305 40.743 39.893C40.7072 39.8719 40.6584 39.854 40.6031 39.854C40.5608 39.854 40.5136 39.8654 40.4632 39.893L33.8186 43.7327C33.3158 44.0239 33.0018 44.5657 33.0018 45.1466V52.8178C33.0018 52.9512 33.0783 53.0228 33.1417 53.0602C33.2052 53.0976 33.3061 53.1269 33.4216 53.0602V53.0586ZM43.4536 24.108L50.0982 20.2716C50.6009 19.9804 50.9149 19.4386 50.9149 18.8578V11.1849C50.9149 11.0515 50.8384 10.9799 50.775 10.9425C50.7392 10.9213 50.6904 10.9034 50.6351 10.9034C50.5928 10.9034 50.5456 10.9148 50.4951 10.9425L43.8505 14.7822C43.3478 15.0734 43.0354 15.6152 43.0354 16.196V23.8672C43.0354 24.0007 43.1119 24.0722 43.1754 24.1097C43.2388 24.1471 43.338 24.1764 43.4552 24.1097L43.4536 24.108ZM42.7767 4.76645C42.5246 4.62165 42.2431 4.54843 41.96 4.54843C41.6769 4.54843 41.3954 4.62165 41.1432 4.76645L34.4986 8.60288C34.3831 8.66958 34.3587 8.77045 34.3587 8.8453C34.3587 8.92014 34.3831 9.02101 34.4986 9.08772L41.1449 12.9225C41.6476 13.2137 42.274 13.2121 42.7767 12.9225L49.4197 9.08772C49.5352 9.02101 49.5596 8.92014 49.5596 8.8453C49.5596 8.77045 49.5352 8.66958 49.4197 8.60288L42.7751 4.76645H42.7767ZM43.4487 35.7068L50.0933 31.8704C50.596 31.5791 50.91 31.0374 50.91 30.4565V22.7837C50.91 22.6503 50.8336 22.5787 50.7701 22.5412C50.7343 22.5201 50.6855 22.5022 50.6302 22.5022C50.5879 22.5022 50.5407 22.5136 50.4903 22.5412L43.8457 26.3809C43.3429 26.6722 43.0289 27.2139 43.0289 27.7948V35.466C43.0289 35.5994 43.1054 35.671 43.1688 35.7084C43.2323 35.7458 43.3332 35.7751 43.4487 35.7084V35.7068ZM43.4536 47.2698L50.0982 43.4333C50.6009 43.1421 50.9149 42.6003 50.9149 42.0195V34.3466C50.9149 34.2132 50.8384 34.1416 50.775 34.1042C50.7392 34.0831 50.6904 34.0652 50.6351 34.0652C50.5928 34.0652 50.5456 34.0766 50.4951 34.1042L43.8505 37.9439C43.3478 38.2351 43.0354 38.7769 43.0354 39.3578V47.029C43.0354 47.1624 43.1119 47.234 43.1754 47.2714C43.2388 47.3088 43.338 47.3381 43.4552 47.2714L43.4536 47.2698Z" fill="white"/>
  </g>
  <defs>
    <linearGradient id="paint0_linear_207_22" x1="-2.38419e-06" y1="160" x2="320" y2="160" gradientUnits="userSpaceOnUse">
      <stop stop-color="#FF7700"/>
      <stop offset="1" stop-color="#C6BFFF"/>
    </linearGradient>
    <clipPath id="clip0_207_22">
      <rect width="64" height="64" fill="white"/>
    </clipPath>
  </defs>
</svg>
